%TF.GenerationSoftware,KiCad,Pcbnew,(6.0.6)*%
%TF.CreationDate,2022-08-15T00:28:01+08:00*%
%TF.ProjectId,15k-macropad,31356b2d-6d61-4637-926f-7061642e6b69,rev?*%
%TF.SameCoordinates,Original*%
%TF.FileFunction,Soldermask,Top*%
%TF.FilePolarity,Negative*%
%FSLAX46Y46*%
G04 Gerber Fmt 4.6, Leading zero omitted, Abs format (unit mm)*
G04 Created by KiCad (PCBNEW (6.0.6)) date 2022-08-15 00:28:01*
%MOMM*%
%LPD*%
G01*
G04 APERTURE LIST*
%ADD10C,2.200000*%
%ADD11C,1.750000*%
%ADD12C,4.000000*%
%ADD13C,3.050000*%
%ADD14O,1.700000X1.700000*%
%ADD15R,1.700000X1.700000*%
%ADD16C,0.800000*%
G04 APERTURE END LIST*
D10*
%TO.C,H3*%
X185737500Y-74612500D03*
%TD*%
%TO.C,H1*%
X100012500Y-74612500D03*
%TD*%
D11*
%TO.C,MX15*%
X186055000Y-103187500D03*
D12*
X180975000Y-103187500D03*
D11*
X175895000Y-103187500D03*
D13*
X177165000Y-100647500D03*
X183515000Y-98107500D03*
%TD*%
D12*
%TO.C,MX7*%
X142875000Y-65087500D03*
D13*
X139065000Y-62547500D03*
D11*
X147955000Y-65087500D03*
X137795000Y-65087500D03*
D13*
X145415000Y-60007500D03*
%TD*%
%TO.C,MX5*%
X126365000Y-79057500D03*
D11*
X118745000Y-84137500D03*
D13*
X120015000Y-81597500D03*
D11*
X128905000Y-84137500D03*
D12*
X123825000Y-84137500D03*
%TD*%
D10*
%TO.C,H2*%
X98425000Y-117475000D03*
%TD*%
D13*
%TO.C,MX14*%
X177165000Y-81597500D03*
D11*
X175895000Y-84137500D03*
X186055000Y-84137500D03*
D13*
X183515000Y-79057500D03*
D12*
X180975000Y-84137500D03*
%TD*%
D11*
%TO.C,MX4*%
X128905000Y-65087500D03*
D13*
X120015000Y-62547500D03*
D11*
X118745000Y-65087500D03*
D13*
X126365000Y-60007500D03*
D12*
X123825000Y-65087500D03*
%TD*%
D13*
%TO.C,MX6*%
X126365000Y-98107500D03*
X120015000Y-100647500D03*
D11*
X118745000Y-103187500D03*
D12*
X123825000Y-103187500D03*
D11*
X128905000Y-103187500D03*
%TD*%
D13*
%TO.C,MX11*%
X164465000Y-79057500D03*
D11*
X156845000Y-84137500D03*
D12*
X161925000Y-84137500D03*
D13*
X158115000Y-81597500D03*
D11*
X167005000Y-84137500D03*
%TD*%
D10*
%TO.C,H4*%
X187325000Y-117475000D03*
%TD*%
D13*
%TO.C,MX2*%
X100965000Y-81597500D03*
D11*
X109855000Y-84137500D03*
D12*
X104775000Y-84137500D03*
D11*
X99695000Y-84137500D03*
D13*
X107315000Y-79057500D03*
%TD*%
%TO.C,MX3*%
X107315000Y-98107500D03*
D11*
X99695000Y-103187500D03*
X109855000Y-103187500D03*
D13*
X100965000Y-100647500D03*
D12*
X104775000Y-103187500D03*
%TD*%
D13*
%TO.C,MX10*%
X164465000Y-60007500D03*
D12*
X161925000Y-65087500D03*
D11*
X167005000Y-65087500D03*
D13*
X158115000Y-62547500D03*
D11*
X156845000Y-65087500D03*
%TD*%
D13*
%TO.C,MX9*%
X145415000Y-98107500D03*
X139065000Y-100647500D03*
D11*
X147955000Y-103187500D03*
X137795000Y-103187500D03*
D12*
X142875000Y-103187500D03*
%TD*%
D11*
%TO.C,MX8*%
X147955000Y-84137500D03*
X137795000Y-84137500D03*
D13*
X145415000Y-79057500D03*
D12*
X142875000Y-84137500D03*
D13*
X139065000Y-81597500D03*
%TD*%
%TO.C,MX13*%
X177165000Y-62547500D03*
X183515000Y-60007500D03*
D11*
X186055000Y-65087500D03*
D12*
X180975000Y-65087500D03*
D11*
X175895000Y-65087500D03*
%TD*%
D12*
%TO.C,MX1*%
X104775000Y-65087500D03*
D13*
X100965000Y-62547500D03*
X107315000Y-60007500D03*
D11*
X99695000Y-65087500D03*
X109855000Y-65087500D03*
%TD*%
D12*
%TO.C,MX12*%
X161925000Y-103187500D03*
D13*
X164465000Y-98107500D03*
D11*
X167005000Y-103187500D03*
X156845000Y-103187500D03*
D13*
X158115000Y-100647500D03*
%TD*%
D14*
%TO.C,J1*%
X171926250Y-115887500D03*
X169386250Y-115887500D03*
X166846250Y-115887500D03*
X164306250Y-115887500D03*
X161766250Y-115887500D03*
X159226250Y-115887500D03*
X156686250Y-115887500D03*
X154146250Y-115887500D03*
X151606250Y-115887500D03*
X149066250Y-115887500D03*
D15*
X146526250Y-115887500D03*
%TD*%
D16*
X134937500Y-111125000D03*
X133350000Y-54768750D03*
X132556250Y-73818750D03*
X134143750Y-111918750D03*
X131762500Y-92868750D03*
X133350000Y-112712500D03*
X97631250Y-98425000D03*
X172243750Y-51593750D03*
X172243750Y-113506250D03*
X97631250Y-79375000D03*
X98425000Y-51593750D03*
X97631250Y-60325000D03*
X171450000Y-112712500D03*
X117475000Y-52387500D03*
X116681250Y-60325000D03*
X116681250Y-79375000D03*
X171450000Y-52387500D03*
X116681250Y-98425000D03*
X135731250Y-60325000D03*
X135731250Y-79375000D03*
X170656250Y-53181250D03*
X136525000Y-53181250D03*
X170656250Y-111918750D03*
X135731250Y-98425000D03*
X169862500Y-53975000D03*
X154781250Y-79375000D03*
X154781250Y-98425000D03*
X155575000Y-53975000D03*
X169642785Y-111125000D03*
X154781250Y-60325000D03*
X169862500Y-63500000D03*
X169862500Y-82550000D03*
X168849035Y-110331250D03*
X169862500Y-101600000D03*
X138545000Y-69417500D03*
X100445000Y-88467500D03*
X100445000Y-107517500D03*
X176645000Y-69417500D03*
X138545000Y-88467500D03*
X176645000Y-107517500D03*
X119495000Y-69417500D03*
X100445000Y-69417500D03*
X138545000Y-107517500D03*
X119495000Y-107517500D03*
X157595000Y-107517500D03*
X157595000Y-69417500D03*
X157595000Y-88467500D03*
X176645000Y-88467500D03*
X119495000Y-88467500D03*
X188118750Y-91281250D03*
X187325000Y-69850000D03*
X100806250Y-115093750D03*
X97631250Y-109537500D03*
X184943750Y-115093750D03*
X186531250Y-88900000D03*
X186531250Y-107950000D03*
X184150000Y-114300000D03*
M02*
