%TF.GenerationSoftware,KiCad,Pcbnew,(6.0.6)*%
%TF.CreationDate,2022-08-15T00:28:01+08:00*%
%TF.ProjectId,15k-macropad,31356b2d-6d61-4637-926f-7061642e6b69,rev?*%
%TF.SameCoordinates,Original*%
%TF.FileFunction,Profile,NP*%
%FSLAX46Y46*%
G04 Gerber Fmt 4.6, Leading zero omitted, Abs format (unit mm)*
G04 Created by KiCad (PCBNEW (6.0.6)) date 2022-08-15 00:28:01*
%MOMM*%
%LPD*%
G01*
G04 APERTURE LIST*
%TA.AperFunction,Profile*%
%ADD10C,0.100000*%
%TD*%
G04 APERTURE END LIST*
D10*
X97631250Y-47625000D02*
G75*
G03*
X95250000Y-50006250I50J-2381300D01*
G01*
X95250000Y-118268750D02*
G75*
G03*
X97631250Y-120650000I2381300J50D01*
G01*
X188118750Y-120650000D02*
G75*
G03*
X190500000Y-118268750I-50J2381300D01*
G01*
X95250000Y-118268750D02*
X95250000Y-50006250D01*
X97631250Y-47625000D02*
X188118750Y-47625000D01*
X190500000Y-50006250D02*
X190500000Y-118268750D01*
X188118750Y-120650000D02*
X97631250Y-120650000D01*
X190500000Y-50006250D02*
G75*
G03*
X188118750Y-47625000I-2381300J-50D01*
G01*
%TO.C,LED11*%
X160175516Y-90137219D02*
G75*
G03*
X160225001Y-89920342I-450866J216959D01*
G01*
X162719453Y-87717500D02*
G75*
G03*
X162971711Y-87649201I-3J500009D01*
G01*
X160878289Y-87649200D02*
G75*
G03*
X161130547Y-87717499I252261J431710D01*
G01*
X163624999Y-89920341D02*
G75*
G03*
X163674484Y-90137219I499990J-2D01*
G01*
X163674485Y-88297779D02*
G75*
G03*
X162971711Y-87649201I-450516J216877D01*
G01*
X162971711Y-90785798D02*
G75*
G03*
X163674484Y-90137218I252259J431700D01*
G01*
X161130548Y-90717500D02*
G75*
G03*
X160878290Y-90785798I2J-500010D01*
G01*
X163674484Y-88297779D02*
G75*
G03*
X163624999Y-88514656I450505J-216876D01*
G01*
X160175520Y-90137221D02*
G75*
G03*
X160878289Y-90785796I450510J-216879D01*
G01*
X160224990Y-88514657D02*
G75*
G03*
X160175516Y-88297779I-500290J-43D01*
G01*
X160878289Y-87649200D02*
G75*
G03*
X160175516Y-88297779I-252259J-431700D01*
G01*
X162971711Y-90785798D02*
G75*
G03*
X162719452Y-90717499I-252261J-431710D01*
G01*
X162719452Y-90717499D02*
X161130548Y-90717499D01*
X161130548Y-87717500D02*
X162719453Y-87717500D01*
X163624999Y-88514657D02*
X163624999Y-89920341D01*
X160225001Y-89920341D02*
X160225001Y-88514657D01*
%TO.C,LED8*%
X143921711Y-90785798D02*
G75*
G03*
X143669452Y-90717499I-252261J-431710D01*
G01*
X141125516Y-90137219D02*
G75*
G03*
X141175001Y-89920342I-450866J216959D01*
G01*
X142080548Y-90717500D02*
G75*
G03*
X141828290Y-90785798I2J-500010D01*
G01*
X144624484Y-88297779D02*
G75*
G03*
X144574999Y-88514656I450505J-216876D01*
G01*
X141828289Y-87649200D02*
G75*
G03*
X142080547Y-87717499I252261J431710D01*
G01*
X141828289Y-87649200D02*
G75*
G03*
X141125516Y-88297779I-252259J-431700D01*
G01*
X144574999Y-89920341D02*
G75*
G03*
X144624484Y-90137219I499990J-2D01*
G01*
X141174990Y-88514657D02*
G75*
G03*
X141125516Y-88297779I-500290J-43D01*
G01*
X143669453Y-87717500D02*
G75*
G03*
X143921711Y-87649201I-3J500009D01*
G01*
X144624485Y-88297779D02*
G75*
G03*
X143921711Y-87649201I-450516J216877D01*
G01*
X141125520Y-90137221D02*
G75*
G03*
X141828289Y-90785796I450510J-216879D01*
G01*
X143921711Y-90785798D02*
G75*
G03*
X144624484Y-90137218I252259J431700D01*
G01*
X143669452Y-90717499D02*
X142080548Y-90717499D01*
X144574999Y-88514657D02*
X144574999Y-89920341D01*
X141175001Y-89920341D02*
X141175001Y-88514657D01*
X142080548Y-87717500D02*
X143669453Y-87717500D01*
%TO.C,LED6*%
X123030548Y-109767500D02*
G75*
G03*
X122778290Y-109835798I2J-500010D01*
G01*
X124619453Y-106767500D02*
G75*
G03*
X124871711Y-106699201I-3J500009D01*
G01*
X122075520Y-109187221D02*
G75*
G03*
X122778289Y-109835796I450510J-216879D01*
G01*
X122778289Y-106699200D02*
G75*
G03*
X122075516Y-107347779I-252259J-431700D01*
G01*
X122778289Y-106699200D02*
G75*
G03*
X123030547Y-106767499I252261J431710D01*
G01*
X125574484Y-107347779D02*
G75*
G03*
X125524999Y-107564656I450505J-216876D01*
G01*
X122075516Y-109187219D02*
G75*
G03*
X122125001Y-108970342I-450866J216959D01*
G01*
X124871711Y-109835798D02*
G75*
G03*
X124619452Y-109767499I-252261J-431710D01*
G01*
X124871711Y-109835798D02*
G75*
G03*
X125574484Y-109187218I252259J431700D01*
G01*
X125574485Y-107347779D02*
G75*
G03*
X124871711Y-106699201I-450516J216877D01*
G01*
X125524999Y-108970341D02*
G75*
G03*
X125574484Y-109187219I499990J-2D01*
G01*
X122124990Y-107564657D02*
G75*
G03*
X122075516Y-107347779I-500290J-43D01*
G01*
X125524999Y-107564657D02*
X125524999Y-108970341D01*
X123030548Y-106767500D02*
X124619453Y-106767500D01*
X122125001Y-108970341D02*
X122125001Y-107564657D01*
X124619452Y-109767499D02*
X123030548Y-109767499D01*
%TO.C,LED12*%
X160878289Y-106699200D02*
G75*
G03*
X161130547Y-106767499I252261J431710D01*
G01*
X160175520Y-109187221D02*
G75*
G03*
X160878289Y-109835796I450510J-216879D01*
G01*
X160224990Y-107564657D02*
G75*
G03*
X160175516Y-107347779I-500290J-43D01*
G01*
X162971711Y-109835798D02*
G75*
G03*
X162719452Y-109767499I-252261J-431710D01*
G01*
X163674484Y-107347779D02*
G75*
G03*
X163624999Y-107564656I450505J-216876D01*
G01*
X163674485Y-107347779D02*
G75*
G03*
X162971711Y-106699201I-450516J216877D01*
G01*
X160175516Y-109187219D02*
G75*
G03*
X160225001Y-108970342I-450866J216959D01*
G01*
X162971711Y-109835798D02*
G75*
G03*
X163674484Y-109187218I252259J431700D01*
G01*
X162719453Y-106767500D02*
G75*
G03*
X162971711Y-106699201I-3J500009D01*
G01*
X163624999Y-108970341D02*
G75*
G03*
X163674484Y-109187219I499990J-2D01*
G01*
X160878289Y-106699200D02*
G75*
G03*
X160175516Y-107347779I-252259J-431700D01*
G01*
X161130548Y-109767500D02*
G75*
G03*
X160878290Y-109835798I2J-500010D01*
G01*
X160225001Y-108970341D02*
X160225001Y-107564657D01*
X163624999Y-107564657D02*
X163624999Y-108970341D01*
X161130548Y-106767500D02*
X162719453Y-106767500D01*
X162719452Y-109767499D02*
X161130548Y-109767499D01*
%TO.C,LED13*%
X179928289Y-68599200D02*
G75*
G03*
X179225516Y-69247779I-252259J-431700D01*
G01*
X179225516Y-71087219D02*
G75*
G03*
X179275001Y-70870342I-450866J216959D01*
G01*
X179928289Y-68599200D02*
G75*
G03*
X180180547Y-68667499I252261J431710D01*
G01*
X182021711Y-71735798D02*
G75*
G03*
X181769452Y-71667499I-252261J-431710D01*
G01*
X179225520Y-71087221D02*
G75*
G03*
X179928289Y-71735796I450510J-216879D01*
G01*
X182021711Y-71735798D02*
G75*
G03*
X182724484Y-71087218I252259J431700D01*
G01*
X182674999Y-70870341D02*
G75*
G03*
X182724484Y-71087219I499990J-2D01*
G01*
X182724484Y-69247779D02*
G75*
G03*
X182674999Y-69464656I450505J-216876D01*
G01*
X181769453Y-68667500D02*
G75*
G03*
X182021711Y-68599201I-3J500009D01*
G01*
X182724485Y-69247779D02*
G75*
G03*
X182021711Y-68599201I-450516J216877D01*
G01*
X179274990Y-69464657D02*
G75*
G03*
X179225516Y-69247779I-500290J-43D01*
G01*
X180180548Y-71667500D02*
G75*
G03*
X179928290Y-71735798I2J-500010D01*
G01*
X180180548Y-68667500D02*
X181769453Y-68667500D01*
X182674999Y-69464657D02*
X182674999Y-70870341D01*
X181769452Y-71667499D02*
X180180548Y-71667499D01*
X179275001Y-70870341D02*
X179275001Y-69464657D01*
%TO.C,LED3*%
X105821711Y-109835798D02*
G75*
G03*
X105569452Y-109767499I-252261J-431710D01*
G01*
X105821711Y-109835798D02*
G75*
G03*
X106524484Y-109187218I252259J431700D01*
G01*
X103980548Y-109767500D02*
G75*
G03*
X103728290Y-109835798I2J-500010D01*
G01*
X103728289Y-106699200D02*
G75*
G03*
X103980547Y-106767499I252261J431710D01*
G01*
X103728289Y-106699200D02*
G75*
G03*
X103025516Y-107347779I-252259J-431700D01*
G01*
X106524485Y-107347779D02*
G75*
G03*
X105821711Y-106699201I-450516J216877D01*
G01*
X103025520Y-109187221D02*
G75*
G03*
X103728289Y-109835796I450510J-216879D01*
G01*
X103025516Y-109187219D02*
G75*
G03*
X103075001Y-108970342I-450866J216959D01*
G01*
X106474999Y-108970341D02*
G75*
G03*
X106524484Y-109187219I499990J-2D01*
G01*
X106524484Y-107347779D02*
G75*
G03*
X106474999Y-107564656I450505J-216876D01*
G01*
X103074990Y-107564657D02*
G75*
G03*
X103025516Y-107347779I-500290J-43D01*
G01*
X105569453Y-106767500D02*
G75*
G03*
X105821711Y-106699201I-3J500009D01*
G01*
X103075001Y-108970341D02*
X103075001Y-107564657D01*
X105569452Y-109767499D02*
X103980548Y-109767499D01*
X106474999Y-107564657D02*
X106474999Y-108970341D01*
X103980548Y-106767500D02*
X105569453Y-106767500D01*
%TO.C,LED7*%
X141174990Y-69464657D02*
G75*
G03*
X141125516Y-69247779I-500290J-43D01*
G01*
X144574999Y-70870341D02*
G75*
G03*
X144624484Y-71087219I499990J-2D01*
G01*
X143669453Y-68667500D02*
G75*
G03*
X143921711Y-68599201I-3J500009D01*
G01*
X142080548Y-71667500D02*
G75*
G03*
X141828290Y-71735798I2J-500010D01*
G01*
X141125520Y-71087221D02*
G75*
G03*
X141828289Y-71735796I450510J-216879D01*
G01*
X141125516Y-71087219D02*
G75*
G03*
X141175001Y-70870342I-450866J216959D01*
G01*
X141828289Y-68599200D02*
G75*
G03*
X142080547Y-68667499I252261J431710D01*
G01*
X143921711Y-71735798D02*
G75*
G03*
X144624484Y-71087218I252259J431700D01*
G01*
X144624485Y-69247779D02*
G75*
G03*
X143921711Y-68599201I-450516J216877D01*
G01*
X144624484Y-69247779D02*
G75*
G03*
X144574999Y-69464656I450505J-216876D01*
G01*
X143921711Y-71735798D02*
G75*
G03*
X143669452Y-71667499I-252261J-431710D01*
G01*
X141828289Y-68599200D02*
G75*
G03*
X141125516Y-69247779I-252259J-431700D01*
G01*
X143669452Y-71667499D02*
X142080548Y-71667499D01*
X141175001Y-70870341D02*
X141175001Y-69464657D01*
X144574999Y-69464657D02*
X144574999Y-70870341D01*
X142080548Y-68667500D02*
X143669453Y-68667500D01*
%TO.C,LED9*%
X144624484Y-107347779D02*
G75*
G03*
X144574999Y-107564656I450505J-216876D01*
G01*
X141125516Y-109187219D02*
G75*
G03*
X141175001Y-108970342I-450866J216959D01*
G01*
X141174990Y-107564657D02*
G75*
G03*
X141125516Y-107347779I-500290J-43D01*
G01*
X144574999Y-108970341D02*
G75*
G03*
X144624484Y-109187219I499990J-2D01*
G01*
X141828289Y-106699200D02*
G75*
G03*
X142080547Y-106767499I252261J431710D01*
G01*
X142080548Y-109767500D02*
G75*
G03*
X141828290Y-109835798I2J-500010D01*
G01*
X144624485Y-107347779D02*
G75*
G03*
X143921711Y-106699201I-450516J216877D01*
G01*
X141828289Y-106699200D02*
G75*
G03*
X141125516Y-107347779I-252259J-431700D01*
G01*
X143921711Y-109835798D02*
G75*
G03*
X144624484Y-109187218I252259J431700D01*
G01*
X143921711Y-109835798D02*
G75*
G03*
X143669452Y-109767499I-252261J-431710D01*
G01*
X141125520Y-109187221D02*
G75*
G03*
X141828289Y-109835796I450510J-216879D01*
G01*
X143669453Y-106767500D02*
G75*
G03*
X143921711Y-106699201I-3J500009D01*
G01*
X142080548Y-106767500D02*
X143669453Y-106767500D01*
X144574999Y-107564657D02*
X144574999Y-108970341D01*
X143669452Y-109767499D02*
X142080548Y-109767499D01*
X141175001Y-108970341D02*
X141175001Y-107564657D01*
%TO.C,LED14*%
X179928289Y-87649200D02*
G75*
G03*
X179225516Y-88297779I-252259J-431700D01*
G01*
X182724485Y-88297779D02*
G75*
G03*
X182021711Y-87649201I-450516J216877D01*
G01*
X179225520Y-90137221D02*
G75*
G03*
X179928289Y-90785796I450510J-216879D01*
G01*
X181769453Y-87717500D02*
G75*
G03*
X182021711Y-87649201I-3J500009D01*
G01*
X179274990Y-88514657D02*
G75*
G03*
X179225516Y-88297779I-500290J-43D01*
G01*
X179225516Y-90137219D02*
G75*
G03*
X179275001Y-89920342I-450866J216959D01*
G01*
X182021711Y-90785798D02*
G75*
G03*
X181769452Y-90717499I-252261J-431710D01*
G01*
X182674999Y-89920341D02*
G75*
G03*
X182724484Y-90137219I499990J-2D01*
G01*
X182724484Y-88297779D02*
G75*
G03*
X182674999Y-88514656I450505J-216876D01*
G01*
X182021711Y-90785798D02*
G75*
G03*
X182724484Y-90137218I252259J431700D01*
G01*
X180180548Y-90717500D02*
G75*
G03*
X179928290Y-90785798I2J-500010D01*
G01*
X179928289Y-87649200D02*
G75*
G03*
X180180547Y-87717499I252261J431710D01*
G01*
X182674999Y-88514657D02*
X182674999Y-89920341D01*
X181769452Y-90717499D02*
X180180548Y-90717499D01*
X180180548Y-87717500D02*
X181769453Y-87717500D01*
X179275001Y-89920341D02*
X179275001Y-88514657D01*
%TO.C,LED5*%
X122075516Y-90137219D02*
G75*
G03*
X122125001Y-89920342I-450866J216959D01*
G01*
X122124990Y-88514657D02*
G75*
G03*
X122075516Y-88297779I-500290J-43D01*
G01*
X125574485Y-88297779D02*
G75*
G03*
X124871711Y-87649201I-450516J216877D01*
G01*
X122075520Y-90137221D02*
G75*
G03*
X122778289Y-90785796I450510J-216879D01*
G01*
X124871711Y-90785798D02*
G75*
G03*
X125574484Y-90137218I252259J431700D01*
G01*
X125524999Y-89920341D02*
G75*
G03*
X125574484Y-90137219I499990J-2D01*
G01*
X124619453Y-87717500D02*
G75*
G03*
X124871711Y-87649201I-3J500009D01*
G01*
X122778289Y-87649200D02*
G75*
G03*
X122075516Y-88297779I-252259J-431700D01*
G01*
X122778289Y-87649200D02*
G75*
G03*
X123030547Y-87717499I252261J431710D01*
G01*
X125574484Y-88297779D02*
G75*
G03*
X125524999Y-88514656I450505J-216876D01*
G01*
X123030548Y-90717500D02*
G75*
G03*
X122778290Y-90785798I2J-500010D01*
G01*
X124871711Y-90785798D02*
G75*
G03*
X124619452Y-90717499I-252261J-431710D01*
G01*
X124619452Y-90717499D02*
X123030548Y-90717499D01*
X123030548Y-87717500D02*
X124619453Y-87717500D01*
X125524999Y-88514657D02*
X125524999Y-89920341D01*
X122125001Y-89920341D02*
X122125001Y-88514657D01*
%TO.C,LED10*%
X160878289Y-68599200D02*
G75*
G03*
X161130547Y-68667499I252261J431710D01*
G01*
X160175516Y-71087219D02*
G75*
G03*
X160225001Y-70870342I-450866J216959D01*
G01*
X160878289Y-68599200D02*
G75*
G03*
X160175516Y-69247779I-252259J-431700D01*
G01*
X162971711Y-71735798D02*
G75*
G03*
X163674484Y-71087218I252259J431700D01*
G01*
X160224990Y-69464657D02*
G75*
G03*
X160175516Y-69247779I-500290J-43D01*
G01*
X160175520Y-71087221D02*
G75*
G03*
X160878289Y-71735796I450510J-216879D01*
G01*
X163674485Y-69247779D02*
G75*
G03*
X162971711Y-68599201I-450516J216877D01*
G01*
X162971711Y-71735798D02*
G75*
G03*
X162719452Y-71667499I-252261J-431710D01*
G01*
X163624999Y-70870341D02*
G75*
G03*
X163674484Y-71087219I499990J-2D01*
G01*
X163674484Y-69247779D02*
G75*
G03*
X163624999Y-69464656I450505J-216876D01*
G01*
X162719453Y-68667500D02*
G75*
G03*
X162971711Y-68599201I-3J500009D01*
G01*
X161130548Y-71667500D02*
G75*
G03*
X160878290Y-71735798I2J-500010D01*
G01*
X160225001Y-70870341D02*
X160225001Y-69464657D01*
X163624999Y-69464657D02*
X163624999Y-70870341D01*
X161130548Y-68667500D02*
X162719453Y-68667500D01*
X162719452Y-71667499D02*
X161130548Y-71667499D01*
%TO.C,LED1*%
X103728289Y-68599200D02*
G75*
G03*
X103025516Y-69247779I-252259J-431700D01*
G01*
X105569453Y-68667500D02*
G75*
G03*
X105821711Y-68599201I-3J500009D01*
G01*
X103074990Y-69464657D02*
G75*
G03*
X103025516Y-69247779I-500290J-43D01*
G01*
X103728289Y-68599200D02*
G75*
G03*
X103980547Y-68667499I252261J431710D01*
G01*
X103025520Y-71087221D02*
G75*
G03*
X103728289Y-71735796I450510J-216879D01*
G01*
X103980548Y-71667500D02*
G75*
G03*
X103728290Y-71735798I2J-500010D01*
G01*
X105821711Y-71735798D02*
G75*
G03*
X106524484Y-71087218I252259J431700D01*
G01*
X105821711Y-71735798D02*
G75*
G03*
X105569452Y-71667499I-252261J-431710D01*
G01*
X106524484Y-69247779D02*
G75*
G03*
X106474999Y-69464656I450505J-216876D01*
G01*
X103025516Y-71087219D02*
G75*
G03*
X103075001Y-70870342I-450866J216959D01*
G01*
X106474999Y-70870341D02*
G75*
G03*
X106524484Y-71087219I499990J-2D01*
G01*
X106524485Y-69247779D02*
G75*
G03*
X105821711Y-68599201I-450516J216877D01*
G01*
X106474999Y-69464657D02*
X106474999Y-70870341D01*
X103980548Y-68667500D02*
X105569453Y-68667500D01*
X105569452Y-71667499D02*
X103980548Y-71667499D01*
X103075001Y-70870341D02*
X103075001Y-69464657D01*
%TO.C,LED2*%
X106524485Y-88297779D02*
G75*
G03*
X105821711Y-87649201I-450516J216877D01*
G01*
X103025516Y-90137219D02*
G75*
G03*
X103075001Y-89920342I-450866J216959D01*
G01*
X103074990Y-88514657D02*
G75*
G03*
X103025516Y-88297779I-500290J-43D01*
G01*
X105569453Y-87717500D02*
G75*
G03*
X105821711Y-87649201I-3J500009D01*
G01*
X103728289Y-87649200D02*
G75*
G03*
X103980547Y-87717499I252261J431710D01*
G01*
X105821711Y-90785798D02*
G75*
G03*
X105569452Y-90717499I-252261J-431710D01*
G01*
X103025520Y-90137221D02*
G75*
G03*
X103728289Y-90785796I450510J-216879D01*
G01*
X105821711Y-90785798D02*
G75*
G03*
X106524484Y-90137218I252259J431700D01*
G01*
X103728289Y-87649200D02*
G75*
G03*
X103025516Y-88297779I-252259J-431700D01*
G01*
X103980548Y-90717500D02*
G75*
G03*
X103728290Y-90785798I2J-500010D01*
G01*
X106524484Y-88297779D02*
G75*
G03*
X106474999Y-88514656I450505J-216876D01*
G01*
X106474999Y-89920341D02*
G75*
G03*
X106524484Y-90137219I499990J-2D01*
G01*
X103980548Y-87717500D02*
X105569453Y-87717500D01*
X103075001Y-89920341D02*
X103075001Y-88514657D01*
X106474999Y-88514657D02*
X106474999Y-89920341D01*
X105569452Y-90717499D02*
X103980548Y-90717499D01*
%TO.C,LED4*%
X122075520Y-71087221D02*
G75*
G03*
X122778289Y-71735796I450510J-216879D01*
G01*
X122778289Y-68599200D02*
G75*
G03*
X122075516Y-69247779I-252259J-431700D01*
G01*
X123030548Y-71667500D02*
G75*
G03*
X122778290Y-71735798I2J-500010D01*
G01*
X122778289Y-68599200D02*
G75*
G03*
X123030547Y-68667499I252261J431710D01*
G01*
X122075516Y-71087219D02*
G75*
G03*
X122125001Y-70870342I-450866J216959D01*
G01*
X125524999Y-70870341D02*
G75*
G03*
X125574484Y-71087219I499990J-2D01*
G01*
X124871711Y-71735798D02*
G75*
G03*
X124619452Y-71667499I-252261J-431710D01*
G01*
X125574485Y-69247779D02*
G75*
G03*
X124871711Y-68599201I-450516J216877D01*
G01*
X125574484Y-69247779D02*
G75*
G03*
X125524999Y-69464656I450505J-216876D01*
G01*
X124871711Y-71735798D02*
G75*
G03*
X125574484Y-71087218I252259J431700D01*
G01*
X122124990Y-69464657D02*
G75*
G03*
X122075516Y-69247779I-500290J-43D01*
G01*
X124619453Y-68667500D02*
G75*
G03*
X124871711Y-68599201I-3J500009D01*
G01*
X125524999Y-69464657D02*
X125524999Y-70870341D01*
X124619452Y-71667499D02*
X123030548Y-71667499D01*
X123030548Y-68667500D02*
X124619453Y-68667500D01*
X122125001Y-70870341D02*
X122125001Y-69464657D01*
%TO.C,LED15*%
X179928289Y-106699200D02*
G75*
G03*
X180180547Y-106767499I252261J431710D01*
G01*
X179225516Y-109187219D02*
G75*
G03*
X179275001Y-108970342I-450866J216959D01*
G01*
X179928289Y-106699200D02*
G75*
G03*
X179225516Y-107347779I-252259J-431700D01*
G01*
X181769453Y-106767500D02*
G75*
G03*
X182021711Y-106699201I-3J500009D01*
G01*
X182724485Y-107347779D02*
G75*
G03*
X182021711Y-106699201I-450516J216877D01*
G01*
X179225520Y-109187221D02*
G75*
G03*
X179928289Y-109835796I450510J-216879D01*
G01*
X182724484Y-107347779D02*
G75*
G03*
X182674999Y-107564656I450505J-216876D01*
G01*
X182021711Y-109835798D02*
G75*
G03*
X182724484Y-109187218I252259J431700D01*
G01*
X182674999Y-108970341D02*
G75*
G03*
X182724484Y-109187219I499990J-2D01*
G01*
X182021711Y-109835798D02*
G75*
G03*
X181769452Y-109767499I-252261J-431710D01*
G01*
X180180548Y-109767500D02*
G75*
G03*
X179928290Y-109835798I2J-500010D01*
G01*
X179274990Y-107564657D02*
G75*
G03*
X179225516Y-107347779I-500290J-43D01*
G01*
X182674999Y-107564657D02*
X182674999Y-108970341D01*
X180180548Y-106767500D02*
X181769453Y-106767500D01*
X179275001Y-108970341D02*
X179275001Y-107564657D01*
X181769452Y-109767499D02*
X180180548Y-109767499D01*
%TD*%
M02*
