M48
; DRILL file {KiCad (6.0.6)} date Mon Aug 15 00:28:01 2022
; FORMAT={-:-/ absolute / inch / decimal}
; #@! TF.CreationDate,2022-08-15T00:28:01+08:00
; #@! TF.GenerationSoftware,Kicad,Pcbnew,(6.0.6)
; #@! TF.FileFunction,Plated,1,2,PTH
FMAT,2
INCH
; #@! TA.AperFunction,Plated,PTH,ViaDrill
T1C0.0157
; #@! TA.AperFunction,Plated,PTH,ComponentDrill
T2C0.0394
%
G90
G05
T1
X3.8438Y-2.375
X3.8438Y-3.125
X3.8438Y-3.875
X3.8438Y-4.3125
X3.875Y-2.0312
X3.9545Y-2.733
X3.9545Y-3.483
X3.9545Y-4.233
X3.9688Y-4.5312
X4.5938Y-2.375
X4.5938Y-3.125
X4.5938Y-3.875
X4.625Y-2.0625
X4.7045Y-2.733
X4.7045Y-3.483
X4.7045Y-4.233
X5.1875Y-3.6562
X5.2188Y-2.9062
X5.25Y-2.1562
X5.25Y-4.4375
X5.2812Y-4.4062
X5.3125Y-4.375
X5.3438Y-2.375
X5.3438Y-3.125
X5.3438Y-3.875
X5.375Y-2.0938
X5.4545Y-2.733
X5.4545Y-3.483
X5.4545Y-4.233
X6.0938Y-2.375
X6.0938Y-3.125
X6.0938Y-3.875
X6.125Y-2.125
X6.2045Y-2.733
X6.2045Y-3.483
X6.2045Y-4.233
X6.6476Y-4.3438
X6.6788Y-4.375
X6.6875Y-2.125
X6.6875Y-2.5
X6.6875Y-3.25
X6.6875Y-4.0
X6.7188Y-2.0938
X6.7188Y-4.4062
X6.75Y-2.0625
X6.75Y-4.4375
X6.7812Y-2.0312
X6.7812Y-4.4688
X6.9545Y-2.733
X6.9545Y-3.483
X6.9545Y-4.233
X7.25Y-4.5
X7.2812Y-4.5312
X7.3438Y-3.5
X7.3438Y-4.25
X7.375Y-2.75
X7.4062Y-3.5938
T2
X5.7687Y-4.5625
X5.8687Y-4.5625
X5.9688Y-4.5625
X6.0687Y-4.5625
X6.1688Y-4.5625
X6.2687Y-4.5625
X6.3687Y-4.5625
X6.4688Y-4.5625
X6.5687Y-4.5625
X6.6688Y-4.5625
X6.7687Y-4.5625
T0
M30
