%TF.GenerationSoftware,KiCad,Pcbnew,(6.0.6)*%
%TF.CreationDate,2022-08-15T00:28:01+08:00*%
%TF.ProjectId,15k-macropad,31356b2d-6d61-4637-926f-7061642e6b69,rev?*%
%TF.SameCoordinates,Original*%
%TF.FileFunction,Other,Comment*%
%FSLAX46Y46*%
G04 Gerber Fmt 4.6, Leading zero omitted, Abs format (unit mm)*
G04 Created by KiCad (PCBNEW (6.0.6)) date 2022-08-15 00:28:01*
%MOMM*%
%LPD*%
G01*
G04 APERTURE LIST*
%ADD10C,0.150000*%
%ADD11C,0.120000*%
G04 APERTURE END LIST*
D10*
%TO.C,LED11*%
X157067857Y-83372261D02*
X157163095Y-83419880D01*
X157353571Y-83419880D01*
X157448809Y-83372261D01*
X157496428Y-83277023D01*
X157496428Y-83229404D01*
X157448809Y-83134166D01*
X157353571Y-83086547D01*
X157210714Y-83086547D01*
X157115476Y-83038928D01*
X157067857Y-82943690D01*
X157067857Y-82896071D01*
X157115476Y-82800833D01*
X157210714Y-82753214D01*
X157353571Y-82753214D01*
X157448809Y-82800833D01*
X157829761Y-82753214D02*
X158020238Y-83419880D01*
X158210714Y-82943690D01*
X158401190Y-83419880D01*
X158591666Y-82753214D01*
X158972619Y-83419880D02*
X158972619Y-82753214D01*
X158972619Y-82419880D02*
X158925000Y-82467500D01*
X158972619Y-82515119D01*
X159020238Y-82467500D01*
X158972619Y-82419880D01*
X158972619Y-82515119D01*
X159305952Y-82753214D02*
X159686904Y-82753214D01*
X159448809Y-82419880D02*
X159448809Y-83277023D01*
X159496428Y-83372261D01*
X159591666Y-83419880D01*
X159686904Y-83419880D01*
X160448809Y-83372261D02*
X160353571Y-83419880D01*
X160163095Y-83419880D01*
X160067857Y-83372261D01*
X160020238Y-83324642D01*
X159972619Y-83229404D01*
X159972619Y-82943690D01*
X160020238Y-82848452D01*
X160067857Y-82800833D01*
X160163095Y-82753214D01*
X160353571Y-82753214D01*
X160448809Y-82800833D01*
X160877380Y-83419880D02*
X160877380Y-82419880D01*
X161305952Y-83419880D02*
X161305952Y-82896071D01*
X161258333Y-82800833D01*
X161163095Y-82753214D01*
X161020238Y-82753214D01*
X160925000Y-82800833D01*
X160877380Y-82848452D01*
X162972619Y-83372261D02*
X162877380Y-83419880D01*
X162686904Y-83419880D01*
X162591666Y-83372261D01*
X162544047Y-83324642D01*
X162496428Y-83229404D01*
X162496428Y-82943690D01*
X162544047Y-82848452D01*
X162591666Y-82800833D01*
X162686904Y-82753214D01*
X162877380Y-82753214D01*
X162972619Y-82800833D01*
X163782142Y-83372261D02*
X163686904Y-83419880D01*
X163496428Y-83419880D01*
X163401190Y-83372261D01*
X163353571Y-83277023D01*
X163353571Y-82896071D01*
X163401190Y-82800833D01*
X163496428Y-82753214D01*
X163686904Y-82753214D01*
X163782142Y-82800833D01*
X163829761Y-82896071D01*
X163829761Y-82991309D01*
X163353571Y-83086547D01*
X164258333Y-82753214D02*
X164258333Y-83419880D01*
X164258333Y-82848452D02*
X164305952Y-82800833D01*
X164401190Y-82753214D01*
X164544047Y-82753214D01*
X164639285Y-82800833D01*
X164686904Y-82896071D01*
X164686904Y-83419880D01*
X165020238Y-82753214D02*
X165401190Y-82753214D01*
X165163095Y-82419880D02*
X165163095Y-83277023D01*
X165210714Y-83372261D01*
X165305952Y-83419880D01*
X165401190Y-83419880D01*
X166115476Y-83372261D02*
X166020238Y-83419880D01*
X165829761Y-83419880D01*
X165734523Y-83372261D01*
X165686904Y-83277023D01*
X165686904Y-82896071D01*
X165734523Y-82800833D01*
X165829761Y-82753214D01*
X166020238Y-82753214D01*
X166115476Y-82800833D01*
X166163095Y-82896071D01*
X166163095Y-82991309D01*
X165686904Y-83086547D01*
X166591666Y-83419880D02*
X166591666Y-82753214D01*
X166591666Y-82943690D02*
X166639285Y-82848452D01*
X166686904Y-82800833D01*
X166782142Y-82753214D01*
X166877380Y-82753214D01*
%TO.C,LED8*%
X138017857Y-83372261D02*
X138113095Y-83419880D01*
X138303571Y-83419880D01*
X138398809Y-83372261D01*
X138446428Y-83277023D01*
X138446428Y-83229404D01*
X138398809Y-83134166D01*
X138303571Y-83086547D01*
X138160714Y-83086547D01*
X138065476Y-83038928D01*
X138017857Y-82943690D01*
X138017857Y-82896071D01*
X138065476Y-82800833D01*
X138160714Y-82753214D01*
X138303571Y-82753214D01*
X138398809Y-82800833D01*
X138779761Y-82753214D02*
X138970238Y-83419880D01*
X139160714Y-82943690D01*
X139351190Y-83419880D01*
X139541666Y-82753214D01*
X139922619Y-83419880D02*
X139922619Y-82753214D01*
X139922619Y-82419880D02*
X139875000Y-82467500D01*
X139922619Y-82515119D01*
X139970238Y-82467500D01*
X139922619Y-82419880D01*
X139922619Y-82515119D01*
X140255952Y-82753214D02*
X140636904Y-82753214D01*
X140398809Y-82419880D02*
X140398809Y-83277023D01*
X140446428Y-83372261D01*
X140541666Y-83419880D01*
X140636904Y-83419880D01*
X141398809Y-83372261D02*
X141303571Y-83419880D01*
X141113095Y-83419880D01*
X141017857Y-83372261D01*
X140970238Y-83324642D01*
X140922619Y-83229404D01*
X140922619Y-82943690D01*
X140970238Y-82848452D01*
X141017857Y-82800833D01*
X141113095Y-82753214D01*
X141303571Y-82753214D01*
X141398809Y-82800833D01*
X141827380Y-83419880D02*
X141827380Y-82419880D01*
X142255952Y-83419880D02*
X142255952Y-82896071D01*
X142208333Y-82800833D01*
X142113095Y-82753214D01*
X141970238Y-82753214D01*
X141875000Y-82800833D01*
X141827380Y-82848452D01*
X143922619Y-83372261D02*
X143827380Y-83419880D01*
X143636904Y-83419880D01*
X143541666Y-83372261D01*
X143494047Y-83324642D01*
X143446428Y-83229404D01*
X143446428Y-82943690D01*
X143494047Y-82848452D01*
X143541666Y-82800833D01*
X143636904Y-82753214D01*
X143827380Y-82753214D01*
X143922619Y-82800833D01*
X144732142Y-83372261D02*
X144636904Y-83419880D01*
X144446428Y-83419880D01*
X144351190Y-83372261D01*
X144303571Y-83277023D01*
X144303571Y-82896071D01*
X144351190Y-82800833D01*
X144446428Y-82753214D01*
X144636904Y-82753214D01*
X144732142Y-82800833D01*
X144779761Y-82896071D01*
X144779761Y-82991309D01*
X144303571Y-83086547D01*
X145208333Y-82753214D02*
X145208333Y-83419880D01*
X145208333Y-82848452D02*
X145255952Y-82800833D01*
X145351190Y-82753214D01*
X145494047Y-82753214D01*
X145589285Y-82800833D01*
X145636904Y-82896071D01*
X145636904Y-83419880D01*
X145970238Y-82753214D02*
X146351190Y-82753214D01*
X146113095Y-82419880D02*
X146113095Y-83277023D01*
X146160714Y-83372261D01*
X146255952Y-83419880D01*
X146351190Y-83419880D01*
X147065476Y-83372261D02*
X146970238Y-83419880D01*
X146779761Y-83419880D01*
X146684523Y-83372261D01*
X146636904Y-83277023D01*
X146636904Y-82896071D01*
X146684523Y-82800833D01*
X146779761Y-82753214D01*
X146970238Y-82753214D01*
X147065476Y-82800833D01*
X147113095Y-82896071D01*
X147113095Y-82991309D01*
X146636904Y-83086547D01*
X147541666Y-83419880D02*
X147541666Y-82753214D01*
X147541666Y-82943690D02*
X147589285Y-82848452D01*
X147636904Y-82800833D01*
X147732142Y-82753214D01*
X147827380Y-82753214D01*
%TO.C,LED6*%
X118967857Y-102422261D02*
X119063095Y-102469880D01*
X119253571Y-102469880D01*
X119348809Y-102422261D01*
X119396428Y-102327023D01*
X119396428Y-102279404D01*
X119348809Y-102184166D01*
X119253571Y-102136547D01*
X119110714Y-102136547D01*
X119015476Y-102088928D01*
X118967857Y-101993690D01*
X118967857Y-101946071D01*
X119015476Y-101850833D01*
X119110714Y-101803214D01*
X119253571Y-101803214D01*
X119348809Y-101850833D01*
X119729761Y-101803214D02*
X119920238Y-102469880D01*
X120110714Y-101993690D01*
X120301190Y-102469880D01*
X120491666Y-101803214D01*
X120872619Y-102469880D02*
X120872619Y-101803214D01*
X120872619Y-101469880D02*
X120825000Y-101517500D01*
X120872619Y-101565119D01*
X120920238Y-101517500D01*
X120872619Y-101469880D01*
X120872619Y-101565119D01*
X121205952Y-101803214D02*
X121586904Y-101803214D01*
X121348809Y-101469880D02*
X121348809Y-102327023D01*
X121396428Y-102422261D01*
X121491666Y-102469880D01*
X121586904Y-102469880D01*
X122348809Y-102422261D02*
X122253571Y-102469880D01*
X122063095Y-102469880D01*
X121967857Y-102422261D01*
X121920238Y-102374642D01*
X121872619Y-102279404D01*
X121872619Y-101993690D01*
X121920238Y-101898452D01*
X121967857Y-101850833D01*
X122063095Y-101803214D01*
X122253571Y-101803214D01*
X122348809Y-101850833D01*
X122777380Y-102469880D02*
X122777380Y-101469880D01*
X123205952Y-102469880D02*
X123205952Y-101946071D01*
X123158333Y-101850833D01*
X123063095Y-101803214D01*
X122920238Y-101803214D01*
X122825000Y-101850833D01*
X122777380Y-101898452D01*
X124872619Y-102422261D02*
X124777380Y-102469880D01*
X124586904Y-102469880D01*
X124491666Y-102422261D01*
X124444047Y-102374642D01*
X124396428Y-102279404D01*
X124396428Y-101993690D01*
X124444047Y-101898452D01*
X124491666Y-101850833D01*
X124586904Y-101803214D01*
X124777380Y-101803214D01*
X124872619Y-101850833D01*
X125682142Y-102422261D02*
X125586904Y-102469880D01*
X125396428Y-102469880D01*
X125301190Y-102422261D01*
X125253571Y-102327023D01*
X125253571Y-101946071D01*
X125301190Y-101850833D01*
X125396428Y-101803214D01*
X125586904Y-101803214D01*
X125682142Y-101850833D01*
X125729761Y-101946071D01*
X125729761Y-102041309D01*
X125253571Y-102136547D01*
X126158333Y-101803214D02*
X126158333Y-102469880D01*
X126158333Y-101898452D02*
X126205952Y-101850833D01*
X126301190Y-101803214D01*
X126444047Y-101803214D01*
X126539285Y-101850833D01*
X126586904Y-101946071D01*
X126586904Y-102469880D01*
X126920238Y-101803214D02*
X127301190Y-101803214D01*
X127063095Y-101469880D02*
X127063095Y-102327023D01*
X127110714Y-102422261D01*
X127205952Y-102469880D01*
X127301190Y-102469880D01*
X128015476Y-102422261D02*
X127920238Y-102469880D01*
X127729761Y-102469880D01*
X127634523Y-102422261D01*
X127586904Y-102327023D01*
X127586904Y-101946071D01*
X127634523Y-101850833D01*
X127729761Y-101803214D01*
X127920238Y-101803214D01*
X128015476Y-101850833D01*
X128063095Y-101946071D01*
X128063095Y-102041309D01*
X127586904Y-102136547D01*
X128491666Y-102469880D02*
X128491666Y-101803214D01*
X128491666Y-101993690D02*
X128539285Y-101898452D01*
X128586904Y-101850833D01*
X128682142Y-101803214D01*
X128777380Y-101803214D01*
%TO.C,LED12*%
X157067857Y-102422261D02*
X157163095Y-102469880D01*
X157353571Y-102469880D01*
X157448809Y-102422261D01*
X157496428Y-102327023D01*
X157496428Y-102279404D01*
X157448809Y-102184166D01*
X157353571Y-102136547D01*
X157210714Y-102136547D01*
X157115476Y-102088928D01*
X157067857Y-101993690D01*
X157067857Y-101946071D01*
X157115476Y-101850833D01*
X157210714Y-101803214D01*
X157353571Y-101803214D01*
X157448809Y-101850833D01*
X157829761Y-101803214D02*
X158020238Y-102469880D01*
X158210714Y-101993690D01*
X158401190Y-102469880D01*
X158591666Y-101803214D01*
X158972619Y-102469880D02*
X158972619Y-101803214D01*
X158972619Y-101469880D02*
X158925000Y-101517500D01*
X158972619Y-101565119D01*
X159020238Y-101517500D01*
X158972619Y-101469880D01*
X158972619Y-101565119D01*
X159305952Y-101803214D02*
X159686904Y-101803214D01*
X159448809Y-101469880D02*
X159448809Y-102327023D01*
X159496428Y-102422261D01*
X159591666Y-102469880D01*
X159686904Y-102469880D01*
X160448809Y-102422261D02*
X160353571Y-102469880D01*
X160163095Y-102469880D01*
X160067857Y-102422261D01*
X160020238Y-102374642D01*
X159972619Y-102279404D01*
X159972619Y-101993690D01*
X160020238Y-101898452D01*
X160067857Y-101850833D01*
X160163095Y-101803214D01*
X160353571Y-101803214D01*
X160448809Y-101850833D01*
X160877380Y-102469880D02*
X160877380Y-101469880D01*
X161305952Y-102469880D02*
X161305952Y-101946071D01*
X161258333Y-101850833D01*
X161163095Y-101803214D01*
X161020238Y-101803214D01*
X160925000Y-101850833D01*
X160877380Y-101898452D01*
X162972619Y-102422261D02*
X162877380Y-102469880D01*
X162686904Y-102469880D01*
X162591666Y-102422261D01*
X162544047Y-102374642D01*
X162496428Y-102279404D01*
X162496428Y-101993690D01*
X162544047Y-101898452D01*
X162591666Y-101850833D01*
X162686904Y-101803214D01*
X162877380Y-101803214D01*
X162972619Y-101850833D01*
X163782142Y-102422261D02*
X163686904Y-102469880D01*
X163496428Y-102469880D01*
X163401190Y-102422261D01*
X163353571Y-102327023D01*
X163353571Y-101946071D01*
X163401190Y-101850833D01*
X163496428Y-101803214D01*
X163686904Y-101803214D01*
X163782142Y-101850833D01*
X163829761Y-101946071D01*
X163829761Y-102041309D01*
X163353571Y-102136547D01*
X164258333Y-101803214D02*
X164258333Y-102469880D01*
X164258333Y-101898452D02*
X164305952Y-101850833D01*
X164401190Y-101803214D01*
X164544047Y-101803214D01*
X164639285Y-101850833D01*
X164686904Y-101946071D01*
X164686904Y-102469880D01*
X165020238Y-101803214D02*
X165401190Y-101803214D01*
X165163095Y-101469880D02*
X165163095Y-102327023D01*
X165210714Y-102422261D01*
X165305952Y-102469880D01*
X165401190Y-102469880D01*
X166115476Y-102422261D02*
X166020238Y-102469880D01*
X165829761Y-102469880D01*
X165734523Y-102422261D01*
X165686904Y-102327023D01*
X165686904Y-101946071D01*
X165734523Y-101850833D01*
X165829761Y-101803214D01*
X166020238Y-101803214D01*
X166115476Y-101850833D01*
X166163095Y-101946071D01*
X166163095Y-102041309D01*
X165686904Y-102136547D01*
X166591666Y-102469880D02*
X166591666Y-101803214D01*
X166591666Y-101993690D02*
X166639285Y-101898452D01*
X166686904Y-101850833D01*
X166782142Y-101803214D01*
X166877380Y-101803214D01*
%TO.C,LED13*%
X176117857Y-64322261D02*
X176213095Y-64369880D01*
X176403571Y-64369880D01*
X176498809Y-64322261D01*
X176546428Y-64227023D01*
X176546428Y-64179404D01*
X176498809Y-64084166D01*
X176403571Y-64036547D01*
X176260714Y-64036547D01*
X176165476Y-63988928D01*
X176117857Y-63893690D01*
X176117857Y-63846071D01*
X176165476Y-63750833D01*
X176260714Y-63703214D01*
X176403571Y-63703214D01*
X176498809Y-63750833D01*
X176879761Y-63703214D02*
X177070238Y-64369880D01*
X177260714Y-63893690D01*
X177451190Y-64369880D01*
X177641666Y-63703214D01*
X178022619Y-64369880D02*
X178022619Y-63703214D01*
X178022619Y-63369880D02*
X177975000Y-63417500D01*
X178022619Y-63465119D01*
X178070238Y-63417500D01*
X178022619Y-63369880D01*
X178022619Y-63465119D01*
X178355952Y-63703214D02*
X178736904Y-63703214D01*
X178498809Y-63369880D02*
X178498809Y-64227023D01*
X178546428Y-64322261D01*
X178641666Y-64369880D01*
X178736904Y-64369880D01*
X179498809Y-64322261D02*
X179403571Y-64369880D01*
X179213095Y-64369880D01*
X179117857Y-64322261D01*
X179070238Y-64274642D01*
X179022619Y-64179404D01*
X179022619Y-63893690D01*
X179070238Y-63798452D01*
X179117857Y-63750833D01*
X179213095Y-63703214D01*
X179403571Y-63703214D01*
X179498809Y-63750833D01*
X179927380Y-64369880D02*
X179927380Y-63369880D01*
X180355952Y-64369880D02*
X180355952Y-63846071D01*
X180308333Y-63750833D01*
X180213095Y-63703214D01*
X180070238Y-63703214D01*
X179975000Y-63750833D01*
X179927380Y-63798452D01*
X182022619Y-64322261D02*
X181927380Y-64369880D01*
X181736904Y-64369880D01*
X181641666Y-64322261D01*
X181594047Y-64274642D01*
X181546428Y-64179404D01*
X181546428Y-63893690D01*
X181594047Y-63798452D01*
X181641666Y-63750833D01*
X181736904Y-63703214D01*
X181927380Y-63703214D01*
X182022619Y-63750833D01*
X182832142Y-64322261D02*
X182736904Y-64369880D01*
X182546428Y-64369880D01*
X182451190Y-64322261D01*
X182403571Y-64227023D01*
X182403571Y-63846071D01*
X182451190Y-63750833D01*
X182546428Y-63703214D01*
X182736904Y-63703214D01*
X182832142Y-63750833D01*
X182879761Y-63846071D01*
X182879761Y-63941309D01*
X182403571Y-64036547D01*
X183308333Y-63703214D02*
X183308333Y-64369880D01*
X183308333Y-63798452D02*
X183355952Y-63750833D01*
X183451190Y-63703214D01*
X183594047Y-63703214D01*
X183689285Y-63750833D01*
X183736904Y-63846071D01*
X183736904Y-64369880D01*
X184070238Y-63703214D02*
X184451190Y-63703214D01*
X184213095Y-63369880D02*
X184213095Y-64227023D01*
X184260714Y-64322261D01*
X184355952Y-64369880D01*
X184451190Y-64369880D01*
X185165476Y-64322261D02*
X185070238Y-64369880D01*
X184879761Y-64369880D01*
X184784523Y-64322261D01*
X184736904Y-64227023D01*
X184736904Y-63846071D01*
X184784523Y-63750833D01*
X184879761Y-63703214D01*
X185070238Y-63703214D01*
X185165476Y-63750833D01*
X185213095Y-63846071D01*
X185213095Y-63941309D01*
X184736904Y-64036547D01*
X185641666Y-64369880D02*
X185641666Y-63703214D01*
X185641666Y-63893690D02*
X185689285Y-63798452D01*
X185736904Y-63750833D01*
X185832142Y-63703214D01*
X185927380Y-63703214D01*
%TO.C,LED3*%
X99917857Y-102422261D02*
X100013095Y-102469880D01*
X100203571Y-102469880D01*
X100298809Y-102422261D01*
X100346428Y-102327023D01*
X100346428Y-102279404D01*
X100298809Y-102184166D01*
X100203571Y-102136547D01*
X100060714Y-102136547D01*
X99965476Y-102088928D01*
X99917857Y-101993690D01*
X99917857Y-101946071D01*
X99965476Y-101850833D01*
X100060714Y-101803214D01*
X100203571Y-101803214D01*
X100298809Y-101850833D01*
X100679761Y-101803214D02*
X100870238Y-102469880D01*
X101060714Y-101993690D01*
X101251190Y-102469880D01*
X101441666Y-101803214D01*
X101822619Y-102469880D02*
X101822619Y-101803214D01*
X101822619Y-101469880D02*
X101775000Y-101517500D01*
X101822619Y-101565119D01*
X101870238Y-101517500D01*
X101822619Y-101469880D01*
X101822619Y-101565119D01*
X102155952Y-101803214D02*
X102536904Y-101803214D01*
X102298809Y-101469880D02*
X102298809Y-102327023D01*
X102346428Y-102422261D01*
X102441666Y-102469880D01*
X102536904Y-102469880D01*
X103298809Y-102422261D02*
X103203571Y-102469880D01*
X103013095Y-102469880D01*
X102917857Y-102422261D01*
X102870238Y-102374642D01*
X102822619Y-102279404D01*
X102822619Y-101993690D01*
X102870238Y-101898452D01*
X102917857Y-101850833D01*
X103013095Y-101803214D01*
X103203571Y-101803214D01*
X103298809Y-101850833D01*
X103727380Y-102469880D02*
X103727380Y-101469880D01*
X104155952Y-102469880D02*
X104155952Y-101946071D01*
X104108333Y-101850833D01*
X104013095Y-101803214D01*
X103870238Y-101803214D01*
X103775000Y-101850833D01*
X103727380Y-101898452D01*
X105822619Y-102422261D02*
X105727380Y-102469880D01*
X105536904Y-102469880D01*
X105441666Y-102422261D01*
X105394047Y-102374642D01*
X105346428Y-102279404D01*
X105346428Y-101993690D01*
X105394047Y-101898452D01*
X105441666Y-101850833D01*
X105536904Y-101803214D01*
X105727380Y-101803214D01*
X105822619Y-101850833D01*
X106632142Y-102422261D02*
X106536904Y-102469880D01*
X106346428Y-102469880D01*
X106251190Y-102422261D01*
X106203571Y-102327023D01*
X106203571Y-101946071D01*
X106251190Y-101850833D01*
X106346428Y-101803214D01*
X106536904Y-101803214D01*
X106632142Y-101850833D01*
X106679761Y-101946071D01*
X106679761Y-102041309D01*
X106203571Y-102136547D01*
X107108333Y-101803214D02*
X107108333Y-102469880D01*
X107108333Y-101898452D02*
X107155952Y-101850833D01*
X107251190Y-101803214D01*
X107394047Y-101803214D01*
X107489285Y-101850833D01*
X107536904Y-101946071D01*
X107536904Y-102469880D01*
X107870238Y-101803214D02*
X108251190Y-101803214D01*
X108013095Y-101469880D02*
X108013095Y-102327023D01*
X108060714Y-102422261D01*
X108155952Y-102469880D01*
X108251190Y-102469880D01*
X108965476Y-102422261D02*
X108870238Y-102469880D01*
X108679761Y-102469880D01*
X108584523Y-102422261D01*
X108536904Y-102327023D01*
X108536904Y-101946071D01*
X108584523Y-101850833D01*
X108679761Y-101803214D01*
X108870238Y-101803214D01*
X108965476Y-101850833D01*
X109013095Y-101946071D01*
X109013095Y-102041309D01*
X108536904Y-102136547D01*
X109441666Y-102469880D02*
X109441666Y-101803214D01*
X109441666Y-101993690D02*
X109489285Y-101898452D01*
X109536904Y-101850833D01*
X109632142Y-101803214D01*
X109727380Y-101803214D01*
%TO.C,LED7*%
X138017857Y-64322261D02*
X138113095Y-64369880D01*
X138303571Y-64369880D01*
X138398809Y-64322261D01*
X138446428Y-64227023D01*
X138446428Y-64179404D01*
X138398809Y-64084166D01*
X138303571Y-64036547D01*
X138160714Y-64036547D01*
X138065476Y-63988928D01*
X138017857Y-63893690D01*
X138017857Y-63846071D01*
X138065476Y-63750833D01*
X138160714Y-63703214D01*
X138303571Y-63703214D01*
X138398809Y-63750833D01*
X138779761Y-63703214D02*
X138970238Y-64369880D01*
X139160714Y-63893690D01*
X139351190Y-64369880D01*
X139541666Y-63703214D01*
X139922619Y-64369880D02*
X139922619Y-63703214D01*
X139922619Y-63369880D02*
X139875000Y-63417500D01*
X139922619Y-63465119D01*
X139970238Y-63417500D01*
X139922619Y-63369880D01*
X139922619Y-63465119D01*
X140255952Y-63703214D02*
X140636904Y-63703214D01*
X140398809Y-63369880D02*
X140398809Y-64227023D01*
X140446428Y-64322261D01*
X140541666Y-64369880D01*
X140636904Y-64369880D01*
X141398809Y-64322261D02*
X141303571Y-64369880D01*
X141113095Y-64369880D01*
X141017857Y-64322261D01*
X140970238Y-64274642D01*
X140922619Y-64179404D01*
X140922619Y-63893690D01*
X140970238Y-63798452D01*
X141017857Y-63750833D01*
X141113095Y-63703214D01*
X141303571Y-63703214D01*
X141398809Y-63750833D01*
X141827380Y-64369880D02*
X141827380Y-63369880D01*
X142255952Y-64369880D02*
X142255952Y-63846071D01*
X142208333Y-63750833D01*
X142113095Y-63703214D01*
X141970238Y-63703214D01*
X141875000Y-63750833D01*
X141827380Y-63798452D01*
X143922619Y-64322261D02*
X143827380Y-64369880D01*
X143636904Y-64369880D01*
X143541666Y-64322261D01*
X143494047Y-64274642D01*
X143446428Y-64179404D01*
X143446428Y-63893690D01*
X143494047Y-63798452D01*
X143541666Y-63750833D01*
X143636904Y-63703214D01*
X143827380Y-63703214D01*
X143922619Y-63750833D01*
X144732142Y-64322261D02*
X144636904Y-64369880D01*
X144446428Y-64369880D01*
X144351190Y-64322261D01*
X144303571Y-64227023D01*
X144303571Y-63846071D01*
X144351190Y-63750833D01*
X144446428Y-63703214D01*
X144636904Y-63703214D01*
X144732142Y-63750833D01*
X144779761Y-63846071D01*
X144779761Y-63941309D01*
X144303571Y-64036547D01*
X145208333Y-63703214D02*
X145208333Y-64369880D01*
X145208333Y-63798452D02*
X145255952Y-63750833D01*
X145351190Y-63703214D01*
X145494047Y-63703214D01*
X145589285Y-63750833D01*
X145636904Y-63846071D01*
X145636904Y-64369880D01*
X145970238Y-63703214D02*
X146351190Y-63703214D01*
X146113095Y-63369880D02*
X146113095Y-64227023D01*
X146160714Y-64322261D01*
X146255952Y-64369880D01*
X146351190Y-64369880D01*
X147065476Y-64322261D02*
X146970238Y-64369880D01*
X146779761Y-64369880D01*
X146684523Y-64322261D01*
X146636904Y-64227023D01*
X146636904Y-63846071D01*
X146684523Y-63750833D01*
X146779761Y-63703214D01*
X146970238Y-63703214D01*
X147065476Y-63750833D01*
X147113095Y-63846071D01*
X147113095Y-63941309D01*
X146636904Y-64036547D01*
X147541666Y-64369880D02*
X147541666Y-63703214D01*
X147541666Y-63893690D02*
X147589285Y-63798452D01*
X147636904Y-63750833D01*
X147732142Y-63703214D01*
X147827380Y-63703214D01*
%TO.C,LED9*%
X138017857Y-102422261D02*
X138113095Y-102469880D01*
X138303571Y-102469880D01*
X138398809Y-102422261D01*
X138446428Y-102327023D01*
X138446428Y-102279404D01*
X138398809Y-102184166D01*
X138303571Y-102136547D01*
X138160714Y-102136547D01*
X138065476Y-102088928D01*
X138017857Y-101993690D01*
X138017857Y-101946071D01*
X138065476Y-101850833D01*
X138160714Y-101803214D01*
X138303571Y-101803214D01*
X138398809Y-101850833D01*
X138779761Y-101803214D02*
X138970238Y-102469880D01*
X139160714Y-101993690D01*
X139351190Y-102469880D01*
X139541666Y-101803214D01*
X139922619Y-102469880D02*
X139922619Y-101803214D01*
X139922619Y-101469880D02*
X139875000Y-101517500D01*
X139922619Y-101565119D01*
X139970238Y-101517500D01*
X139922619Y-101469880D01*
X139922619Y-101565119D01*
X140255952Y-101803214D02*
X140636904Y-101803214D01*
X140398809Y-101469880D02*
X140398809Y-102327023D01*
X140446428Y-102422261D01*
X140541666Y-102469880D01*
X140636904Y-102469880D01*
X141398809Y-102422261D02*
X141303571Y-102469880D01*
X141113095Y-102469880D01*
X141017857Y-102422261D01*
X140970238Y-102374642D01*
X140922619Y-102279404D01*
X140922619Y-101993690D01*
X140970238Y-101898452D01*
X141017857Y-101850833D01*
X141113095Y-101803214D01*
X141303571Y-101803214D01*
X141398809Y-101850833D01*
X141827380Y-102469880D02*
X141827380Y-101469880D01*
X142255952Y-102469880D02*
X142255952Y-101946071D01*
X142208333Y-101850833D01*
X142113095Y-101803214D01*
X141970238Y-101803214D01*
X141875000Y-101850833D01*
X141827380Y-101898452D01*
X143922619Y-102422261D02*
X143827380Y-102469880D01*
X143636904Y-102469880D01*
X143541666Y-102422261D01*
X143494047Y-102374642D01*
X143446428Y-102279404D01*
X143446428Y-101993690D01*
X143494047Y-101898452D01*
X143541666Y-101850833D01*
X143636904Y-101803214D01*
X143827380Y-101803214D01*
X143922619Y-101850833D01*
X144732142Y-102422261D02*
X144636904Y-102469880D01*
X144446428Y-102469880D01*
X144351190Y-102422261D01*
X144303571Y-102327023D01*
X144303571Y-101946071D01*
X144351190Y-101850833D01*
X144446428Y-101803214D01*
X144636904Y-101803214D01*
X144732142Y-101850833D01*
X144779761Y-101946071D01*
X144779761Y-102041309D01*
X144303571Y-102136547D01*
X145208333Y-101803214D02*
X145208333Y-102469880D01*
X145208333Y-101898452D02*
X145255952Y-101850833D01*
X145351190Y-101803214D01*
X145494047Y-101803214D01*
X145589285Y-101850833D01*
X145636904Y-101946071D01*
X145636904Y-102469880D01*
X145970238Y-101803214D02*
X146351190Y-101803214D01*
X146113095Y-101469880D02*
X146113095Y-102327023D01*
X146160714Y-102422261D01*
X146255952Y-102469880D01*
X146351190Y-102469880D01*
X147065476Y-102422261D02*
X146970238Y-102469880D01*
X146779761Y-102469880D01*
X146684523Y-102422261D01*
X146636904Y-102327023D01*
X146636904Y-101946071D01*
X146684523Y-101850833D01*
X146779761Y-101803214D01*
X146970238Y-101803214D01*
X147065476Y-101850833D01*
X147113095Y-101946071D01*
X147113095Y-102041309D01*
X146636904Y-102136547D01*
X147541666Y-102469880D02*
X147541666Y-101803214D01*
X147541666Y-101993690D02*
X147589285Y-101898452D01*
X147636904Y-101850833D01*
X147732142Y-101803214D01*
X147827380Y-101803214D01*
%TO.C,LED14*%
X176117857Y-83372261D02*
X176213095Y-83419880D01*
X176403571Y-83419880D01*
X176498809Y-83372261D01*
X176546428Y-83277023D01*
X176546428Y-83229404D01*
X176498809Y-83134166D01*
X176403571Y-83086547D01*
X176260714Y-83086547D01*
X176165476Y-83038928D01*
X176117857Y-82943690D01*
X176117857Y-82896071D01*
X176165476Y-82800833D01*
X176260714Y-82753214D01*
X176403571Y-82753214D01*
X176498809Y-82800833D01*
X176879761Y-82753214D02*
X177070238Y-83419880D01*
X177260714Y-82943690D01*
X177451190Y-83419880D01*
X177641666Y-82753214D01*
X178022619Y-83419880D02*
X178022619Y-82753214D01*
X178022619Y-82419880D02*
X177975000Y-82467500D01*
X178022619Y-82515119D01*
X178070238Y-82467500D01*
X178022619Y-82419880D01*
X178022619Y-82515119D01*
X178355952Y-82753214D02*
X178736904Y-82753214D01*
X178498809Y-82419880D02*
X178498809Y-83277023D01*
X178546428Y-83372261D01*
X178641666Y-83419880D01*
X178736904Y-83419880D01*
X179498809Y-83372261D02*
X179403571Y-83419880D01*
X179213095Y-83419880D01*
X179117857Y-83372261D01*
X179070238Y-83324642D01*
X179022619Y-83229404D01*
X179022619Y-82943690D01*
X179070238Y-82848452D01*
X179117857Y-82800833D01*
X179213095Y-82753214D01*
X179403571Y-82753214D01*
X179498809Y-82800833D01*
X179927380Y-83419880D02*
X179927380Y-82419880D01*
X180355952Y-83419880D02*
X180355952Y-82896071D01*
X180308333Y-82800833D01*
X180213095Y-82753214D01*
X180070238Y-82753214D01*
X179975000Y-82800833D01*
X179927380Y-82848452D01*
X182022619Y-83372261D02*
X181927380Y-83419880D01*
X181736904Y-83419880D01*
X181641666Y-83372261D01*
X181594047Y-83324642D01*
X181546428Y-83229404D01*
X181546428Y-82943690D01*
X181594047Y-82848452D01*
X181641666Y-82800833D01*
X181736904Y-82753214D01*
X181927380Y-82753214D01*
X182022619Y-82800833D01*
X182832142Y-83372261D02*
X182736904Y-83419880D01*
X182546428Y-83419880D01*
X182451190Y-83372261D01*
X182403571Y-83277023D01*
X182403571Y-82896071D01*
X182451190Y-82800833D01*
X182546428Y-82753214D01*
X182736904Y-82753214D01*
X182832142Y-82800833D01*
X182879761Y-82896071D01*
X182879761Y-82991309D01*
X182403571Y-83086547D01*
X183308333Y-82753214D02*
X183308333Y-83419880D01*
X183308333Y-82848452D02*
X183355952Y-82800833D01*
X183451190Y-82753214D01*
X183594047Y-82753214D01*
X183689285Y-82800833D01*
X183736904Y-82896071D01*
X183736904Y-83419880D01*
X184070238Y-82753214D02*
X184451190Y-82753214D01*
X184213095Y-82419880D02*
X184213095Y-83277023D01*
X184260714Y-83372261D01*
X184355952Y-83419880D01*
X184451190Y-83419880D01*
X185165476Y-83372261D02*
X185070238Y-83419880D01*
X184879761Y-83419880D01*
X184784523Y-83372261D01*
X184736904Y-83277023D01*
X184736904Y-82896071D01*
X184784523Y-82800833D01*
X184879761Y-82753214D01*
X185070238Y-82753214D01*
X185165476Y-82800833D01*
X185213095Y-82896071D01*
X185213095Y-82991309D01*
X184736904Y-83086547D01*
X185641666Y-83419880D02*
X185641666Y-82753214D01*
X185641666Y-82943690D02*
X185689285Y-82848452D01*
X185736904Y-82800833D01*
X185832142Y-82753214D01*
X185927380Y-82753214D01*
%TO.C,LED5*%
X118967857Y-83372261D02*
X119063095Y-83419880D01*
X119253571Y-83419880D01*
X119348809Y-83372261D01*
X119396428Y-83277023D01*
X119396428Y-83229404D01*
X119348809Y-83134166D01*
X119253571Y-83086547D01*
X119110714Y-83086547D01*
X119015476Y-83038928D01*
X118967857Y-82943690D01*
X118967857Y-82896071D01*
X119015476Y-82800833D01*
X119110714Y-82753214D01*
X119253571Y-82753214D01*
X119348809Y-82800833D01*
X119729761Y-82753214D02*
X119920238Y-83419880D01*
X120110714Y-82943690D01*
X120301190Y-83419880D01*
X120491666Y-82753214D01*
X120872619Y-83419880D02*
X120872619Y-82753214D01*
X120872619Y-82419880D02*
X120825000Y-82467500D01*
X120872619Y-82515119D01*
X120920238Y-82467500D01*
X120872619Y-82419880D01*
X120872619Y-82515119D01*
X121205952Y-82753214D02*
X121586904Y-82753214D01*
X121348809Y-82419880D02*
X121348809Y-83277023D01*
X121396428Y-83372261D01*
X121491666Y-83419880D01*
X121586904Y-83419880D01*
X122348809Y-83372261D02*
X122253571Y-83419880D01*
X122063095Y-83419880D01*
X121967857Y-83372261D01*
X121920238Y-83324642D01*
X121872619Y-83229404D01*
X121872619Y-82943690D01*
X121920238Y-82848452D01*
X121967857Y-82800833D01*
X122063095Y-82753214D01*
X122253571Y-82753214D01*
X122348809Y-82800833D01*
X122777380Y-83419880D02*
X122777380Y-82419880D01*
X123205952Y-83419880D02*
X123205952Y-82896071D01*
X123158333Y-82800833D01*
X123063095Y-82753214D01*
X122920238Y-82753214D01*
X122825000Y-82800833D01*
X122777380Y-82848452D01*
X124872619Y-83372261D02*
X124777380Y-83419880D01*
X124586904Y-83419880D01*
X124491666Y-83372261D01*
X124444047Y-83324642D01*
X124396428Y-83229404D01*
X124396428Y-82943690D01*
X124444047Y-82848452D01*
X124491666Y-82800833D01*
X124586904Y-82753214D01*
X124777380Y-82753214D01*
X124872619Y-82800833D01*
X125682142Y-83372261D02*
X125586904Y-83419880D01*
X125396428Y-83419880D01*
X125301190Y-83372261D01*
X125253571Y-83277023D01*
X125253571Y-82896071D01*
X125301190Y-82800833D01*
X125396428Y-82753214D01*
X125586904Y-82753214D01*
X125682142Y-82800833D01*
X125729761Y-82896071D01*
X125729761Y-82991309D01*
X125253571Y-83086547D01*
X126158333Y-82753214D02*
X126158333Y-83419880D01*
X126158333Y-82848452D02*
X126205952Y-82800833D01*
X126301190Y-82753214D01*
X126444047Y-82753214D01*
X126539285Y-82800833D01*
X126586904Y-82896071D01*
X126586904Y-83419880D01*
X126920238Y-82753214D02*
X127301190Y-82753214D01*
X127063095Y-82419880D02*
X127063095Y-83277023D01*
X127110714Y-83372261D01*
X127205952Y-83419880D01*
X127301190Y-83419880D01*
X128015476Y-83372261D02*
X127920238Y-83419880D01*
X127729761Y-83419880D01*
X127634523Y-83372261D01*
X127586904Y-83277023D01*
X127586904Y-82896071D01*
X127634523Y-82800833D01*
X127729761Y-82753214D01*
X127920238Y-82753214D01*
X128015476Y-82800833D01*
X128063095Y-82896071D01*
X128063095Y-82991309D01*
X127586904Y-83086547D01*
X128491666Y-83419880D02*
X128491666Y-82753214D01*
X128491666Y-82943690D02*
X128539285Y-82848452D01*
X128586904Y-82800833D01*
X128682142Y-82753214D01*
X128777380Y-82753214D01*
%TO.C,LED10*%
X157067857Y-64322261D02*
X157163095Y-64369880D01*
X157353571Y-64369880D01*
X157448809Y-64322261D01*
X157496428Y-64227023D01*
X157496428Y-64179404D01*
X157448809Y-64084166D01*
X157353571Y-64036547D01*
X157210714Y-64036547D01*
X157115476Y-63988928D01*
X157067857Y-63893690D01*
X157067857Y-63846071D01*
X157115476Y-63750833D01*
X157210714Y-63703214D01*
X157353571Y-63703214D01*
X157448809Y-63750833D01*
X157829761Y-63703214D02*
X158020238Y-64369880D01*
X158210714Y-63893690D01*
X158401190Y-64369880D01*
X158591666Y-63703214D01*
X158972619Y-64369880D02*
X158972619Y-63703214D01*
X158972619Y-63369880D02*
X158925000Y-63417500D01*
X158972619Y-63465119D01*
X159020238Y-63417500D01*
X158972619Y-63369880D01*
X158972619Y-63465119D01*
X159305952Y-63703214D02*
X159686904Y-63703214D01*
X159448809Y-63369880D02*
X159448809Y-64227023D01*
X159496428Y-64322261D01*
X159591666Y-64369880D01*
X159686904Y-64369880D01*
X160448809Y-64322261D02*
X160353571Y-64369880D01*
X160163095Y-64369880D01*
X160067857Y-64322261D01*
X160020238Y-64274642D01*
X159972619Y-64179404D01*
X159972619Y-63893690D01*
X160020238Y-63798452D01*
X160067857Y-63750833D01*
X160163095Y-63703214D01*
X160353571Y-63703214D01*
X160448809Y-63750833D01*
X160877380Y-64369880D02*
X160877380Y-63369880D01*
X161305952Y-64369880D02*
X161305952Y-63846071D01*
X161258333Y-63750833D01*
X161163095Y-63703214D01*
X161020238Y-63703214D01*
X160925000Y-63750833D01*
X160877380Y-63798452D01*
X162972619Y-64322261D02*
X162877380Y-64369880D01*
X162686904Y-64369880D01*
X162591666Y-64322261D01*
X162544047Y-64274642D01*
X162496428Y-64179404D01*
X162496428Y-63893690D01*
X162544047Y-63798452D01*
X162591666Y-63750833D01*
X162686904Y-63703214D01*
X162877380Y-63703214D01*
X162972619Y-63750833D01*
X163782142Y-64322261D02*
X163686904Y-64369880D01*
X163496428Y-64369880D01*
X163401190Y-64322261D01*
X163353571Y-64227023D01*
X163353571Y-63846071D01*
X163401190Y-63750833D01*
X163496428Y-63703214D01*
X163686904Y-63703214D01*
X163782142Y-63750833D01*
X163829761Y-63846071D01*
X163829761Y-63941309D01*
X163353571Y-64036547D01*
X164258333Y-63703214D02*
X164258333Y-64369880D01*
X164258333Y-63798452D02*
X164305952Y-63750833D01*
X164401190Y-63703214D01*
X164544047Y-63703214D01*
X164639285Y-63750833D01*
X164686904Y-63846071D01*
X164686904Y-64369880D01*
X165020238Y-63703214D02*
X165401190Y-63703214D01*
X165163095Y-63369880D02*
X165163095Y-64227023D01*
X165210714Y-64322261D01*
X165305952Y-64369880D01*
X165401190Y-64369880D01*
X166115476Y-64322261D02*
X166020238Y-64369880D01*
X165829761Y-64369880D01*
X165734523Y-64322261D01*
X165686904Y-64227023D01*
X165686904Y-63846071D01*
X165734523Y-63750833D01*
X165829761Y-63703214D01*
X166020238Y-63703214D01*
X166115476Y-63750833D01*
X166163095Y-63846071D01*
X166163095Y-63941309D01*
X165686904Y-64036547D01*
X166591666Y-64369880D02*
X166591666Y-63703214D01*
X166591666Y-63893690D02*
X166639285Y-63798452D01*
X166686904Y-63750833D01*
X166782142Y-63703214D01*
X166877380Y-63703214D01*
%TO.C,LED1*%
X99917857Y-64322261D02*
X100013095Y-64369880D01*
X100203571Y-64369880D01*
X100298809Y-64322261D01*
X100346428Y-64227023D01*
X100346428Y-64179404D01*
X100298809Y-64084166D01*
X100203571Y-64036547D01*
X100060714Y-64036547D01*
X99965476Y-63988928D01*
X99917857Y-63893690D01*
X99917857Y-63846071D01*
X99965476Y-63750833D01*
X100060714Y-63703214D01*
X100203571Y-63703214D01*
X100298809Y-63750833D01*
X100679761Y-63703214D02*
X100870238Y-64369880D01*
X101060714Y-63893690D01*
X101251190Y-64369880D01*
X101441666Y-63703214D01*
X101822619Y-64369880D02*
X101822619Y-63703214D01*
X101822619Y-63369880D02*
X101775000Y-63417500D01*
X101822619Y-63465119D01*
X101870238Y-63417500D01*
X101822619Y-63369880D01*
X101822619Y-63465119D01*
X102155952Y-63703214D02*
X102536904Y-63703214D01*
X102298809Y-63369880D02*
X102298809Y-64227023D01*
X102346428Y-64322261D01*
X102441666Y-64369880D01*
X102536904Y-64369880D01*
X103298809Y-64322261D02*
X103203571Y-64369880D01*
X103013095Y-64369880D01*
X102917857Y-64322261D01*
X102870238Y-64274642D01*
X102822619Y-64179404D01*
X102822619Y-63893690D01*
X102870238Y-63798452D01*
X102917857Y-63750833D01*
X103013095Y-63703214D01*
X103203571Y-63703214D01*
X103298809Y-63750833D01*
X103727380Y-64369880D02*
X103727380Y-63369880D01*
X104155952Y-64369880D02*
X104155952Y-63846071D01*
X104108333Y-63750833D01*
X104013095Y-63703214D01*
X103870238Y-63703214D01*
X103775000Y-63750833D01*
X103727380Y-63798452D01*
X105822619Y-64322261D02*
X105727380Y-64369880D01*
X105536904Y-64369880D01*
X105441666Y-64322261D01*
X105394047Y-64274642D01*
X105346428Y-64179404D01*
X105346428Y-63893690D01*
X105394047Y-63798452D01*
X105441666Y-63750833D01*
X105536904Y-63703214D01*
X105727380Y-63703214D01*
X105822619Y-63750833D01*
X106632142Y-64322261D02*
X106536904Y-64369880D01*
X106346428Y-64369880D01*
X106251190Y-64322261D01*
X106203571Y-64227023D01*
X106203571Y-63846071D01*
X106251190Y-63750833D01*
X106346428Y-63703214D01*
X106536904Y-63703214D01*
X106632142Y-63750833D01*
X106679761Y-63846071D01*
X106679761Y-63941309D01*
X106203571Y-64036547D01*
X107108333Y-63703214D02*
X107108333Y-64369880D01*
X107108333Y-63798452D02*
X107155952Y-63750833D01*
X107251190Y-63703214D01*
X107394047Y-63703214D01*
X107489285Y-63750833D01*
X107536904Y-63846071D01*
X107536904Y-64369880D01*
X107870238Y-63703214D02*
X108251190Y-63703214D01*
X108013095Y-63369880D02*
X108013095Y-64227023D01*
X108060714Y-64322261D01*
X108155952Y-64369880D01*
X108251190Y-64369880D01*
X108965476Y-64322261D02*
X108870238Y-64369880D01*
X108679761Y-64369880D01*
X108584523Y-64322261D01*
X108536904Y-64227023D01*
X108536904Y-63846071D01*
X108584523Y-63750833D01*
X108679761Y-63703214D01*
X108870238Y-63703214D01*
X108965476Y-63750833D01*
X109013095Y-63846071D01*
X109013095Y-63941309D01*
X108536904Y-64036547D01*
X109441666Y-64369880D02*
X109441666Y-63703214D01*
X109441666Y-63893690D02*
X109489285Y-63798452D01*
X109536904Y-63750833D01*
X109632142Y-63703214D01*
X109727380Y-63703214D01*
%TO.C,LED2*%
X99917857Y-83372261D02*
X100013095Y-83419880D01*
X100203571Y-83419880D01*
X100298809Y-83372261D01*
X100346428Y-83277023D01*
X100346428Y-83229404D01*
X100298809Y-83134166D01*
X100203571Y-83086547D01*
X100060714Y-83086547D01*
X99965476Y-83038928D01*
X99917857Y-82943690D01*
X99917857Y-82896071D01*
X99965476Y-82800833D01*
X100060714Y-82753214D01*
X100203571Y-82753214D01*
X100298809Y-82800833D01*
X100679761Y-82753214D02*
X100870238Y-83419880D01*
X101060714Y-82943690D01*
X101251190Y-83419880D01*
X101441666Y-82753214D01*
X101822619Y-83419880D02*
X101822619Y-82753214D01*
X101822619Y-82419880D02*
X101775000Y-82467500D01*
X101822619Y-82515119D01*
X101870238Y-82467500D01*
X101822619Y-82419880D01*
X101822619Y-82515119D01*
X102155952Y-82753214D02*
X102536904Y-82753214D01*
X102298809Y-82419880D02*
X102298809Y-83277023D01*
X102346428Y-83372261D01*
X102441666Y-83419880D01*
X102536904Y-83419880D01*
X103298809Y-83372261D02*
X103203571Y-83419880D01*
X103013095Y-83419880D01*
X102917857Y-83372261D01*
X102870238Y-83324642D01*
X102822619Y-83229404D01*
X102822619Y-82943690D01*
X102870238Y-82848452D01*
X102917857Y-82800833D01*
X103013095Y-82753214D01*
X103203571Y-82753214D01*
X103298809Y-82800833D01*
X103727380Y-83419880D02*
X103727380Y-82419880D01*
X104155952Y-83419880D02*
X104155952Y-82896071D01*
X104108333Y-82800833D01*
X104013095Y-82753214D01*
X103870238Y-82753214D01*
X103775000Y-82800833D01*
X103727380Y-82848452D01*
X105822619Y-83372261D02*
X105727380Y-83419880D01*
X105536904Y-83419880D01*
X105441666Y-83372261D01*
X105394047Y-83324642D01*
X105346428Y-83229404D01*
X105346428Y-82943690D01*
X105394047Y-82848452D01*
X105441666Y-82800833D01*
X105536904Y-82753214D01*
X105727380Y-82753214D01*
X105822619Y-82800833D01*
X106632142Y-83372261D02*
X106536904Y-83419880D01*
X106346428Y-83419880D01*
X106251190Y-83372261D01*
X106203571Y-83277023D01*
X106203571Y-82896071D01*
X106251190Y-82800833D01*
X106346428Y-82753214D01*
X106536904Y-82753214D01*
X106632142Y-82800833D01*
X106679761Y-82896071D01*
X106679761Y-82991309D01*
X106203571Y-83086547D01*
X107108333Y-82753214D02*
X107108333Y-83419880D01*
X107108333Y-82848452D02*
X107155952Y-82800833D01*
X107251190Y-82753214D01*
X107394047Y-82753214D01*
X107489285Y-82800833D01*
X107536904Y-82896071D01*
X107536904Y-83419880D01*
X107870238Y-82753214D02*
X108251190Y-82753214D01*
X108013095Y-82419880D02*
X108013095Y-83277023D01*
X108060714Y-83372261D01*
X108155952Y-83419880D01*
X108251190Y-83419880D01*
X108965476Y-83372261D02*
X108870238Y-83419880D01*
X108679761Y-83419880D01*
X108584523Y-83372261D01*
X108536904Y-83277023D01*
X108536904Y-82896071D01*
X108584523Y-82800833D01*
X108679761Y-82753214D01*
X108870238Y-82753214D01*
X108965476Y-82800833D01*
X109013095Y-82896071D01*
X109013095Y-82991309D01*
X108536904Y-83086547D01*
X109441666Y-83419880D02*
X109441666Y-82753214D01*
X109441666Y-82943690D02*
X109489285Y-82848452D01*
X109536904Y-82800833D01*
X109632142Y-82753214D01*
X109727380Y-82753214D01*
%TO.C,LED4*%
X118967857Y-64322261D02*
X119063095Y-64369880D01*
X119253571Y-64369880D01*
X119348809Y-64322261D01*
X119396428Y-64227023D01*
X119396428Y-64179404D01*
X119348809Y-64084166D01*
X119253571Y-64036547D01*
X119110714Y-64036547D01*
X119015476Y-63988928D01*
X118967857Y-63893690D01*
X118967857Y-63846071D01*
X119015476Y-63750833D01*
X119110714Y-63703214D01*
X119253571Y-63703214D01*
X119348809Y-63750833D01*
X119729761Y-63703214D02*
X119920238Y-64369880D01*
X120110714Y-63893690D01*
X120301190Y-64369880D01*
X120491666Y-63703214D01*
X120872619Y-64369880D02*
X120872619Y-63703214D01*
X120872619Y-63369880D02*
X120825000Y-63417500D01*
X120872619Y-63465119D01*
X120920238Y-63417500D01*
X120872619Y-63369880D01*
X120872619Y-63465119D01*
X121205952Y-63703214D02*
X121586904Y-63703214D01*
X121348809Y-63369880D02*
X121348809Y-64227023D01*
X121396428Y-64322261D01*
X121491666Y-64369880D01*
X121586904Y-64369880D01*
X122348809Y-64322261D02*
X122253571Y-64369880D01*
X122063095Y-64369880D01*
X121967857Y-64322261D01*
X121920238Y-64274642D01*
X121872619Y-64179404D01*
X121872619Y-63893690D01*
X121920238Y-63798452D01*
X121967857Y-63750833D01*
X122063095Y-63703214D01*
X122253571Y-63703214D01*
X122348809Y-63750833D01*
X122777380Y-64369880D02*
X122777380Y-63369880D01*
X123205952Y-64369880D02*
X123205952Y-63846071D01*
X123158333Y-63750833D01*
X123063095Y-63703214D01*
X122920238Y-63703214D01*
X122825000Y-63750833D01*
X122777380Y-63798452D01*
X124872619Y-64322261D02*
X124777380Y-64369880D01*
X124586904Y-64369880D01*
X124491666Y-64322261D01*
X124444047Y-64274642D01*
X124396428Y-64179404D01*
X124396428Y-63893690D01*
X124444047Y-63798452D01*
X124491666Y-63750833D01*
X124586904Y-63703214D01*
X124777380Y-63703214D01*
X124872619Y-63750833D01*
X125682142Y-64322261D02*
X125586904Y-64369880D01*
X125396428Y-64369880D01*
X125301190Y-64322261D01*
X125253571Y-64227023D01*
X125253571Y-63846071D01*
X125301190Y-63750833D01*
X125396428Y-63703214D01*
X125586904Y-63703214D01*
X125682142Y-63750833D01*
X125729761Y-63846071D01*
X125729761Y-63941309D01*
X125253571Y-64036547D01*
X126158333Y-63703214D02*
X126158333Y-64369880D01*
X126158333Y-63798452D02*
X126205952Y-63750833D01*
X126301190Y-63703214D01*
X126444047Y-63703214D01*
X126539285Y-63750833D01*
X126586904Y-63846071D01*
X126586904Y-64369880D01*
X126920238Y-63703214D02*
X127301190Y-63703214D01*
X127063095Y-63369880D02*
X127063095Y-64227023D01*
X127110714Y-64322261D01*
X127205952Y-64369880D01*
X127301190Y-64369880D01*
X128015476Y-64322261D02*
X127920238Y-64369880D01*
X127729761Y-64369880D01*
X127634523Y-64322261D01*
X127586904Y-64227023D01*
X127586904Y-63846071D01*
X127634523Y-63750833D01*
X127729761Y-63703214D01*
X127920238Y-63703214D01*
X128015476Y-63750833D01*
X128063095Y-63846071D01*
X128063095Y-63941309D01*
X127586904Y-64036547D01*
X128491666Y-64369880D02*
X128491666Y-63703214D01*
X128491666Y-63893690D02*
X128539285Y-63798452D01*
X128586904Y-63750833D01*
X128682142Y-63703214D01*
X128777380Y-63703214D01*
%TO.C,LED15*%
X176117857Y-102422261D02*
X176213095Y-102469880D01*
X176403571Y-102469880D01*
X176498809Y-102422261D01*
X176546428Y-102327023D01*
X176546428Y-102279404D01*
X176498809Y-102184166D01*
X176403571Y-102136547D01*
X176260714Y-102136547D01*
X176165476Y-102088928D01*
X176117857Y-101993690D01*
X176117857Y-101946071D01*
X176165476Y-101850833D01*
X176260714Y-101803214D01*
X176403571Y-101803214D01*
X176498809Y-101850833D01*
X176879761Y-101803214D02*
X177070238Y-102469880D01*
X177260714Y-101993690D01*
X177451190Y-102469880D01*
X177641666Y-101803214D01*
X178022619Y-102469880D02*
X178022619Y-101803214D01*
X178022619Y-101469880D02*
X177975000Y-101517500D01*
X178022619Y-101565119D01*
X178070238Y-101517500D01*
X178022619Y-101469880D01*
X178022619Y-101565119D01*
X178355952Y-101803214D02*
X178736904Y-101803214D01*
X178498809Y-101469880D02*
X178498809Y-102327023D01*
X178546428Y-102422261D01*
X178641666Y-102469880D01*
X178736904Y-102469880D01*
X179498809Y-102422261D02*
X179403571Y-102469880D01*
X179213095Y-102469880D01*
X179117857Y-102422261D01*
X179070238Y-102374642D01*
X179022619Y-102279404D01*
X179022619Y-101993690D01*
X179070238Y-101898452D01*
X179117857Y-101850833D01*
X179213095Y-101803214D01*
X179403571Y-101803214D01*
X179498809Y-101850833D01*
X179927380Y-102469880D02*
X179927380Y-101469880D01*
X180355952Y-102469880D02*
X180355952Y-101946071D01*
X180308333Y-101850833D01*
X180213095Y-101803214D01*
X180070238Y-101803214D01*
X179975000Y-101850833D01*
X179927380Y-101898452D01*
X182022619Y-102422261D02*
X181927380Y-102469880D01*
X181736904Y-102469880D01*
X181641666Y-102422261D01*
X181594047Y-102374642D01*
X181546428Y-102279404D01*
X181546428Y-101993690D01*
X181594047Y-101898452D01*
X181641666Y-101850833D01*
X181736904Y-101803214D01*
X181927380Y-101803214D01*
X182022619Y-101850833D01*
X182832142Y-102422261D02*
X182736904Y-102469880D01*
X182546428Y-102469880D01*
X182451190Y-102422261D01*
X182403571Y-102327023D01*
X182403571Y-101946071D01*
X182451190Y-101850833D01*
X182546428Y-101803214D01*
X182736904Y-101803214D01*
X182832142Y-101850833D01*
X182879761Y-101946071D01*
X182879761Y-102041309D01*
X182403571Y-102136547D01*
X183308333Y-101803214D02*
X183308333Y-102469880D01*
X183308333Y-101898452D02*
X183355952Y-101850833D01*
X183451190Y-101803214D01*
X183594047Y-101803214D01*
X183689285Y-101850833D01*
X183736904Y-101946071D01*
X183736904Y-102469880D01*
X184070238Y-101803214D02*
X184451190Y-101803214D01*
X184213095Y-101469880D02*
X184213095Y-102327023D01*
X184260714Y-102422261D01*
X184355952Y-102469880D01*
X184451190Y-102469880D01*
X185165476Y-102422261D02*
X185070238Y-102469880D01*
X184879761Y-102469880D01*
X184784523Y-102422261D01*
X184736904Y-102327023D01*
X184736904Y-101946071D01*
X184784523Y-101850833D01*
X184879761Y-101803214D01*
X185070238Y-101803214D01*
X185165476Y-101850833D01*
X185213095Y-101946071D01*
X185213095Y-102041309D01*
X184736904Y-102136547D01*
X185641666Y-102469880D02*
X185641666Y-101803214D01*
X185641666Y-101993690D02*
X185689285Y-101898452D01*
X185736904Y-101850833D01*
X185832142Y-101803214D01*
X185927380Y-101803214D01*
%TO.C,H3*%
X187937500Y-74612500D02*
G75*
G03*
X187937500Y-74612500I-2200000J0D01*
G01*
%TO.C,H1*%
X102212500Y-74612500D02*
G75*
G03*
X102212500Y-74612500I-2200000J0D01*
G01*
%TO.C,H2*%
X100625000Y-117475000D02*
G75*
G03*
X100625000Y-117475000I-2200000J0D01*
G01*
%TO.C,H4*%
X189525000Y-117475000D02*
G75*
G03*
X189525000Y-117475000I-2200000J0D01*
G01*
D11*
%TO.C,LED11*%
X161925000Y-84137500D02*
X162175000Y-83887500D01*
X161925000Y-84137500D02*
X161675000Y-83887500D01*
X162175000Y-84387500D02*
X161925000Y-84137500D01*
X161675000Y-84387500D02*
X161925000Y-84137500D01*
%TO.C,LED8*%
X142625000Y-84387500D02*
X142875000Y-84137500D01*
X142875000Y-84137500D02*
X143125000Y-83887500D01*
X143125000Y-84387500D02*
X142875000Y-84137500D01*
X142875000Y-84137500D02*
X142625000Y-83887500D01*
%TO.C,LED6*%
X124075000Y-103437500D02*
X123825000Y-103187500D01*
X123825000Y-103187500D02*
X123575000Y-102937500D01*
X123575000Y-103437500D02*
X123825000Y-103187500D01*
X123825000Y-103187500D02*
X124075000Y-102937500D01*
%TO.C,LED12*%
X161925000Y-103187500D02*
X161675000Y-102937500D01*
X161925000Y-103187500D02*
X162175000Y-102937500D01*
X161675000Y-103437500D02*
X161925000Y-103187500D01*
X162175000Y-103437500D02*
X161925000Y-103187500D01*
%TO.C,LED13*%
X181225000Y-65337500D02*
X180975000Y-65087500D01*
X180725000Y-65337500D02*
X180975000Y-65087500D01*
X180975000Y-65087500D02*
X181225000Y-64837500D01*
X180975000Y-65087500D02*
X180725000Y-64837500D01*
%TO.C,LED3*%
X104775000Y-103187500D02*
X105025000Y-102937500D01*
X104775000Y-103187500D02*
X104525000Y-102937500D01*
X104525000Y-103437500D02*
X104775000Y-103187500D01*
X105025000Y-103437500D02*
X104775000Y-103187500D01*
%TO.C,LED7*%
X142875000Y-65087500D02*
X142625000Y-64837500D01*
X143125000Y-65337500D02*
X142875000Y-65087500D01*
X142625000Y-65337500D02*
X142875000Y-65087500D01*
X142875000Y-65087500D02*
X143125000Y-64837500D01*
%TO.C,LED9*%
X142625000Y-103437500D02*
X142875000Y-103187500D01*
X142875000Y-103187500D02*
X143125000Y-102937500D01*
X142875000Y-103187500D02*
X142625000Y-102937500D01*
X143125000Y-103437500D02*
X142875000Y-103187500D01*
%TO.C,LED14*%
X181225000Y-84387500D02*
X180975000Y-84137500D01*
X180725000Y-84387500D02*
X180975000Y-84137500D01*
X180975000Y-84137500D02*
X180725000Y-83887500D01*
X180975000Y-84137500D02*
X181225000Y-83887500D01*
%TO.C,LED5*%
X123825000Y-84137500D02*
X123575000Y-83887500D01*
X123825000Y-84137500D02*
X124075000Y-83887500D01*
X123575000Y-84387500D02*
X123825000Y-84137500D01*
X124075000Y-84387500D02*
X123825000Y-84137500D01*
%TO.C,LED10*%
X161925000Y-65087500D02*
X162175000Y-64837500D01*
X162175000Y-65337500D02*
X161925000Y-65087500D01*
X161675000Y-65337500D02*
X161925000Y-65087500D01*
X161925000Y-65087500D02*
X161675000Y-64837500D01*
%TO.C,LED1*%
X105025000Y-65337500D02*
X104775000Y-65087500D01*
X104775000Y-65087500D02*
X104525000Y-64837500D01*
X104525000Y-65337500D02*
X104775000Y-65087500D01*
X104775000Y-65087500D02*
X105025000Y-64837500D01*
%TO.C,LED2*%
X104775000Y-84137500D02*
X104525000Y-83887500D01*
X104525000Y-84387500D02*
X104775000Y-84137500D01*
X105025000Y-84387500D02*
X104775000Y-84137500D01*
X104775000Y-84137500D02*
X105025000Y-83887500D01*
%TO.C,LED4*%
X123825000Y-65087500D02*
X124075000Y-64837500D01*
X123575000Y-65337500D02*
X123825000Y-65087500D01*
X124075000Y-65337500D02*
X123825000Y-65087500D01*
X123825000Y-65087500D02*
X123575000Y-64837500D01*
%TO.C,LED15*%
X180975000Y-103187500D02*
X180725000Y-102937500D01*
X181225000Y-103437500D02*
X180975000Y-103187500D01*
X180975000Y-103187500D02*
X181225000Y-102937500D01*
X180725000Y-103437500D02*
X180975000Y-103187500D01*
%TD*%
M02*
