%TF.GenerationSoftware,KiCad,Pcbnew,(6.0.6)*%
%TF.CreationDate,2022-08-15T00:38:18+08:00*%
%TF.ProjectId,15k-macropad-pico,31356b2d-6d61-4637-926f-7061642d7069,rev?*%
%TF.SameCoordinates,Original*%
%TF.FileFunction,Legend,Bot*%
%TF.FilePolarity,Positive*%
%FSLAX46Y46*%
G04 Gerber Fmt 4.6, Leading zero omitted, Abs format (unit mm)*
G04 Created by KiCad (PCBNEW (6.0.6)) date 2022-08-15 00:38:18*
%MOMM*%
%LPD*%
G01*
G04 APERTURE LIST*
G04 Aperture macros list*
%AMRoundRect*
0 Rectangle with rounded corners*
0 $1 Rounding radius*
0 $2 $3 $4 $5 $6 $7 $8 $9 X,Y pos of 4 corners*
0 Add a 4 corners polygon primitive as box body*
4,1,4,$2,$3,$4,$5,$6,$7,$8,$9,$2,$3,0*
0 Add four circle primitives for the rounded corners*
1,1,$1+$1,$2,$3*
1,1,$1+$1,$4,$5*
1,1,$1+$1,$6,$7*
1,1,$1+$1,$8,$9*
0 Add four rect primitives between the rounded corners*
20,1,$1+$1,$2,$3,$4,$5,0*
20,1,$1+$1,$4,$5,$6,$7,0*
20,1,$1+$1,$6,$7,$8,$9,0*
20,1,$1+$1,$8,$9,$2,$3,0*%
G04 Aperture macros list end*
%ADD10C,0.150000*%
%ADD11C,0.120000*%
%ADD12C,2.200000*%
%ADD13C,2.100000*%
%ADD14R,1.700000X3.500000*%
%ADD15O,1.700000X1.700000*%
%ADD16R,1.700000X1.700000*%
%ADD17R,3.500000X1.700000*%
%ADD18RoundRect,0.300000X0.950000X-0.450000X0.950000X0.450000X-0.950000X0.450000X-0.950000X-0.450000X0*%
G04 APERTURE END LIST*
D10*
%TO.C,U1*%
X140984880Y-74549095D02*
X141794404Y-74549095D01*
X141889642Y-74596714D01*
X141937261Y-74644333D01*
X141984880Y-74739571D01*
X141984880Y-74930047D01*
X141937261Y-75025285D01*
X141889642Y-75072904D01*
X141794404Y-75120523D01*
X140984880Y-75120523D01*
X141984880Y-76120523D02*
X141984880Y-75549095D01*
X141984880Y-75834809D02*
X140984880Y-75834809D01*
X141127738Y-75739571D01*
X141222976Y-75644333D01*
X141270595Y-75549095D01*
X120333092Y-87454722D02*
X120360029Y-87373910D01*
X120440841Y-87293097D01*
X120548591Y-87239223D01*
X120656341Y-87239223D01*
X120737153Y-87266160D01*
X120871840Y-87346972D01*
X120952652Y-87427784D01*
X121033464Y-87562471D01*
X121060402Y-87643284D01*
X121060402Y-87751033D01*
X121006527Y-87858783D01*
X120952652Y-87912658D01*
X120844902Y-87966532D01*
X120791028Y-87966532D01*
X120602466Y-87777971D01*
X120710215Y-87670221D01*
X120602466Y-88262844D02*
X120036780Y-87697158D01*
X119821281Y-87912658D01*
X119794344Y-87993470D01*
X119794344Y-88047345D01*
X119821281Y-88128157D01*
X119902093Y-88208969D01*
X119982906Y-88235906D01*
X120036780Y-88235906D01*
X120117593Y-88208969D01*
X120333092Y-87993470D01*
X119740469Y-89124841D02*
X120063718Y-88801592D01*
X119902093Y-88963216D02*
X119336408Y-88397531D01*
X119471095Y-88424468D01*
X119578845Y-88424468D01*
X119659657Y-88397531D01*
X118878472Y-89232590D02*
X119255596Y-89609714D01*
X118797660Y-88882404D02*
X119336408Y-89151778D01*
X118986222Y-89501964D01*
X120333092Y-61300722D02*
X120360029Y-61219910D01*
X120440841Y-61139097D01*
X120548591Y-61085223D01*
X120656341Y-61085223D01*
X120737153Y-61112160D01*
X120871840Y-61192972D01*
X120952652Y-61273784D01*
X121033464Y-61408471D01*
X121060402Y-61489284D01*
X121060402Y-61597033D01*
X121006527Y-61704783D01*
X120952652Y-61758658D01*
X120844902Y-61812532D01*
X120791028Y-61812532D01*
X120602466Y-61623971D01*
X120710215Y-61516221D01*
X120602466Y-62108844D02*
X120036780Y-61543158D01*
X119821281Y-61758658D01*
X119794344Y-61839470D01*
X119794344Y-61893345D01*
X119821281Y-61974157D01*
X119902093Y-62054969D01*
X119982906Y-62081906D01*
X120036780Y-62081906D01*
X120117593Y-62054969D01*
X120333092Y-61839470D01*
X119740469Y-62970841D02*
X120063718Y-62647592D01*
X119902093Y-62809216D02*
X119336408Y-62243531D01*
X119471095Y-62270468D01*
X119578845Y-62270468D01*
X119659657Y-62243531D01*
X118986222Y-62593717D02*
X118609098Y-62970841D01*
X119417220Y-63294089D01*
X159890808Y-59833131D02*
X159540622Y-60183317D01*
X159944683Y-60210255D01*
X159863870Y-60291067D01*
X159836933Y-60371879D01*
X159836933Y-60425754D01*
X159863870Y-60506566D01*
X159998557Y-60641253D01*
X160079370Y-60668190D01*
X160133244Y-60668190D01*
X160214057Y-60641253D01*
X160375681Y-60479629D01*
X160402618Y-60398816D01*
X160402618Y-60344942D01*
X159378997Y-60344942D02*
X159756121Y-61099189D01*
X159001874Y-60722065D01*
X158867187Y-60856752D02*
X158517000Y-61206938D01*
X158921061Y-61233876D01*
X158840249Y-61314688D01*
X158813312Y-61395500D01*
X158813312Y-61449375D01*
X158840249Y-61530187D01*
X158974936Y-61664874D01*
X159055748Y-61691812D01*
X159109623Y-61691812D01*
X159190435Y-61664874D01*
X159352060Y-61503250D01*
X159378997Y-61422438D01*
X159378997Y-61368563D01*
X159028811Y-61934248D02*
X158597812Y-62365247D01*
X158112939Y-62149748D02*
X157924377Y-62338309D01*
X158139877Y-62715433D02*
X158409251Y-62446059D01*
X157843565Y-61880374D01*
X157574191Y-62149748D01*
X157897440Y-62957870D02*
X157331755Y-62392184D01*
X157574191Y-63281118D01*
X157008506Y-62715433D01*
X130493092Y-87554722D02*
X130520029Y-87473910D01*
X130600841Y-87393097D01*
X130708591Y-87339223D01*
X130816341Y-87339223D01*
X130897153Y-87366160D01*
X131031840Y-87446972D01*
X131112652Y-87527784D01*
X131193464Y-87662471D01*
X131220402Y-87743284D01*
X131220402Y-87851033D01*
X131166527Y-87958783D01*
X131112652Y-88012658D01*
X131004902Y-88066532D01*
X130951028Y-88066532D01*
X130762466Y-87877971D01*
X130870215Y-87770221D01*
X130762466Y-88362844D02*
X130196780Y-87797158D01*
X129981281Y-88012658D01*
X129954344Y-88093470D01*
X129954344Y-88147345D01*
X129981281Y-88228157D01*
X130062093Y-88308969D01*
X130142906Y-88335906D01*
X130196780Y-88335906D01*
X130277593Y-88308969D01*
X130493092Y-88093470D01*
X129900469Y-89224841D02*
X130223718Y-88901592D01*
X130062093Y-89063216D02*
X129496408Y-88497531D01*
X129631095Y-88524468D01*
X129738845Y-88524468D01*
X129819657Y-88497531D01*
X129361721Y-89763589D02*
X129684970Y-89440340D01*
X129523345Y-89601964D02*
X128957660Y-89036279D01*
X129092347Y-89063216D01*
X129200097Y-89063216D01*
X129280909Y-89036279D01*
X140935935Y-62149375D02*
X140855122Y-61691439D01*
X141259183Y-61826126D02*
X140693498Y-61260441D01*
X140477999Y-61475940D01*
X140451061Y-61556752D01*
X140451061Y-61610627D01*
X140477999Y-61691439D01*
X140558811Y-61772251D01*
X140639623Y-61799189D01*
X140693498Y-61799189D01*
X140774310Y-61772251D01*
X140989809Y-61556752D01*
X140127812Y-61826126D02*
X140585748Y-62284062D01*
X140612686Y-62364874D01*
X140612686Y-62418749D01*
X140585748Y-62499561D01*
X140477999Y-62607311D01*
X140397187Y-62634248D01*
X140343312Y-62634248D01*
X140262500Y-62607311D01*
X139804564Y-62149375D01*
X140100875Y-62984435D02*
X139535190Y-62418749D01*
X139777626Y-63307683D01*
X139211941Y-62741998D01*
X125413092Y-61300722D02*
X125440029Y-61219910D01*
X125520841Y-61139097D01*
X125628591Y-61085223D01*
X125736341Y-61085223D01*
X125817153Y-61112160D01*
X125951840Y-61192972D01*
X126032652Y-61273784D01*
X126113464Y-61408471D01*
X126140402Y-61489284D01*
X126140402Y-61597033D01*
X126086527Y-61704783D01*
X126032652Y-61758658D01*
X125924902Y-61812532D01*
X125871028Y-61812532D01*
X125682466Y-61623971D01*
X125790215Y-61516221D01*
X125682466Y-62108844D02*
X125116780Y-61543158D01*
X124901281Y-61758658D01*
X124874344Y-61839470D01*
X124874344Y-61893345D01*
X124901281Y-61974157D01*
X124982093Y-62054969D01*
X125062906Y-62081906D01*
X125116780Y-62081906D01*
X125197593Y-62054969D01*
X125413092Y-61839470D01*
X124820469Y-62970841D02*
X125143718Y-62647592D01*
X124982093Y-62809216D02*
X124416408Y-62243531D01*
X124551095Y-62270468D01*
X124658845Y-62270468D01*
X124739657Y-62243531D01*
X124173971Y-62970841D02*
X124200909Y-62890028D01*
X124200909Y-62836154D01*
X124173971Y-62755341D01*
X124147034Y-62728404D01*
X124066222Y-62701467D01*
X124012347Y-62701467D01*
X123931535Y-62728404D01*
X123823785Y-62836154D01*
X123796848Y-62916966D01*
X123796848Y-62970841D01*
X123823785Y-63051653D01*
X123850723Y-63078590D01*
X123931535Y-63105528D01*
X123985410Y-63105528D01*
X124066222Y-63078590D01*
X124173971Y-62970841D01*
X124254784Y-62943903D01*
X124308658Y-62943903D01*
X124389471Y-62970841D01*
X124497220Y-63078590D01*
X124524158Y-63159402D01*
X124524158Y-63213277D01*
X124497220Y-63294089D01*
X124389471Y-63401839D01*
X124308658Y-63428776D01*
X124254784Y-63428776D01*
X124173971Y-63401839D01*
X124066222Y-63294089D01*
X124039284Y-63213277D01*
X124039284Y-63159402D01*
X124066222Y-63078590D01*
X143193092Y-61300722D02*
X143220029Y-61219910D01*
X143300841Y-61139097D01*
X143408591Y-61085223D01*
X143516341Y-61085223D01*
X143597153Y-61112160D01*
X143731840Y-61192972D01*
X143812652Y-61273784D01*
X143893464Y-61408471D01*
X143920402Y-61489284D01*
X143920402Y-61597033D01*
X143866527Y-61704783D01*
X143812652Y-61758658D01*
X143704902Y-61812532D01*
X143651028Y-61812532D01*
X143462466Y-61623971D01*
X143570215Y-61516221D01*
X143462466Y-62108844D02*
X142896780Y-61543158D01*
X142681281Y-61758658D01*
X142654344Y-61839470D01*
X142654344Y-61893345D01*
X142681281Y-61974157D01*
X142762093Y-62054969D01*
X142842906Y-62081906D01*
X142896780Y-62081906D01*
X142977593Y-62054969D01*
X143193092Y-61839470D01*
X142411907Y-62135781D02*
X142358032Y-62135781D01*
X142277220Y-62162719D01*
X142142533Y-62297406D01*
X142115596Y-62378218D01*
X142115596Y-62432093D01*
X142142533Y-62512905D01*
X142196408Y-62566780D01*
X142304158Y-62620654D01*
X142950655Y-62620654D01*
X142600469Y-62970841D01*
X141549910Y-62890028D02*
X141657660Y-62782279D01*
X141738472Y-62755341D01*
X141792347Y-62755341D01*
X141927034Y-62782279D01*
X142061721Y-62863091D01*
X142277220Y-63078590D01*
X142304158Y-63159402D01*
X142304158Y-63213277D01*
X142277220Y-63294089D01*
X142169471Y-63401839D01*
X142088658Y-63428776D01*
X142034784Y-63428776D01*
X141953971Y-63401839D01*
X141819284Y-63267152D01*
X141792347Y-63186340D01*
X141792347Y-63132465D01*
X141819284Y-63051653D01*
X141927034Y-62943903D01*
X142007846Y-62916966D01*
X142061721Y-62916966D01*
X142142533Y-62943903D01*
X163253718Y-87524096D02*
X163280655Y-87443284D01*
X163361467Y-87362471D01*
X163469217Y-87308597D01*
X163576967Y-87308597D01*
X163657779Y-87335534D01*
X163792466Y-87416346D01*
X163873278Y-87497158D01*
X163954090Y-87631845D01*
X163981028Y-87712658D01*
X163981028Y-87820407D01*
X163927153Y-87928157D01*
X163873278Y-87982032D01*
X163765528Y-88035906D01*
X163711654Y-88035906D01*
X163523092Y-87847345D01*
X163630841Y-87739595D01*
X163523092Y-88332218D02*
X162957406Y-87766532D01*
X162741907Y-87982032D01*
X162714970Y-88062844D01*
X162714970Y-88116719D01*
X162741907Y-88197531D01*
X162822719Y-88278343D01*
X162903532Y-88305280D01*
X162957406Y-88305280D01*
X163038219Y-88278343D01*
X163253718Y-88062844D01*
X162661095Y-89194215D02*
X162984344Y-88870966D01*
X162822719Y-89032590D02*
X162257034Y-88466905D01*
X162391721Y-88493842D01*
X162499471Y-88493842D01*
X162580283Y-88466905D01*
X150543718Y-87424096D02*
X150570655Y-87343284D01*
X150651467Y-87262471D01*
X150759217Y-87208597D01*
X150866967Y-87208597D01*
X150947779Y-87235534D01*
X151082466Y-87316346D01*
X151163278Y-87397158D01*
X151244090Y-87531845D01*
X151271028Y-87612658D01*
X151271028Y-87720407D01*
X151217153Y-87828157D01*
X151163278Y-87882032D01*
X151055528Y-87935906D01*
X151001654Y-87935906D01*
X150813092Y-87747345D01*
X150920841Y-87639595D01*
X150813092Y-88232218D02*
X150247406Y-87666532D01*
X150031907Y-87882032D01*
X150004970Y-87962844D01*
X150004970Y-88016719D01*
X150031907Y-88097531D01*
X150112719Y-88178343D01*
X150193532Y-88205280D01*
X150247406Y-88205280D01*
X150328219Y-88178343D01*
X150543718Y-87962844D01*
X149412347Y-88501592D02*
X149681721Y-88232218D01*
X149978032Y-88474654D01*
X149924158Y-88474654D01*
X149843345Y-88501592D01*
X149708658Y-88636279D01*
X149681721Y-88717091D01*
X149681721Y-88770966D01*
X149708658Y-88851778D01*
X149843345Y-88986465D01*
X149924158Y-89013402D01*
X149978032Y-89013402D01*
X150058845Y-88986465D01*
X150193532Y-88851778D01*
X150220469Y-88770966D01*
X150220469Y-88717091D01*
X137843718Y-87424096D02*
X137870655Y-87343284D01*
X137951467Y-87262471D01*
X138059217Y-87208597D01*
X138166967Y-87208597D01*
X138247779Y-87235534D01*
X138382466Y-87316346D01*
X138463278Y-87397158D01*
X138544090Y-87531845D01*
X138571028Y-87612658D01*
X138571028Y-87720407D01*
X138517153Y-87828157D01*
X138463278Y-87882032D01*
X138355528Y-87935906D01*
X138301654Y-87935906D01*
X138113092Y-87747345D01*
X138220841Y-87639595D01*
X138113092Y-88232218D02*
X137547406Y-87666532D01*
X137331907Y-87882032D01*
X137304970Y-87962844D01*
X137304970Y-88016719D01*
X137331907Y-88097531D01*
X137412719Y-88178343D01*
X137493532Y-88205280D01*
X137547406Y-88205280D01*
X137628219Y-88178343D01*
X137843718Y-87962844D01*
X137520469Y-88824841D02*
X137412719Y-88932590D01*
X137331907Y-88959528D01*
X137278032Y-88959528D01*
X137143345Y-88932590D01*
X137008658Y-88851778D01*
X136793159Y-88636279D01*
X136766222Y-88555467D01*
X136766222Y-88501592D01*
X136793159Y-88420780D01*
X136900909Y-88313030D01*
X136981721Y-88286093D01*
X137035596Y-88286093D01*
X137116408Y-88313030D01*
X137251095Y-88447717D01*
X137278032Y-88528529D01*
X137278032Y-88582404D01*
X137251095Y-88663216D01*
X137143345Y-88770966D01*
X137062533Y-88797903D01*
X137008658Y-88797903D01*
X136927846Y-88770966D01*
X117793092Y-61300722D02*
X117820029Y-61219910D01*
X117900841Y-61139097D01*
X118008591Y-61085223D01*
X118116341Y-61085223D01*
X118197153Y-61112160D01*
X118331840Y-61192972D01*
X118412652Y-61273784D01*
X118493464Y-61408471D01*
X118520402Y-61489284D01*
X118520402Y-61597033D01*
X118466527Y-61704783D01*
X118412652Y-61758658D01*
X118304902Y-61812532D01*
X118251028Y-61812532D01*
X118062466Y-61623971D01*
X118170215Y-61516221D01*
X118062466Y-62108844D02*
X117496780Y-61543158D01*
X117281281Y-61758658D01*
X117254344Y-61839470D01*
X117254344Y-61893345D01*
X117281281Y-61974157D01*
X117362093Y-62054969D01*
X117442906Y-62081906D01*
X117496780Y-62081906D01*
X117577593Y-62054969D01*
X117793092Y-61839470D01*
X117200469Y-62970841D02*
X117523718Y-62647592D01*
X117362093Y-62809216D02*
X116796408Y-62243531D01*
X116931095Y-62270468D01*
X117038845Y-62270468D01*
X117119657Y-62243531D01*
X116149910Y-62890028D02*
X116257660Y-62782279D01*
X116338472Y-62755341D01*
X116392347Y-62755341D01*
X116527034Y-62782279D01*
X116661721Y-62863091D01*
X116877220Y-63078590D01*
X116904158Y-63159402D01*
X116904158Y-63213277D01*
X116877220Y-63294089D01*
X116769471Y-63401839D01*
X116688658Y-63428776D01*
X116634784Y-63428776D01*
X116553971Y-63401839D01*
X116419284Y-63267152D01*
X116392347Y-63186340D01*
X116392347Y-63132465D01*
X116419284Y-63051653D01*
X116527034Y-62943903D01*
X116607846Y-62916966D01*
X116661721Y-62916966D01*
X116742533Y-62943903D01*
X127953092Y-61300722D02*
X127980029Y-61219910D01*
X128060841Y-61139097D01*
X128168591Y-61085223D01*
X128276341Y-61085223D01*
X128357153Y-61112160D01*
X128491840Y-61192972D01*
X128572652Y-61273784D01*
X128653464Y-61408471D01*
X128680402Y-61489284D01*
X128680402Y-61597033D01*
X128626527Y-61704783D01*
X128572652Y-61758658D01*
X128464902Y-61812532D01*
X128411028Y-61812532D01*
X128222466Y-61623971D01*
X128330215Y-61516221D01*
X128222466Y-62108844D02*
X127656780Y-61543158D01*
X127441281Y-61758658D01*
X127414344Y-61839470D01*
X127414344Y-61893345D01*
X127441281Y-61974157D01*
X127522093Y-62054969D01*
X127602906Y-62081906D01*
X127656780Y-62081906D01*
X127737593Y-62054969D01*
X127953092Y-61839470D01*
X127360469Y-62970841D02*
X127683718Y-62647592D01*
X127522093Y-62809216D02*
X126956408Y-62243531D01*
X127091095Y-62270468D01*
X127198845Y-62270468D01*
X127279657Y-62243531D01*
X127091095Y-63240215D02*
X126983345Y-63347964D01*
X126902533Y-63374902D01*
X126848658Y-63374902D01*
X126713971Y-63347964D01*
X126579284Y-63267152D01*
X126363785Y-63051653D01*
X126336848Y-62970841D01*
X126336848Y-62916966D01*
X126363785Y-62836154D01*
X126471535Y-62728404D01*
X126552347Y-62701467D01*
X126606222Y-62701467D01*
X126687034Y-62728404D01*
X126821721Y-62863091D01*
X126848658Y-62943903D01*
X126848658Y-62997778D01*
X126821721Y-63078590D01*
X126713971Y-63186340D01*
X126633159Y-63213277D01*
X126579284Y-63213277D01*
X126498472Y-63186340D01*
X155823092Y-61400847D02*
X155472906Y-61751033D01*
X155876967Y-61777971D01*
X155796154Y-61858783D01*
X155769217Y-61939595D01*
X155769217Y-61993470D01*
X155796154Y-62074282D01*
X155930841Y-62208969D01*
X156011654Y-62235906D01*
X156065528Y-62235906D01*
X156146341Y-62208969D01*
X156307965Y-62047345D01*
X156334902Y-61966532D01*
X156334902Y-61912658D01*
X155311281Y-61912658D02*
X155688405Y-62666905D01*
X154934158Y-62289781D01*
X154799471Y-62424468D02*
X154449284Y-62774654D01*
X154853345Y-62801592D01*
X154772533Y-62882404D01*
X154745596Y-62963216D01*
X154745596Y-63017091D01*
X154772533Y-63097903D01*
X154907220Y-63232590D01*
X154988032Y-63259528D01*
X155041907Y-63259528D01*
X155122719Y-63232590D01*
X155284344Y-63070966D01*
X155311281Y-62990154D01*
X155311281Y-62936279D01*
X122630655Y-61797158D02*
X122657593Y-61716346D01*
X122738405Y-61635534D01*
X122846154Y-61581659D01*
X122953904Y-61581659D01*
X123034716Y-61608597D01*
X123169403Y-61689409D01*
X123250215Y-61770221D01*
X123331028Y-61904908D01*
X123357965Y-61985720D01*
X123357965Y-62093470D01*
X123304090Y-62201219D01*
X123250215Y-62255094D01*
X123142466Y-62308969D01*
X123088591Y-62308969D01*
X122900029Y-62120407D01*
X123007779Y-62012658D01*
X122900029Y-62605280D02*
X122334344Y-62039595D01*
X122576780Y-62928529D01*
X122011095Y-62362844D01*
X122307406Y-63197903D02*
X121741721Y-62632218D01*
X121607034Y-62766905D01*
X121553159Y-62874654D01*
X121553159Y-62982404D01*
X121580097Y-63063216D01*
X121660909Y-63197903D01*
X121741721Y-63278715D01*
X121876408Y-63359528D01*
X121957220Y-63386465D01*
X122064970Y-63386465D01*
X122172719Y-63332590D01*
X122307406Y-63197903D01*
X153083718Y-87424096D02*
X153110655Y-87343284D01*
X153191467Y-87262471D01*
X153299217Y-87208597D01*
X153406967Y-87208597D01*
X153487779Y-87235534D01*
X153622466Y-87316346D01*
X153703278Y-87397158D01*
X153784090Y-87531845D01*
X153811028Y-87612658D01*
X153811028Y-87720407D01*
X153757153Y-87828157D01*
X153703278Y-87882032D01*
X153595528Y-87935906D01*
X153541654Y-87935906D01*
X153353092Y-87747345D01*
X153460841Y-87639595D01*
X153353092Y-88232218D02*
X152787406Y-87666532D01*
X152571907Y-87882032D01*
X152544970Y-87962844D01*
X152544970Y-88016719D01*
X152571907Y-88097531D01*
X152652719Y-88178343D01*
X152733532Y-88205280D01*
X152787406Y-88205280D01*
X152868219Y-88178343D01*
X153083718Y-87962844D01*
X152167846Y-88663216D02*
X152544970Y-89040340D01*
X152087034Y-88313030D02*
X152625782Y-88582404D01*
X152275596Y-88932590D01*
X160730655Y-87397158D02*
X160757593Y-87316346D01*
X160838405Y-87235534D01*
X160946154Y-87181659D01*
X161053904Y-87181659D01*
X161134716Y-87208597D01*
X161269403Y-87289409D01*
X161350215Y-87370221D01*
X161431028Y-87504908D01*
X161457965Y-87585720D01*
X161457965Y-87693470D01*
X161404090Y-87801219D01*
X161350215Y-87855094D01*
X161242466Y-87908969D01*
X161188591Y-87908969D01*
X161000029Y-87720407D01*
X161107779Y-87612658D01*
X161000029Y-88205280D02*
X160434344Y-87639595D01*
X160676780Y-88528529D01*
X160111095Y-87962844D01*
X160407406Y-88797903D02*
X159841721Y-88232218D01*
X159707034Y-88366905D01*
X159653159Y-88474654D01*
X159653159Y-88582404D01*
X159680097Y-88663216D01*
X159760909Y-88797903D01*
X159841721Y-88878715D01*
X159976408Y-88959528D01*
X160057220Y-88986465D01*
X160164970Y-88986465D01*
X160272719Y-88932590D01*
X160407406Y-88797903D01*
X127953092Y-87554722D02*
X127980029Y-87473910D01*
X128060841Y-87393097D01*
X128168591Y-87339223D01*
X128276341Y-87339223D01*
X128357153Y-87366160D01*
X128491840Y-87446972D01*
X128572652Y-87527784D01*
X128653464Y-87662471D01*
X128680402Y-87743284D01*
X128680402Y-87851033D01*
X128626527Y-87958783D01*
X128572652Y-88012658D01*
X128464902Y-88066532D01*
X128411028Y-88066532D01*
X128222466Y-87877971D01*
X128330215Y-87770221D01*
X128222466Y-88362844D02*
X127656780Y-87797158D01*
X127441281Y-88012658D01*
X127414344Y-88093470D01*
X127414344Y-88147345D01*
X127441281Y-88228157D01*
X127522093Y-88308969D01*
X127602906Y-88335906D01*
X127656780Y-88335906D01*
X127737593Y-88308969D01*
X127953092Y-88093470D01*
X127360469Y-89224841D02*
X127683718Y-88901592D01*
X127522093Y-89063216D02*
X126956408Y-88497531D01*
X127091095Y-88524468D01*
X127198845Y-88524468D01*
X127279657Y-88497531D01*
X126633159Y-88928529D02*
X126579284Y-88928529D01*
X126498472Y-88955467D01*
X126363785Y-89090154D01*
X126336848Y-89170966D01*
X126336848Y-89224841D01*
X126363785Y-89305653D01*
X126417660Y-89359528D01*
X126525410Y-89413402D01*
X127171907Y-89413402D01*
X126821721Y-89763589D01*
X148973464Y-61354597D02*
X148704090Y-61623971D01*
X149188963Y-61462346D02*
X148434716Y-61085223D01*
X148811840Y-61839470D01*
X147788219Y-61785595D02*
X147815156Y-61704783D01*
X147895968Y-61623971D01*
X148003718Y-61570096D01*
X148111467Y-61570096D01*
X148192280Y-61597033D01*
X148326967Y-61677845D01*
X148407779Y-61758658D01*
X148488591Y-61893345D01*
X148515528Y-61974157D01*
X148515528Y-62081906D01*
X148461654Y-62189656D01*
X148407779Y-62243531D01*
X148300029Y-62297406D01*
X148246154Y-62297406D01*
X148057593Y-62108844D01*
X148165342Y-62001094D01*
X148057593Y-62593717D02*
X147491907Y-62028032D01*
X147734344Y-62916966D01*
X147168658Y-62351280D01*
X147464970Y-63186340D02*
X146899284Y-62620654D01*
X146764597Y-62755341D01*
X146710723Y-62863091D01*
X146710723Y-62970841D01*
X146737660Y-63051653D01*
X146818472Y-63186340D01*
X146899284Y-63267152D01*
X147033971Y-63347964D01*
X147114784Y-63374902D01*
X147222533Y-63374902D01*
X147330283Y-63321027D01*
X147464970Y-63186340D01*
X163782466Y-60831473D02*
X164159589Y-61585720D01*
X163405342Y-61208597D01*
X163782466Y-61908969D02*
X163728591Y-62016719D01*
X163593904Y-62151406D01*
X163513092Y-62178343D01*
X163459217Y-62178343D01*
X163378405Y-62151406D01*
X163324530Y-62097531D01*
X163297593Y-62016719D01*
X163297593Y-61962844D01*
X163324530Y-61882032D01*
X163405342Y-61747345D01*
X163432280Y-61666532D01*
X163432280Y-61612658D01*
X163405342Y-61531845D01*
X163351467Y-61477971D01*
X163270655Y-61451033D01*
X163216780Y-61451033D01*
X163135968Y-61477971D01*
X163001281Y-61612658D01*
X162947406Y-61720407D01*
X162866594Y-62339967D02*
X163135968Y-62609341D01*
X162758845Y-61855094D02*
X162866594Y-62339967D01*
X162381721Y-62232218D01*
X162758845Y-62932590D02*
X162704970Y-63040340D01*
X162570283Y-63175027D01*
X162489471Y-63201964D01*
X162435596Y-63201964D01*
X162354784Y-63175027D01*
X162300909Y-63121152D01*
X162273971Y-63040340D01*
X162273971Y-62986465D01*
X162300909Y-62905653D01*
X162381721Y-62770966D01*
X162408658Y-62690154D01*
X162408658Y-62636279D01*
X162381721Y-62555467D01*
X162327846Y-62501592D01*
X162247034Y-62474654D01*
X162193159Y-62474654D01*
X162112347Y-62501592D01*
X161977660Y-62636279D01*
X161923785Y-62744028D01*
X158163718Y-87524096D02*
X158190655Y-87443284D01*
X158271467Y-87362471D01*
X158379217Y-87308597D01*
X158486967Y-87308597D01*
X158567779Y-87335534D01*
X158702466Y-87416346D01*
X158783278Y-87497158D01*
X158864090Y-87631845D01*
X158891028Y-87712658D01*
X158891028Y-87820407D01*
X158837153Y-87928157D01*
X158783278Y-87982032D01*
X158675528Y-88035906D01*
X158621654Y-88035906D01*
X158433092Y-87847345D01*
X158540841Y-87739595D01*
X158433092Y-88332218D02*
X157867406Y-87766532D01*
X157651907Y-87982032D01*
X157624970Y-88062844D01*
X157624970Y-88116719D01*
X157651907Y-88197531D01*
X157732719Y-88278343D01*
X157813532Y-88305280D01*
X157867406Y-88305280D01*
X157948219Y-88278343D01*
X158163718Y-88062844D01*
X157382533Y-88359155D02*
X157328658Y-88359155D01*
X157247846Y-88386093D01*
X157113159Y-88520780D01*
X157086222Y-88601592D01*
X157086222Y-88655467D01*
X157113159Y-88736279D01*
X157167034Y-88790154D01*
X157274784Y-88844028D01*
X157921281Y-88844028D01*
X157571095Y-89194215D01*
X115656309Y-68015761D02*
X115694404Y-68130047D01*
X115694404Y-68320523D01*
X115656309Y-68396714D01*
X115618214Y-68434809D01*
X115542023Y-68472904D01*
X115465833Y-68472904D01*
X115389642Y-68434809D01*
X115351547Y-68396714D01*
X115313452Y-68320523D01*
X115275357Y-68168142D01*
X115237261Y-68091952D01*
X115199166Y-68053857D01*
X115122976Y-68015761D01*
X115046785Y-68015761D01*
X114970595Y-68053857D01*
X114932500Y-68091952D01*
X114894404Y-68168142D01*
X114894404Y-68358619D01*
X114932500Y-68472904D01*
X114894404Y-68739571D02*
X115694404Y-68930047D01*
X115122976Y-69082428D01*
X115694404Y-69234809D01*
X114894404Y-69425285D01*
X115694404Y-69730047D02*
X114894404Y-69730047D01*
X114894404Y-69920523D01*
X114932500Y-70034809D01*
X115008690Y-70111000D01*
X115084880Y-70149095D01*
X115237261Y-70187190D01*
X115351547Y-70187190D01*
X115503928Y-70149095D01*
X115580119Y-70111000D01*
X115656309Y-70034809D01*
X115694404Y-69920523D01*
X115694404Y-69730047D01*
X115694404Y-70530047D02*
X114894404Y-70530047D01*
X114894404Y-71063380D02*
X114894404Y-71215761D01*
X114932500Y-71291952D01*
X115008690Y-71368142D01*
X115161071Y-71406238D01*
X115427738Y-71406238D01*
X115580119Y-71368142D01*
X115656309Y-71291952D01*
X115694404Y-71215761D01*
X115694404Y-71063380D01*
X115656309Y-70987190D01*
X115580119Y-70911000D01*
X115427738Y-70872904D01*
X115161071Y-70872904D01*
X115008690Y-70911000D01*
X114932500Y-70987190D01*
X114894404Y-71063380D01*
X133033092Y-87408722D02*
X133060029Y-87327910D01*
X133140841Y-87247097D01*
X133248591Y-87193223D01*
X133356341Y-87193223D01*
X133437153Y-87220160D01*
X133571840Y-87300972D01*
X133652652Y-87381784D01*
X133733464Y-87516471D01*
X133760402Y-87597284D01*
X133760402Y-87705033D01*
X133706527Y-87812783D01*
X133652652Y-87866658D01*
X133544902Y-87920532D01*
X133491028Y-87920532D01*
X133302466Y-87731971D01*
X133410215Y-87624221D01*
X133302466Y-88216844D02*
X132736780Y-87651158D01*
X132521281Y-87866658D01*
X132494344Y-87947470D01*
X132494344Y-88001345D01*
X132521281Y-88082157D01*
X132602093Y-88162969D01*
X132682906Y-88189906D01*
X132736780Y-88189906D01*
X132817593Y-88162969D01*
X133033092Y-87947470D01*
X132440469Y-89078841D02*
X132763718Y-88755592D01*
X132602093Y-88917216D02*
X132036408Y-88351531D01*
X132171095Y-88378468D01*
X132278845Y-88378468D01*
X132359657Y-88351531D01*
X131524597Y-88863341D02*
X131470723Y-88917216D01*
X131443785Y-88998028D01*
X131443785Y-89051903D01*
X131470723Y-89132715D01*
X131551535Y-89267402D01*
X131686222Y-89402089D01*
X131820909Y-89482902D01*
X131901721Y-89509839D01*
X131955596Y-89509839D01*
X132036408Y-89482902D01*
X132090283Y-89429027D01*
X132117220Y-89348215D01*
X132117220Y-89294340D01*
X132090283Y-89213528D01*
X132009471Y-89078841D01*
X131874784Y-88944154D01*
X131740097Y-88863341D01*
X131659284Y-88836404D01*
X131605410Y-88836404D01*
X131524597Y-88863341D01*
X156066273Y-59465788D02*
X155796899Y-59735162D01*
X156281772Y-59573537D02*
X155527525Y-59196414D01*
X155904649Y-59950661D01*
X155716087Y-60139223D02*
X155150402Y-59573537D01*
X155015715Y-59708224D01*
X154961840Y-59815974D01*
X154961840Y-59923723D01*
X154988777Y-60004536D01*
X155069589Y-60139223D01*
X155150402Y-60220035D01*
X155285089Y-60300847D01*
X155365901Y-60327784D01*
X155473650Y-60327784D01*
X155581400Y-60273910D01*
X155716087Y-60139223D01*
X154773278Y-60974282D02*
X154827153Y-60974282D01*
X154934902Y-60920407D01*
X154988777Y-60866532D01*
X155042652Y-60758783D01*
X155042652Y-60651033D01*
X155015715Y-60570221D01*
X154934902Y-60435534D01*
X154854090Y-60354722D01*
X154719403Y-60273910D01*
X154638591Y-60246972D01*
X154530841Y-60246972D01*
X154423092Y-60300847D01*
X154369217Y-60354722D01*
X154315342Y-60462471D01*
X154315342Y-60516346D01*
X154773278Y-61189781D02*
X154342280Y-61620780D01*
X153668845Y-61055094D02*
X154045968Y-61809341D01*
X153291721Y-61432218D01*
X153345596Y-62509714D02*
X153264784Y-62051778D01*
X153668845Y-62186465D02*
X153103159Y-61620780D01*
X152887660Y-61836279D01*
X152860723Y-61917091D01*
X152860723Y-61970966D01*
X152887660Y-62051778D01*
X152968472Y-62132590D01*
X153049284Y-62159528D01*
X153103159Y-62159528D01*
X153183971Y-62132590D01*
X153399471Y-61917091D01*
X152806848Y-62455839D02*
X152618286Y-62644401D01*
X152833785Y-63021524D02*
X153103159Y-62752150D01*
X152537474Y-62186465D01*
X152268100Y-62455839D01*
X152106475Y-63156211D02*
X152295037Y-62967650D01*
X152591349Y-63263961D02*
X152025663Y-62698276D01*
X151756289Y-62967650D01*
X115656309Y-79201476D02*
X115694404Y-79315761D01*
X115694404Y-79506238D01*
X115656309Y-79582428D01*
X115618214Y-79620523D01*
X115542023Y-79658619D01*
X115465833Y-79658619D01*
X115389642Y-79620523D01*
X115351547Y-79582428D01*
X115313452Y-79506238D01*
X115275357Y-79353857D01*
X115237261Y-79277666D01*
X115199166Y-79239571D01*
X115122976Y-79201476D01*
X115046785Y-79201476D01*
X114970595Y-79239571D01*
X114932500Y-79277666D01*
X114894404Y-79353857D01*
X114894404Y-79544333D01*
X114932500Y-79658619D01*
X114894404Y-79925285D02*
X115694404Y-80115761D01*
X115122976Y-80268142D01*
X115694404Y-80420523D01*
X114894404Y-80611000D01*
X115618214Y-81372904D02*
X115656309Y-81334809D01*
X115694404Y-81220523D01*
X115694404Y-81144333D01*
X115656309Y-81030047D01*
X115580119Y-80953857D01*
X115503928Y-80915761D01*
X115351547Y-80877666D01*
X115237261Y-80877666D01*
X115084880Y-80915761D01*
X115008690Y-80953857D01*
X114932500Y-81030047D01*
X114894404Y-81144333D01*
X114894404Y-81220523D01*
X114932500Y-81334809D01*
X114970595Y-81372904D01*
X115694404Y-82096714D02*
X115694404Y-81715761D01*
X114894404Y-81715761D01*
X115694404Y-82363380D02*
X114894404Y-82363380D01*
X115694404Y-82820523D02*
X115237261Y-82477666D01*
X114894404Y-82820523D02*
X115351547Y-82363380D01*
X135330655Y-61797158D02*
X135357593Y-61716346D01*
X135438405Y-61635534D01*
X135546154Y-61581659D01*
X135653904Y-61581659D01*
X135734716Y-61608597D01*
X135869403Y-61689409D01*
X135950215Y-61770221D01*
X136031028Y-61904908D01*
X136057965Y-61985720D01*
X136057965Y-62093470D01*
X136004090Y-62201219D01*
X135950215Y-62255094D01*
X135842466Y-62308969D01*
X135788591Y-62308969D01*
X135600029Y-62120407D01*
X135707779Y-62012658D01*
X135600029Y-62605280D02*
X135034344Y-62039595D01*
X135276780Y-62928529D01*
X134711095Y-62362844D01*
X135007406Y-63197903D02*
X134441721Y-62632218D01*
X134307034Y-62766905D01*
X134253159Y-62874654D01*
X134253159Y-62982404D01*
X134280097Y-63063216D01*
X134360909Y-63197903D01*
X134441721Y-63278715D01*
X134576408Y-63359528D01*
X134657220Y-63386465D01*
X134764970Y-63386465D01*
X134872719Y-63332590D01*
X135007406Y-63197903D01*
X138113092Y-61300722D02*
X138140029Y-61219910D01*
X138220841Y-61139097D01*
X138328591Y-61085223D01*
X138436341Y-61085223D01*
X138517153Y-61112160D01*
X138651840Y-61192972D01*
X138732652Y-61273784D01*
X138813464Y-61408471D01*
X138840402Y-61489284D01*
X138840402Y-61597033D01*
X138786527Y-61704783D01*
X138732652Y-61758658D01*
X138624902Y-61812532D01*
X138571028Y-61812532D01*
X138382466Y-61623971D01*
X138490215Y-61516221D01*
X138382466Y-62108844D02*
X137816780Y-61543158D01*
X137601281Y-61758658D01*
X137574344Y-61839470D01*
X137574344Y-61893345D01*
X137601281Y-61974157D01*
X137682093Y-62054969D01*
X137762906Y-62081906D01*
X137816780Y-62081906D01*
X137897593Y-62054969D01*
X138113092Y-61839470D01*
X137331907Y-62135781D02*
X137278032Y-62135781D01*
X137197220Y-62162719D01*
X137062533Y-62297406D01*
X137035596Y-62378218D01*
X137035596Y-62432093D01*
X137062533Y-62512905D01*
X137116408Y-62566780D01*
X137224158Y-62620654D01*
X137870655Y-62620654D01*
X137520469Y-62970841D01*
X136793159Y-62674529D02*
X136739284Y-62674529D01*
X136658472Y-62701467D01*
X136523785Y-62836154D01*
X136496848Y-62916966D01*
X136496848Y-62970841D01*
X136523785Y-63051653D01*
X136577660Y-63105528D01*
X136685410Y-63159402D01*
X137331907Y-63159402D01*
X136981721Y-63509589D01*
X145463718Y-87424096D02*
X145490655Y-87343284D01*
X145571467Y-87262471D01*
X145679217Y-87208597D01*
X145786967Y-87208597D01*
X145867779Y-87235534D01*
X146002466Y-87316346D01*
X146083278Y-87397158D01*
X146164090Y-87531845D01*
X146191028Y-87612658D01*
X146191028Y-87720407D01*
X146137153Y-87828157D01*
X146083278Y-87882032D01*
X145975528Y-87935906D01*
X145921654Y-87935906D01*
X145733092Y-87747345D01*
X145840841Y-87639595D01*
X145733092Y-88232218D02*
X145167406Y-87666532D01*
X144951907Y-87882032D01*
X144924970Y-87962844D01*
X144924970Y-88016719D01*
X144951907Y-88097531D01*
X145032719Y-88178343D01*
X145113532Y-88205280D01*
X145167406Y-88205280D01*
X145248219Y-88178343D01*
X145463718Y-87962844D01*
X144359284Y-88474654D02*
X144467034Y-88366905D01*
X144547846Y-88339967D01*
X144601721Y-88339967D01*
X144736408Y-88366905D01*
X144871095Y-88447717D01*
X145086594Y-88663216D01*
X145113532Y-88744028D01*
X145113532Y-88797903D01*
X145086594Y-88878715D01*
X144978845Y-88986465D01*
X144898032Y-89013402D01*
X144844158Y-89013402D01*
X144763345Y-88986465D01*
X144628658Y-88851778D01*
X144601721Y-88770966D01*
X144601721Y-88717091D01*
X144628658Y-88636279D01*
X144736408Y-88528529D01*
X144817220Y-88501592D01*
X144871095Y-88501592D01*
X144951907Y-88528529D01*
X166459809Y-60664129D02*
X166836933Y-61418377D01*
X166082686Y-61041253D01*
X165974936Y-61687751D02*
X165921061Y-61795500D01*
X165921061Y-61849375D01*
X165947999Y-61930187D01*
X166028811Y-62010999D01*
X166109623Y-62037937D01*
X166163498Y-62037937D01*
X166244310Y-62010999D01*
X166459809Y-61795500D01*
X165894124Y-61229815D01*
X165705562Y-61418377D01*
X165678625Y-61499189D01*
X165678625Y-61553064D01*
X165705562Y-61633876D01*
X165759437Y-61687751D01*
X165840249Y-61714688D01*
X165894124Y-61714688D01*
X165974936Y-61687751D01*
X166163498Y-61499189D01*
X165328438Y-61795500D02*
X165786374Y-62253436D01*
X165813312Y-62334248D01*
X165813312Y-62388123D01*
X165786374Y-62468935D01*
X165678625Y-62576685D01*
X165597812Y-62603622D01*
X165543938Y-62603622D01*
X165463125Y-62576685D01*
X165005190Y-62118749D01*
X165301501Y-62899934D02*
X165247626Y-63007683D01*
X165112939Y-63142370D01*
X165032127Y-63169308D01*
X164978252Y-63169308D01*
X164897440Y-63142370D01*
X164843565Y-63088496D01*
X164816628Y-63007683D01*
X164816628Y-62953809D01*
X164843565Y-62872996D01*
X164924377Y-62738309D01*
X164951315Y-62657497D01*
X164951315Y-62603622D01*
X164924377Y-62522810D01*
X164870503Y-62468935D01*
X164789690Y-62441998D01*
X164735816Y-62441998D01*
X164655003Y-62468935D01*
X164520316Y-62603622D01*
X164466442Y-62711372D01*
X133023092Y-61300722D02*
X133050029Y-61219910D01*
X133130841Y-61139097D01*
X133238591Y-61085223D01*
X133346341Y-61085223D01*
X133427153Y-61112160D01*
X133561840Y-61192972D01*
X133642652Y-61273784D01*
X133723464Y-61408471D01*
X133750402Y-61489284D01*
X133750402Y-61597033D01*
X133696527Y-61704783D01*
X133642652Y-61758658D01*
X133534902Y-61812532D01*
X133481028Y-61812532D01*
X133292466Y-61623971D01*
X133400215Y-61516221D01*
X133292466Y-62108844D02*
X132726780Y-61543158D01*
X132511281Y-61758658D01*
X132484344Y-61839470D01*
X132484344Y-61893345D01*
X132511281Y-61974157D01*
X132592093Y-62054969D01*
X132672906Y-62081906D01*
X132726780Y-62081906D01*
X132807593Y-62054969D01*
X133023092Y-61839470D01*
X132241907Y-62135781D02*
X132188032Y-62135781D01*
X132107220Y-62162719D01*
X131972533Y-62297406D01*
X131945596Y-62378218D01*
X131945596Y-62432093D01*
X131972533Y-62512905D01*
X132026408Y-62566780D01*
X132134158Y-62620654D01*
X132780655Y-62620654D01*
X132430469Y-62970841D01*
X131891721Y-63509589D02*
X132214970Y-63186340D01*
X132053345Y-63347964D02*
X131487660Y-62782279D01*
X131622347Y-62809216D01*
X131730097Y-62809216D01*
X131810909Y-62782279D01*
X160730655Y-61797158D02*
X160757593Y-61716346D01*
X160838405Y-61635534D01*
X160946154Y-61581659D01*
X161053904Y-61581659D01*
X161134716Y-61608597D01*
X161269403Y-61689409D01*
X161350215Y-61770221D01*
X161431028Y-61904908D01*
X161457965Y-61985720D01*
X161457965Y-62093470D01*
X161404090Y-62201219D01*
X161350215Y-62255094D01*
X161242466Y-62308969D01*
X161188591Y-62308969D01*
X161000029Y-62120407D01*
X161107779Y-62012658D01*
X161000029Y-62605280D02*
X160434344Y-62039595D01*
X160676780Y-62928529D01*
X160111095Y-62362844D01*
X160407406Y-63197903D02*
X159841721Y-62632218D01*
X159707034Y-62766905D01*
X159653159Y-62874654D01*
X159653159Y-62982404D01*
X159680097Y-63063216D01*
X159760909Y-63197903D01*
X159841721Y-63278715D01*
X159976408Y-63359528D01*
X160057220Y-63386465D01*
X160164970Y-63386465D01*
X160272719Y-63332590D01*
X160407406Y-63197903D01*
X140383718Y-87424096D02*
X140410655Y-87343284D01*
X140491467Y-87262471D01*
X140599217Y-87208597D01*
X140706967Y-87208597D01*
X140787779Y-87235534D01*
X140922466Y-87316346D01*
X141003278Y-87397158D01*
X141084090Y-87531845D01*
X141111028Y-87612658D01*
X141111028Y-87720407D01*
X141057153Y-87828157D01*
X141003278Y-87882032D01*
X140895528Y-87935906D01*
X140841654Y-87935906D01*
X140653092Y-87747345D01*
X140760841Y-87639595D01*
X140653092Y-88232218D02*
X140087406Y-87666532D01*
X139871907Y-87882032D01*
X139844970Y-87962844D01*
X139844970Y-88016719D01*
X139871907Y-88097531D01*
X139952719Y-88178343D01*
X140033532Y-88205280D01*
X140087406Y-88205280D01*
X140168219Y-88178343D01*
X140383718Y-87962844D01*
X139683345Y-88555467D02*
X139710283Y-88474654D01*
X139710283Y-88420780D01*
X139683345Y-88339967D01*
X139656408Y-88313030D01*
X139575596Y-88286093D01*
X139521721Y-88286093D01*
X139440909Y-88313030D01*
X139333159Y-88420780D01*
X139306222Y-88501592D01*
X139306222Y-88555467D01*
X139333159Y-88636279D01*
X139360097Y-88663216D01*
X139440909Y-88690154D01*
X139494784Y-88690154D01*
X139575596Y-88663216D01*
X139683345Y-88555467D01*
X139764158Y-88528529D01*
X139818032Y-88528529D01*
X139898845Y-88555467D01*
X140006594Y-88663216D01*
X140033532Y-88744028D01*
X140033532Y-88797903D01*
X140006594Y-88878715D01*
X139898845Y-88986465D01*
X139818032Y-89013402D01*
X139764158Y-89013402D01*
X139683345Y-88986465D01*
X139575596Y-88878715D01*
X139548658Y-88797903D01*
X139548658Y-88744028D01*
X139575596Y-88663216D01*
X165783718Y-87424096D02*
X165810655Y-87343284D01*
X165891467Y-87262471D01*
X165999217Y-87208597D01*
X166106967Y-87208597D01*
X166187779Y-87235534D01*
X166322466Y-87316346D01*
X166403278Y-87397158D01*
X166484090Y-87531845D01*
X166511028Y-87612658D01*
X166511028Y-87720407D01*
X166457153Y-87828157D01*
X166403278Y-87882032D01*
X166295528Y-87935906D01*
X166241654Y-87935906D01*
X166053092Y-87747345D01*
X166160841Y-87639595D01*
X166053092Y-88232218D02*
X165487406Y-87666532D01*
X165271907Y-87882032D01*
X165244970Y-87962844D01*
X165244970Y-88016719D01*
X165271907Y-88097531D01*
X165352719Y-88178343D01*
X165433532Y-88205280D01*
X165487406Y-88205280D01*
X165568219Y-88178343D01*
X165783718Y-87962844D01*
X164813971Y-88339967D02*
X164760097Y-88393842D01*
X164733159Y-88474654D01*
X164733159Y-88528529D01*
X164760097Y-88609341D01*
X164840909Y-88744028D01*
X164975596Y-88878715D01*
X165110283Y-88959528D01*
X165191095Y-88986465D01*
X165244970Y-88986465D01*
X165325782Y-88959528D01*
X165379657Y-88905653D01*
X165406594Y-88824841D01*
X165406594Y-88770966D01*
X165379657Y-88690154D01*
X165298845Y-88555467D01*
X165164158Y-88420780D01*
X165029471Y-88339967D01*
X164948658Y-88313030D01*
X164894784Y-88313030D01*
X164813971Y-88339967D01*
X151067092Y-61300722D02*
X151094029Y-61219910D01*
X151174841Y-61139097D01*
X151282591Y-61085223D01*
X151390341Y-61085223D01*
X151471153Y-61112160D01*
X151605840Y-61192972D01*
X151686652Y-61273784D01*
X151767464Y-61408471D01*
X151794402Y-61489284D01*
X151794402Y-61597033D01*
X151740527Y-61704783D01*
X151686652Y-61758658D01*
X151578902Y-61812532D01*
X151525028Y-61812532D01*
X151336466Y-61623971D01*
X151444215Y-61516221D01*
X151336466Y-62108844D02*
X150770780Y-61543158D01*
X150555281Y-61758658D01*
X150528344Y-61839470D01*
X150528344Y-61893345D01*
X150555281Y-61974157D01*
X150636093Y-62054969D01*
X150716906Y-62081906D01*
X150770780Y-62081906D01*
X150851593Y-62054969D01*
X151067092Y-61839470D01*
X150285907Y-62135781D02*
X150232032Y-62135781D01*
X150151220Y-62162719D01*
X150016533Y-62297406D01*
X149989596Y-62378218D01*
X149989596Y-62432093D01*
X150016533Y-62512905D01*
X150070408Y-62566780D01*
X150178158Y-62620654D01*
X150824655Y-62620654D01*
X150474469Y-62970841D01*
X149827971Y-62970841D02*
X149854909Y-62890028D01*
X149854909Y-62836154D01*
X149827971Y-62755341D01*
X149801034Y-62728404D01*
X149720222Y-62701467D01*
X149666347Y-62701467D01*
X149585535Y-62728404D01*
X149477785Y-62836154D01*
X149450848Y-62916966D01*
X149450848Y-62970841D01*
X149477785Y-63051653D01*
X149504723Y-63078590D01*
X149585535Y-63105528D01*
X149639410Y-63105528D01*
X149720222Y-63078590D01*
X149827971Y-62970841D01*
X149908784Y-62943903D01*
X149962658Y-62943903D01*
X150043471Y-62970841D01*
X150151220Y-63078590D01*
X150178158Y-63159402D01*
X150178158Y-63213277D01*
X150151220Y-63294089D01*
X150043471Y-63401839D01*
X149962658Y-63428776D01*
X149908784Y-63428776D01*
X149827971Y-63401839D01*
X149720222Y-63294089D01*
X149693284Y-63213277D01*
X149693284Y-63159402D01*
X149720222Y-63078590D01*
X125413092Y-87408722D02*
X125440029Y-87327910D01*
X125520841Y-87247097D01*
X125628591Y-87193223D01*
X125736341Y-87193223D01*
X125817153Y-87220160D01*
X125951840Y-87300972D01*
X126032652Y-87381784D01*
X126113464Y-87516471D01*
X126140402Y-87597284D01*
X126140402Y-87705033D01*
X126086527Y-87812783D01*
X126032652Y-87866658D01*
X125924902Y-87920532D01*
X125871028Y-87920532D01*
X125682466Y-87731971D01*
X125790215Y-87624221D01*
X125682466Y-88216844D02*
X125116780Y-87651158D01*
X124901281Y-87866658D01*
X124874344Y-87947470D01*
X124874344Y-88001345D01*
X124901281Y-88082157D01*
X124982093Y-88162969D01*
X125062906Y-88189906D01*
X125116780Y-88189906D01*
X125197593Y-88162969D01*
X125413092Y-87947470D01*
X124820469Y-89078841D02*
X125143718Y-88755592D01*
X124982093Y-88917216D02*
X124416408Y-88351531D01*
X124551095Y-88378468D01*
X124658845Y-88378468D01*
X124739657Y-88351531D01*
X124066222Y-88701717D02*
X123716036Y-89051903D01*
X124120097Y-89078841D01*
X124039284Y-89159653D01*
X124012347Y-89240465D01*
X124012347Y-89294340D01*
X124039284Y-89375152D01*
X124173971Y-89509839D01*
X124254784Y-89536776D01*
X124308658Y-89536776D01*
X124389471Y-89509839D01*
X124551095Y-89348215D01*
X124578032Y-89267402D01*
X124578032Y-89213528D01*
X155623718Y-87424096D02*
X155650655Y-87343284D01*
X155731467Y-87262471D01*
X155839217Y-87208597D01*
X155946967Y-87208597D01*
X156027779Y-87235534D01*
X156162466Y-87316346D01*
X156243278Y-87397158D01*
X156324090Y-87531845D01*
X156351028Y-87612658D01*
X156351028Y-87720407D01*
X156297153Y-87828157D01*
X156243278Y-87882032D01*
X156135528Y-87935906D01*
X156081654Y-87935906D01*
X155893092Y-87747345D01*
X156000841Y-87639595D01*
X155893092Y-88232218D02*
X155327406Y-87666532D01*
X155111907Y-87882032D01*
X155084970Y-87962844D01*
X155084970Y-88016719D01*
X155111907Y-88097531D01*
X155192719Y-88178343D01*
X155273532Y-88205280D01*
X155327406Y-88205280D01*
X155408219Y-88178343D01*
X155623718Y-87962844D01*
X154815596Y-88178343D02*
X154465410Y-88528529D01*
X154869471Y-88555467D01*
X154788658Y-88636279D01*
X154761721Y-88717091D01*
X154761721Y-88770966D01*
X154788658Y-88851778D01*
X154923345Y-88986465D01*
X155004158Y-89013402D01*
X155058032Y-89013402D01*
X155138845Y-88986465D01*
X155300469Y-88824841D01*
X155327406Y-88744028D01*
X155327406Y-88690154D01*
X148030655Y-87397158D02*
X148057593Y-87316346D01*
X148138405Y-87235534D01*
X148246154Y-87181659D01*
X148353904Y-87181659D01*
X148434716Y-87208597D01*
X148569403Y-87289409D01*
X148650215Y-87370221D01*
X148731028Y-87504908D01*
X148757965Y-87585720D01*
X148757965Y-87693470D01*
X148704090Y-87801219D01*
X148650215Y-87855094D01*
X148542466Y-87908969D01*
X148488591Y-87908969D01*
X148300029Y-87720407D01*
X148407779Y-87612658D01*
X148300029Y-88205280D02*
X147734344Y-87639595D01*
X147976780Y-88528529D01*
X147411095Y-87962844D01*
X147707406Y-88797903D02*
X147141721Y-88232218D01*
X147007034Y-88366905D01*
X146953159Y-88474654D01*
X146953159Y-88582404D01*
X146980097Y-88663216D01*
X147060909Y-88797903D01*
X147141721Y-88878715D01*
X147276408Y-88959528D01*
X147357220Y-88986465D01*
X147464970Y-88986465D01*
X147572719Y-88932590D01*
X147707406Y-88797903D01*
X135330655Y-87397158D02*
X135357593Y-87316346D01*
X135438405Y-87235534D01*
X135546154Y-87181659D01*
X135653904Y-87181659D01*
X135734716Y-87208597D01*
X135869403Y-87289409D01*
X135950215Y-87370221D01*
X136031028Y-87504908D01*
X136057965Y-87585720D01*
X136057965Y-87693470D01*
X136004090Y-87801219D01*
X135950215Y-87855094D01*
X135842466Y-87908969D01*
X135788591Y-87908969D01*
X135600029Y-87720407D01*
X135707779Y-87612658D01*
X135600029Y-88205280D02*
X135034344Y-87639595D01*
X135276780Y-88528529D01*
X134711095Y-87962844D01*
X135007406Y-88797903D02*
X134441721Y-88232218D01*
X134307034Y-88366905D01*
X134253159Y-88474654D01*
X134253159Y-88582404D01*
X134280097Y-88663216D01*
X134360909Y-88797903D01*
X134441721Y-88878715D01*
X134576408Y-88959528D01*
X134657220Y-88986465D01*
X134764970Y-88986465D01*
X134872719Y-88932590D01*
X135007406Y-88797903D01*
X130493092Y-61300722D02*
X130520029Y-61219910D01*
X130600841Y-61139097D01*
X130708591Y-61085223D01*
X130816341Y-61085223D01*
X130897153Y-61112160D01*
X131031840Y-61192972D01*
X131112652Y-61273784D01*
X131193464Y-61408471D01*
X131220402Y-61489284D01*
X131220402Y-61597033D01*
X131166527Y-61704783D01*
X131112652Y-61758658D01*
X131004902Y-61812532D01*
X130951028Y-61812532D01*
X130762466Y-61623971D01*
X130870215Y-61516221D01*
X130762466Y-62108844D02*
X130196780Y-61543158D01*
X129981281Y-61758658D01*
X129954344Y-61839470D01*
X129954344Y-61893345D01*
X129981281Y-61974157D01*
X130062093Y-62054969D01*
X130142906Y-62081906D01*
X130196780Y-62081906D01*
X130277593Y-62054969D01*
X130493092Y-61839470D01*
X129711907Y-62135781D02*
X129658032Y-62135781D01*
X129577220Y-62162719D01*
X129442533Y-62297406D01*
X129415596Y-62378218D01*
X129415596Y-62432093D01*
X129442533Y-62512905D01*
X129496408Y-62566780D01*
X129604158Y-62620654D01*
X130250655Y-62620654D01*
X129900469Y-62970841D01*
X128984597Y-62755341D02*
X128930723Y-62809216D01*
X128903785Y-62890028D01*
X128903785Y-62943903D01*
X128930723Y-63024715D01*
X129011535Y-63159402D01*
X129146222Y-63294089D01*
X129280909Y-63374902D01*
X129361721Y-63401839D01*
X129415596Y-63401839D01*
X129496408Y-63374902D01*
X129550283Y-63321027D01*
X129577220Y-63240215D01*
X129577220Y-63186340D01*
X129550283Y-63105528D01*
X129469471Y-62970841D01*
X129334784Y-62836154D01*
X129200097Y-62755341D01*
X129119284Y-62728404D01*
X129065410Y-62728404D01*
X128984597Y-62755341D01*
X145723092Y-61300722D02*
X145750029Y-61219910D01*
X145830841Y-61139097D01*
X145938591Y-61085223D01*
X146046341Y-61085223D01*
X146127153Y-61112160D01*
X146261840Y-61192972D01*
X146342652Y-61273784D01*
X146423464Y-61408471D01*
X146450402Y-61489284D01*
X146450402Y-61597033D01*
X146396527Y-61704783D01*
X146342652Y-61758658D01*
X146234902Y-61812532D01*
X146181028Y-61812532D01*
X145992466Y-61623971D01*
X146100215Y-61516221D01*
X145992466Y-62108844D02*
X145426780Y-61543158D01*
X145211281Y-61758658D01*
X145184344Y-61839470D01*
X145184344Y-61893345D01*
X145211281Y-61974157D01*
X145292093Y-62054969D01*
X145372906Y-62081906D01*
X145426780Y-62081906D01*
X145507593Y-62054969D01*
X145723092Y-61839470D01*
X144941907Y-62135781D02*
X144888032Y-62135781D01*
X144807220Y-62162719D01*
X144672533Y-62297406D01*
X144645596Y-62378218D01*
X144645596Y-62432093D01*
X144672533Y-62512905D01*
X144726408Y-62566780D01*
X144834158Y-62620654D01*
X145480655Y-62620654D01*
X145130469Y-62970841D01*
X144376222Y-62593717D02*
X143999098Y-62970841D01*
X144807220Y-63294089D01*
X122630655Y-87397158D02*
X122657593Y-87316346D01*
X122738405Y-87235534D01*
X122846154Y-87181659D01*
X122953904Y-87181659D01*
X123034716Y-87208597D01*
X123169403Y-87289409D01*
X123250215Y-87370221D01*
X123331028Y-87504908D01*
X123357965Y-87585720D01*
X123357965Y-87693470D01*
X123304090Y-87801219D01*
X123250215Y-87855094D01*
X123142466Y-87908969D01*
X123088591Y-87908969D01*
X122900029Y-87720407D01*
X123007779Y-87612658D01*
X122900029Y-88205280D02*
X122334344Y-87639595D01*
X122576780Y-88528529D01*
X122011095Y-87962844D01*
X122307406Y-88797903D02*
X121741721Y-88232218D01*
X121607034Y-88366905D01*
X121553159Y-88474654D01*
X121553159Y-88582404D01*
X121580097Y-88663216D01*
X121660909Y-88797903D01*
X121741721Y-88878715D01*
X121876408Y-88959528D01*
X121957220Y-88986465D01*
X122064970Y-88986465D01*
X122172719Y-88932590D01*
X122307406Y-88797903D01*
X142953718Y-87324096D02*
X142980655Y-87243284D01*
X143061467Y-87162471D01*
X143169217Y-87108597D01*
X143276967Y-87108597D01*
X143357779Y-87135534D01*
X143492466Y-87216346D01*
X143573278Y-87297158D01*
X143654090Y-87431845D01*
X143681028Y-87512658D01*
X143681028Y-87620407D01*
X143627153Y-87728157D01*
X143573278Y-87782032D01*
X143465528Y-87835906D01*
X143411654Y-87835906D01*
X143223092Y-87647345D01*
X143330841Y-87539595D01*
X143223092Y-88132218D02*
X142657406Y-87566532D01*
X142441907Y-87782032D01*
X142414970Y-87862844D01*
X142414970Y-87916719D01*
X142441907Y-87997531D01*
X142522719Y-88078343D01*
X142603532Y-88105280D01*
X142657406Y-88105280D01*
X142738219Y-88078343D01*
X142953718Y-87862844D01*
X142145596Y-88078343D02*
X141768472Y-88455467D01*
X142576594Y-88778715D01*
X117793092Y-87408722D02*
X117820029Y-87327910D01*
X117900841Y-87247097D01*
X118008591Y-87193223D01*
X118116341Y-87193223D01*
X118197153Y-87220160D01*
X118331840Y-87300972D01*
X118412652Y-87381784D01*
X118493464Y-87516471D01*
X118520402Y-87597284D01*
X118520402Y-87705033D01*
X118466527Y-87812783D01*
X118412652Y-87866658D01*
X118304902Y-87920532D01*
X118251028Y-87920532D01*
X118062466Y-87731971D01*
X118170215Y-87624221D01*
X118062466Y-88216844D02*
X117496780Y-87651158D01*
X117281281Y-87866658D01*
X117254344Y-87947470D01*
X117254344Y-88001345D01*
X117281281Y-88082157D01*
X117362093Y-88162969D01*
X117442906Y-88189906D01*
X117496780Y-88189906D01*
X117577593Y-88162969D01*
X117793092Y-87947470D01*
X117200469Y-89078841D02*
X117523718Y-88755592D01*
X117362093Y-88917216D02*
X116796408Y-88351531D01*
X116931095Y-88378468D01*
X117038845Y-88378468D01*
X117119657Y-88351531D01*
X116122973Y-89024966D02*
X116392347Y-88755592D01*
X116688658Y-88998028D01*
X116634784Y-88998028D01*
X116553971Y-89024966D01*
X116419284Y-89159653D01*
X116392347Y-89240465D01*
X116392347Y-89294340D01*
X116419284Y-89375152D01*
X116553971Y-89509839D01*
X116634784Y-89536776D01*
X116688658Y-89536776D01*
X116769471Y-89509839D01*
X116904158Y-89375152D01*
X116931095Y-89294340D01*
X116931095Y-89240465D01*
%TO.C,J1*%
X142061130Y-98885416D02*
X142775416Y-98885416D01*
X142918273Y-98837797D01*
X143013511Y-98742559D01*
X143061130Y-98599702D01*
X143061130Y-98504464D01*
X143061130Y-99885416D02*
X143061130Y-99313988D01*
X143061130Y-99599702D02*
X142061130Y-99599702D01*
X142203988Y-99504464D01*
X142299226Y-99409226D01*
X142346845Y-99313988D01*
%TO.C,J2*%
X183322380Y-94500416D02*
X184036666Y-94500416D01*
X184179523Y-94452797D01*
X184274761Y-94357559D01*
X184322380Y-94214702D01*
X184322380Y-94119464D01*
X183417619Y-94928988D02*
X183370000Y-94976607D01*
X183322380Y-95071845D01*
X183322380Y-95309940D01*
X183370000Y-95405178D01*
X183417619Y-95452797D01*
X183512857Y-95500416D01*
X183608095Y-95500416D01*
X183750952Y-95452797D01*
X184322380Y-94881369D01*
X184322380Y-95500416D01*
D11*
%TO.C,U1*%
X146832500Y-64811000D02*
X146432500Y-64811000D01*
X151932500Y-64811000D02*
X151532500Y-64811000D01*
X146832500Y-85811000D02*
X146432500Y-85811000D01*
X118832500Y-64811000D02*
X118432500Y-64811000D01*
X154432500Y-64811000D02*
X154032500Y-64811000D01*
X126432500Y-85811000D02*
X126032500Y-85811000D01*
X129032500Y-85811000D02*
X128632500Y-85811000D01*
X116032500Y-64811000D02*
X116032500Y-71611000D01*
X134132500Y-64811000D02*
X133732500Y-64811000D01*
X159532500Y-64811000D02*
X159132500Y-64811000D01*
X134132500Y-85811000D02*
X133732500Y-85811000D01*
X131532500Y-85811000D02*
X131132500Y-85811000D01*
X156932500Y-64811000D02*
X156532500Y-64811000D01*
X151932500Y-85811000D02*
X151532500Y-85811000D01*
X136632500Y-64811000D02*
X136232500Y-64811000D01*
X162032500Y-64811000D02*
X161632500Y-64811000D01*
X131532500Y-64811000D02*
X131132500Y-64811000D01*
X167032500Y-64811000D02*
X166732500Y-64811000D01*
X139232500Y-64811000D02*
X138832500Y-64811000D01*
X136632500Y-85811000D02*
X136232500Y-85811000D01*
X164365500Y-82804000D02*
X167032500Y-82804000D01*
X164365500Y-85811000D02*
X164365500Y-82804000D01*
X149332500Y-85811000D02*
X148932500Y-85811000D01*
X123932500Y-64811000D02*
X123532500Y-64811000D01*
X116032500Y-79011000D02*
X116032500Y-85811000D01*
X141732500Y-85811000D02*
X141332500Y-85811000D01*
X116032500Y-76811000D02*
X116032500Y-76411000D01*
X141732500Y-64811000D02*
X141332500Y-64811000D01*
X121432500Y-85811000D02*
X121032500Y-85811000D01*
X167032500Y-85811000D02*
X166732500Y-85811000D01*
X121432500Y-64811000D02*
X121032500Y-64811000D01*
X149332500Y-64811000D02*
X148932500Y-64811000D01*
X123932500Y-85811000D02*
X123532500Y-85811000D01*
X144232500Y-85811000D02*
X143832500Y-85811000D01*
X159532500Y-85811000D02*
X159132500Y-85811000D01*
X156932500Y-85811000D02*
X156532500Y-85811000D01*
X154432500Y-85811000D02*
X154032500Y-85811000D01*
X139232500Y-85811000D02*
X138832500Y-85811000D01*
X162032500Y-85811000D02*
X161632500Y-85811000D01*
X116032500Y-74211000D02*
X116032500Y-73811000D01*
X118832500Y-85811000D02*
X118432500Y-85811000D01*
X144232500Y-64811000D02*
X143832500Y-64811000D01*
X167032500Y-85811000D02*
X167032500Y-64811000D01*
X129032500Y-64811000D02*
X128632500Y-64811000D01*
X126432500Y-64811000D02*
X126032500Y-64811000D01*
X164632500Y-85811000D02*
X164232500Y-85811000D01*
X164632500Y-64811000D02*
X164232500Y-64811000D01*
%TO.C,J1*%
X144938750Y-97888750D02*
X143608750Y-97888750D01*
X146208750Y-97888750D02*
X171668750Y-97888750D01*
X171668750Y-97888750D02*
X171668750Y-100548750D01*
X146208750Y-100548750D02*
X171668750Y-100548750D01*
X146208750Y-97888750D02*
X146208750Y-100548750D01*
X143608750Y-97888750D02*
X143608750Y-99218750D01*
%TO.C,J2*%
X179440000Y-98175821D02*
X179440000Y-97778750D01*
X181800000Y-95118750D02*
X181800000Y-89118750D01*
X175250000Y-97778750D02*
X175250000Y-95118750D01*
X181980000Y-95118750D02*
X181980000Y-89118750D01*
X180330000Y-97778750D02*
X180330000Y-95118750D01*
X176140000Y-89118750D02*
X176140000Y-95118750D01*
X181920000Y-95118750D02*
X181920000Y-89118750D01*
X176900000Y-95118750D02*
X176900000Y-89118750D01*
X176900000Y-89118750D02*
X176140000Y-89118750D01*
X176900000Y-98175821D02*
X176900000Y-97778750D01*
X179440000Y-95118750D02*
X179440000Y-89118750D01*
X182870000Y-100488750D02*
X182870000Y-99218750D01*
X181600000Y-100488750D02*
X182870000Y-100488750D01*
X182930000Y-95118750D02*
X182930000Y-97778750D01*
X181440000Y-95118750D02*
X181440000Y-89118750D01*
X172650000Y-97778750D02*
X172650000Y-95118750D01*
X178680000Y-89118750D02*
X178680000Y-95118750D01*
X174360000Y-95118750D02*
X174360000Y-89118750D01*
X173600000Y-98175821D02*
X173600000Y-97778750D01*
X181980000Y-98108750D02*
X181980000Y-97778750D01*
X172650000Y-95118750D02*
X182930000Y-95118750D01*
X181320000Y-95118750D02*
X181320000Y-89118750D01*
X179440000Y-89118750D02*
X178680000Y-89118750D01*
X181220000Y-98108750D02*
X181220000Y-97778750D01*
X181680000Y-95118750D02*
X181680000Y-89118750D01*
X181980000Y-89118750D02*
X181220000Y-89118750D01*
X174360000Y-89118750D02*
X173600000Y-89118750D01*
X178680000Y-98175821D02*
X178680000Y-97778750D01*
X182930000Y-97778750D02*
X172650000Y-97778750D01*
X181220000Y-89118750D02*
X181220000Y-95118750D01*
X174360000Y-98175821D02*
X174360000Y-97778750D01*
X181560000Y-95118750D02*
X181560000Y-89118750D01*
X173600000Y-89118750D02*
X173600000Y-95118750D01*
X176140000Y-98175821D02*
X176140000Y-97778750D01*
X177790000Y-97778750D02*
X177790000Y-95118750D01*
%TD*%
%LPC*%
D12*
%TO.C,H1*%
X98425000Y-57943750D03*
%TD*%
%TO.C,H3*%
X184150000Y-57943750D03*
%TD*%
%TO.C,H2*%
X96837500Y-100806250D03*
%TD*%
%TO.C,H4*%
X185737500Y-100806250D03*
%TD*%
%TO.C,H4*%
X185737500Y-100806250D03*
%TD*%
D13*
%TO.C,U1*%
X118032500Y-81011000D03*
X165032500Y-69611000D03*
X165032500Y-81011000D03*
X118032500Y-69611000D03*
D14*
X165662500Y-85101000D03*
D15*
X165662500Y-84201000D03*
X163122500Y-84201000D03*
D14*
X163122500Y-85101000D03*
X160582500Y-85101000D03*
D16*
X160582500Y-84201000D03*
D14*
X158042500Y-85101000D03*
D15*
X158042500Y-84201000D03*
D14*
X155502500Y-85101000D03*
D15*
X155502500Y-84201000D03*
D14*
X152962500Y-85101000D03*
D15*
X152962500Y-84201000D03*
D14*
X150422500Y-85101000D03*
D15*
X150422500Y-84201000D03*
D16*
X147882500Y-84201000D03*
D14*
X147882500Y-85101000D03*
D15*
X145342500Y-84201000D03*
D14*
X145342500Y-85101000D03*
D15*
X142802500Y-84201000D03*
D14*
X142802500Y-85101000D03*
X140262500Y-85101000D03*
D15*
X140262500Y-84201000D03*
D14*
X137722500Y-85101000D03*
D15*
X137722500Y-84201000D03*
D16*
X135182500Y-84201000D03*
D14*
X135182500Y-85101000D03*
X132642500Y-85101000D03*
D15*
X132642500Y-84201000D03*
D14*
X130102500Y-85101000D03*
D15*
X130102500Y-84201000D03*
X127562500Y-84201000D03*
D14*
X127562500Y-85101000D03*
X125022500Y-85101000D03*
D15*
X125022500Y-84201000D03*
D14*
X122482500Y-85101000D03*
D16*
X122482500Y-84201000D03*
D14*
X119942500Y-85101000D03*
D15*
X119942500Y-84201000D03*
X117402500Y-84201000D03*
D14*
X117402500Y-85101000D03*
D15*
X117402500Y-66421000D03*
D14*
X117402500Y-65521000D03*
X119942500Y-65521000D03*
D15*
X119942500Y-66421000D03*
D16*
X122482500Y-66421000D03*
D14*
X122482500Y-65521000D03*
D15*
X125022500Y-66421000D03*
D14*
X125022500Y-65521000D03*
X127562500Y-65521000D03*
D15*
X127562500Y-66421000D03*
D14*
X130102500Y-65521000D03*
D15*
X130102500Y-66421000D03*
X132642500Y-66421000D03*
D14*
X132642500Y-65521000D03*
D16*
X135182500Y-66421000D03*
D14*
X135182500Y-65521000D03*
D15*
X137722500Y-66421000D03*
D14*
X137722500Y-65521000D03*
D15*
X140262500Y-66421000D03*
D14*
X140262500Y-65521000D03*
X142802500Y-65521000D03*
D15*
X142802500Y-66421000D03*
X145342500Y-66421000D03*
D14*
X145342500Y-65521000D03*
X147882500Y-65521000D03*
D16*
X147882500Y-66421000D03*
D15*
X150422500Y-66421000D03*
D14*
X150422500Y-65521000D03*
D15*
X152962500Y-66421000D03*
D14*
X152962500Y-65521000D03*
X155502500Y-65521000D03*
D15*
X155502500Y-66421000D03*
X158042500Y-66421000D03*
D14*
X158042500Y-65521000D03*
D16*
X160582500Y-66421000D03*
D14*
X160582500Y-65521000D03*
D15*
X163122500Y-66421000D03*
D14*
X163122500Y-65521000D03*
X165662500Y-65521000D03*
D15*
X165662500Y-66421000D03*
D17*
X116732500Y-77851000D03*
D15*
X117632500Y-77851000D03*
D16*
X117632500Y-75311000D03*
D17*
X116732500Y-75311000D03*
X116732500Y-72771000D03*
D15*
X117632500Y-72771000D03*
D18*
X162902500Y-75311000D03*
X166182500Y-74311000D03*
X166202500Y-76311000D03*
%TD*%
D16*
%TO.C,J1*%
X144938750Y-99218750D03*
D15*
X147478750Y-99218750D03*
X150018750Y-99218750D03*
X152558750Y-99218750D03*
X155098750Y-99218750D03*
X157638750Y-99218750D03*
X160178750Y-99218750D03*
X162718750Y-99218750D03*
X165258750Y-99218750D03*
X167798750Y-99218750D03*
X170338750Y-99218750D03*
%TD*%
D16*
%TO.C,J2*%
X181600000Y-99218750D03*
D15*
X179060000Y-99218750D03*
X176520000Y-99218750D03*
X173980000Y-99218750D03*
%TD*%
M02*
