M48
; DRILL file {KiCad (6.0.6)} date Mon Aug 15 00:38:18 2022
; FORMAT={-:-/ absolute / inch / decimal}
; #@! TF.CreationDate,2022-08-15T00:38:18+08:00
; #@! TF.GenerationSoftware,Kicad,Pcbnew,(6.0.6)
; #@! TF.FileFunction,Plated,1,2,PTH
FMAT,2
INCH
; #@! TA.AperFunction,Plated,PTH,ComponentDrill
T1C0.0394
; #@! TA.AperFunction,Plated,PTH,ComponentDrill
T2C0.0402
; #@! TA.AperFunction,Plated,PTH,ComponentDrill
T3C0.0472
%
G90
G05
T1
X5.7062Y-3.9062
X5.8062Y-3.9062
X5.9062Y-3.9062
X6.0062Y-3.9062
X6.1063Y-3.9062
X6.2062Y-3.9062
X6.3062Y-3.9062
X6.4062Y-3.9062
X6.5062Y-3.9062
X6.6063Y-3.9062
X6.7062Y-3.9062
X6.8496Y-3.9062
X6.9496Y-3.9062
X7.0496Y-3.9062
X7.1496Y-3.9062
T2
X4.6221Y-2.615
X4.6221Y-3.315
X4.6312Y-2.865
X4.6312Y-2.965
X4.6312Y-3.065
X4.7221Y-2.615
X4.7221Y-3.315
X4.8221Y-2.615
X4.8221Y-3.315
X4.9221Y-2.615
X4.9221Y-3.315
X5.0221Y-2.615
X5.0221Y-3.315
X5.1221Y-2.615
X5.1221Y-3.315
X5.2221Y-2.615
X5.2221Y-3.315
X5.3221Y-2.615
X5.3221Y-3.315
X5.4221Y-2.615
X5.4221Y-3.315
X5.5221Y-2.615
X5.5221Y-3.315
X5.6221Y-2.615
X5.6221Y-3.315
X5.7221Y-2.615
X5.7221Y-3.315
X5.8221Y-2.615
X5.8221Y-3.315
X5.9221Y-2.615
X5.9221Y-3.315
X6.0221Y-2.615
X6.0221Y-3.315
X6.1221Y-2.615
X6.1221Y-3.315
X6.2221Y-2.615
X6.2221Y-3.315
X6.3221Y-2.615
X6.3221Y-3.315
X6.4221Y-2.615
X6.4221Y-3.315
X6.5221Y-2.615
X6.5221Y-3.315
T3
G00X6.3938Y-2.965
M15
G01X6.4332Y-2.965
M16
G05
G00X6.5229Y-2.9256
M15
G01X6.5623Y-2.9256
M16
G05
G00X6.5237Y-3.0044
M15
G01X6.5631Y-3.0044
M16
G05
T0
M30
