%TF.GenerationSoftware,KiCad,Pcbnew,(6.0.6)*%
%TF.CreationDate,2022-08-15T00:38:18+08:00*%
%TF.ProjectId,15k-macropad-pico,31356b2d-6d61-4637-926f-7061642d7069,rev?*%
%TF.SameCoordinates,Original*%
%TF.FileFunction,Other,Comment*%
%FSLAX46Y46*%
G04 Gerber Fmt 4.6, Leading zero omitted, Abs format (unit mm)*
G04 Created by KiCad (PCBNEW (6.0.6)) date 2022-08-15 00:38:18*
%MOMM*%
%LPD*%
G01*
G04 APERTURE LIST*
%ADD10C,0.150000*%
G04 APERTURE END LIST*
D10*
%TO.C,U1*%
X172089642Y-89211000D02*
X172137261Y-89258619D01*
X172184880Y-89401476D01*
X172184880Y-89496714D01*
X172137261Y-89639571D01*
X172042023Y-89734809D01*
X171946785Y-89782428D01*
X171756309Y-89830047D01*
X171613452Y-89830047D01*
X171422976Y-89782428D01*
X171327738Y-89734809D01*
X171232500Y-89639571D01*
X171184880Y-89496714D01*
X171184880Y-89401476D01*
X171232500Y-89258619D01*
X171280119Y-89211000D01*
X172184880Y-88639571D02*
X172137261Y-88734809D01*
X172089642Y-88782428D01*
X171994404Y-88830047D01*
X171708690Y-88830047D01*
X171613452Y-88782428D01*
X171565833Y-88734809D01*
X171518214Y-88639571D01*
X171518214Y-88496714D01*
X171565833Y-88401476D01*
X171613452Y-88353857D01*
X171708690Y-88306238D01*
X171994404Y-88306238D01*
X172089642Y-88353857D01*
X172137261Y-88401476D01*
X172184880Y-88496714D01*
X172184880Y-88639571D01*
X171518214Y-87877666D02*
X172518214Y-87877666D01*
X171565833Y-87877666D02*
X171518214Y-87782428D01*
X171518214Y-87591952D01*
X171565833Y-87496714D01*
X171613452Y-87449095D01*
X171708690Y-87401476D01*
X171994404Y-87401476D01*
X172089642Y-87449095D01*
X172137261Y-87496714D01*
X172184880Y-87591952D01*
X172184880Y-87782428D01*
X172137261Y-87877666D01*
X171518214Y-86972904D02*
X172518214Y-86972904D01*
X171565833Y-86972904D02*
X171518214Y-86877666D01*
X171518214Y-86687190D01*
X171565833Y-86591952D01*
X171613452Y-86544333D01*
X171708690Y-86496714D01*
X171994404Y-86496714D01*
X172089642Y-86544333D01*
X172137261Y-86591952D01*
X172184880Y-86687190D01*
X172184880Y-86877666D01*
X172137261Y-86972904D01*
X172137261Y-85687190D02*
X172184880Y-85782428D01*
X172184880Y-85972904D01*
X172137261Y-86068142D01*
X172042023Y-86115761D01*
X171661071Y-86115761D01*
X171565833Y-86068142D01*
X171518214Y-85972904D01*
X171518214Y-85782428D01*
X171565833Y-85687190D01*
X171661071Y-85639571D01*
X171756309Y-85639571D01*
X171851547Y-86115761D01*
X172184880Y-85211000D02*
X171518214Y-85211000D01*
X171708690Y-85211000D02*
X171613452Y-85163380D01*
X171565833Y-85115761D01*
X171518214Y-85020523D01*
X171518214Y-84925285D01*
X172184880Y-83830047D02*
X171184880Y-83830047D01*
X172184880Y-83258619D02*
X171613452Y-83687190D01*
X171184880Y-83258619D02*
X171756309Y-83830047D01*
X172137261Y-82449095D02*
X172184880Y-82544333D01*
X172184880Y-82734809D01*
X172137261Y-82830047D01*
X172042023Y-82877666D01*
X171661071Y-82877666D01*
X171565833Y-82830047D01*
X171518214Y-82734809D01*
X171518214Y-82544333D01*
X171565833Y-82449095D01*
X171661071Y-82401476D01*
X171756309Y-82401476D01*
X171851547Y-82877666D01*
X172137261Y-81591952D02*
X172184880Y-81687190D01*
X172184880Y-81877666D01*
X172137261Y-81972904D01*
X172042023Y-82020523D01*
X171661071Y-82020523D01*
X171565833Y-81972904D01*
X171518214Y-81877666D01*
X171518214Y-81687190D01*
X171565833Y-81591952D01*
X171661071Y-81544333D01*
X171756309Y-81544333D01*
X171851547Y-82020523D01*
X171518214Y-81115761D02*
X172518214Y-81115761D01*
X171565833Y-81115761D02*
X171518214Y-81020523D01*
X171518214Y-80830047D01*
X171565833Y-80734809D01*
X171613452Y-80687190D01*
X171708690Y-80639571D01*
X171994404Y-80639571D01*
X172089642Y-80687190D01*
X172137261Y-80734809D01*
X172184880Y-80830047D01*
X172184880Y-81020523D01*
X172137261Y-81115761D01*
X172184880Y-80068142D02*
X172137261Y-80163380D01*
X172089642Y-80211000D01*
X171994404Y-80258619D01*
X171708690Y-80258619D01*
X171613452Y-80211000D01*
X171565833Y-80163380D01*
X171518214Y-80068142D01*
X171518214Y-79925285D01*
X171565833Y-79830047D01*
X171613452Y-79782428D01*
X171708690Y-79734809D01*
X171994404Y-79734809D01*
X172089642Y-79782428D01*
X172137261Y-79830047D01*
X172184880Y-79925285D01*
X172184880Y-80068142D01*
X171518214Y-78877666D02*
X172184880Y-78877666D01*
X171518214Y-79306238D02*
X172042023Y-79306238D01*
X172137261Y-79258619D01*
X172184880Y-79163380D01*
X172184880Y-79020523D01*
X172137261Y-78925285D01*
X172089642Y-78877666D01*
X171518214Y-78544333D02*
X171518214Y-78163380D01*
X171184880Y-78401476D02*
X172042023Y-78401476D01*
X172137261Y-78353857D01*
X172184880Y-78258619D01*
X172184880Y-78163380D01*
X172137261Y-77877666D02*
X172184880Y-77782428D01*
X172184880Y-77591952D01*
X172137261Y-77496714D01*
X172042023Y-77449095D01*
X171994404Y-77449095D01*
X171899166Y-77496714D01*
X171851547Y-77591952D01*
X171851547Y-77734809D01*
X171803928Y-77830047D01*
X171708690Y-77877666D01*
X171661071Y-77877666D01*
X171565833Y-77830047D01*
X171518214Y-77734809D01*
X171518214Y-77591952D01*
X171565833Y-77496714D01*
X172137261Y-76306238D02*
X172184880Y-76211000D01*
X172184880Y-76020523D01*
X172137261Y-75925285D01*
X172042023Y-75877666D01*
X171994404Y-75877666D01*
X171899166Y-75925285D01*
X171851547Y-76020523D01*
X171851547Y-76163380D01*
X171803928Y-76258619D01*
X171708690Y-76306238D01*
X171661071Y-76306238D01*
X171565833Y-76258619D01*
X171518214Y-76163380D01*
X171518214Y-76020523D01*
X171565833Y-75925285D01*
X172184880Y-75449095D02*
X171184880Y-75449095D01*
X172184880Y-75020523D02*
X171661071Y-75020523D01*
X171565833Y-75068142D01*
X171518214Y-75163380D01*
X171518214Y-75306238D01*
X171565833Y-75401476D01*
X171613452Y-75449095D01*
X172184880Y-74401476D02*
X172137261Y-74496714D01*
X172089642Y-74544333D01*
X171994404Y-74591952D01*
X171708690Y-74591952D01*
X171613452Y-74544333D01*
X171565833Y-74496714D01*
X171518214Y-74401476D01*
X171518214Y-74258619D01*
X171565833Y-74163380D01*
X171613452Y-74115761D01*
X171708690Y-74068142D01*
X171994404Y-74068142D01*
X172089642Y-74115761D01*
X172137261Y-74163380D01*
X172184880Y-74258619D01*
X172184880Y-74401476D01*
X171518214Y-73734809D02*
X172184880Y-73544333D01*
X171708690Y-73353857D01*
X172184880Y-73163380D01*
X171518214Y-72972904D01*
X171518214Y-72591952D02*
X172184880Y-72591952D01*
X171613452Y-72591952D02*
X171565833Y-72544333D01*
X171518214Y-72449095D01*
X171518214Y-72306238D01*
X171565833Y-72211000D01*
X171661071Y-72163380D01*
X172184880Y-72163380D01*
X172184880Y-70782428D02*
X172137261Y-70877666D01*
X172089642Y-70925285D01*
X171994404Y-70972904D01*
X171708690Y-70972904D01*
X171613452Y-70925285D01*
X171565833Y-70877666D01*
X171518214Y-70782428D01*
X171518214Y-70639571D01*
X171565833Y-70544333D01*
X171613452Y-70496714D01*
X171708690Y-70449095D01*
X171994404Y-70449095D01*
X172089642Y-70496714D01*
X172137261Y-70544333D01*
X172184880Y-70639571D01*
X172184880Y-70782428D01*
X171518214Y-70020523D02*
X172184880Y-70020523D01*
X171613452Y-70020523D02*
X171565833Y-69972904D01*
X171518214Y-69877666D01*
X171518214Y-69734809D01*
X171565833Y-69639571D01*
X171661071Y-69591952D01*
X172184880Y-69591952D01*
X172184880Y-68353857D02*
X171184880Y-68353857D01*
X171184880Y-68115761D01*
X171232500Y-67972904D01*
X171327738Y-67877666D01*
X171422976Y-67830047D01*
X171613452Y-67782428D01*
X171756309Y-67782428D01*
X171946785Y-67830047D01*
X172042023Y-67877666D01*
X172137261Y-67972904D01*
X172184880Y-68115761D01*
X172184880Y-68353857D01*
X171518214Y-67449095D02*
X172184880Y-67258619D01*
X171708690Y-67068142D01*
X172184880Y-66877666D01*
X171518214Y-66687190D01*
X171518214Y-65877666D02*
X172327738Y-65877666D01*
X172422976Y-65925285D01*
X172470595Y-65972904D01*
X172518214Y-66068142D01*
X172518214Y-66211000D01*
X172470595Y-66306238D01*
X172137261Y-65877666D02*
X172184880Y-65972904D01*
X172184880Y-66163380D01*
X172137261Y-66258619D01*
X172089642Y-66306238D01*
X171994404Y-66353857D01*
X171708690Y-66353857D01*
X171613452Y-66306238D01*
X171565833Y-66258619D01*
X171518214Y-66163380D01*
X171518214Y-65972904D01*
X171565833Y-65877666D01*
X172137261Y-65449095D02*
X172184880Y-65353857D01*
X172184880Y-65163380D01*
X172137261Y-65068142D01*
X172042023Y-65020523D01*
X171994404Y-65020523D01*
X171899166Y-65068142D01*
X171851547Y-65163380D01*
X171851547Y-65306238D01*
X171803928Y-65401476D01*
X171708690Y-65449095D01*
X171661071Y-65449095D01*
X171565833Y-65401476D01*
X171518214Y-65306238D01*
X171518214Y-65163380D01*
X171565833Y-65068142D01*
X172184880Y-63687190D02*
X172137261Y-63782428D01*
X172042023Y-63830047D01*
X171184880Y-63830047D01*
X172184880Y-62877666D02*
X171661071Y-62877666D01*
X171565833Y-62925285D01*
X171518214Y-63020523D01*
X171518214Y-63211000D01*
X171565833Y-63306238D01*
X172137261Y-62877666D02*
X172184880Y-62972904D01*
X172184880Y-63211000D01*
X172137261Y-63306238D01*
X172042023Y-63353857D01*
X171946785Y-63353857D01*
X171851547Y-63306238D01*
X171803928Y-63211000D01*
X171803928Y-62972904D01*
X171756309Y-62877666D01*
X171518214Y-62496714D02*
X172184880Y-62258619D01*
X171518214Y-62020523D02*
X172184880Y-62258619D01*
X172422976Y-62353857D01*
X172470595Y-62401476D01*
X172518214Y-62496714D01*
X172137261Y-61258619D02*
X172184880Y-61353857D01*
X172184880Y-61544333D01*
X172137261Y-61639571D01*
X172042023Y-61687190D01*
X171661071Y-61687190D01*
X171565833Y-61639571D01*
X171518214Y-61544333D01*
X171518214Y-61353857D01*
X171565833Y-61258619D01*
X171661071Y-61211000D01*
X171756309Y-61211000D01*
X171851547Y-61687190D01*
X172184880Y-60782428D02*
X171518214Y-60782428D01*
X171708690Y-60782428D02*
X171613452Y-60734809D01*
X171565833Y-60687190D01*
X171518214Y-60591952D01*
X171518214Y-60496714D01*
%TO.C,H1*%
X100625000Y-57943750D02*
G75*
G03*
X100625000Y-57943750I-2200000J0D01*
G01*
%TO.C,H3*%
X186350000Y-57943750D02*
G75*
G03*
X186350000Y-57943750I-2200000J0D01*
G01*
%TO.C,H2*%
X99037500Y-100806250D02*
G75*
G03*
X99037500Y-100806250I-2200000J0D01*
G01*
%TO.C,H4*%
X187937500Y-100806250D02*
G75*
G03*
X187937500Y-100806250I-2200000J0D01*
G01*
X187937500Y-100806250D02*
G75*
G03*
X187937500Y-100806250I-2200000J0D01*
G01*
%TD*%
M02*
