%TF.GenerationSoftware,KiCad,Pcbnew,(6.0.6)*%
%TF.CreationDate,2022-08-15T00:38:18+08:00*%
%TF.ProjectId,15k-macropad-pico,31356b2d-6d61-4637-926f-7061642d7069,rev?*%
%TF.SameCoordinates,Original*%
%TF.FileFunction,Soldermask,Bot*%
%TF.FilePolarity,Negative*%
%FSLAX46Y46*%
G04 Gerber Fmt 4.6, Leading zero omitted, Abs format (unit mm)*
G04 Created by KiCad (PCBNEW (6.0.6)) date 2022-08-15 00:38:18*
%MOMM*%
%LPD*%
G01*
G04 APERTURE LIST*
G04 Aperture macros list*
%AMRoundRect*
0 Rectangle with rounded corners*
0 $1 Rounding radius*
0 $2 $3 $4 $5 $6 $7 $8 $9 X,Y pos of 4 corners*
0 Add a 4 corners polygon primitive as box body*
4,1,4,$2,$3,$4,$5,$6,$7,$8,$9,$2,$3,0*
0 Add four circle primitives for the rounded corners*
1,1,$1+$1,$2,$3*
1,1,$1+$1,$4,$5*
1,1,$1+$1,$6,$7*
1,1,$1+$1,$8,$9*
0 Add four rect primitives between the rounded corners*
20,1,$1+$1,$2,$3,$4,$5,0*
20,1,$1+$1,$4,$5,$6,$7,0*
20,1,$1+$1,$6,$7,$8,$9,0*
20,1,$1+$1,$8,$9,$2,$3,0*%
G04 Aperture macros list end*
%ADD10C,2.200000*%
%ADD11C,2.100000*%
%ADD12R,1.700000X3.500000*%
%ADD13O,1.700000X1.700000*%
%ADD14R,1.700000X1.700000*%
%ADD15R,3.500000X1.700000*%
%ADD16RoundRect,0.300000X0.950000X-0.450000X0.950000X0.450000X-0.950000X0.450000X-0.950000X-0.450000X0*%
G04 APERTURE END LIST*
D10*
%TO.C,H1*%
X98425000Y-57943750D03*
%TD*%
%TO.C,H3*%
X184150000Y-57943750D03*
%TD*%
%TO.C,H2*%
X96837500Y-100806250D03*
%TD*%
%TO.C,H4*%
X185737500Y-100806250D03*
%TD*%
%TO.C,H4*%
X185737500Y-100806250D03*
%TD*%
D11*
%TO.C,U1*%
X118032500Y-81011000D03*
X165032500Y-69611000D03*
X165032500Y-81011000D03*
X118032500Y-69611000D03*
D12*
X165662500Y-85101000D03*
D13*
X165662500Y-84201000D03*
X163122500Y-84201000D03*
D12*
X163122500Y-85101000D03*
X160582500Y-85101000D03*
D14*
X160582500Y-84201000D03*
D12*
X158042500Y-85101000D03*
D13*
X158042500Y-84201000D03*
D12*
X155502500Y-85101000D03*
D13*
X155502500Y-84201000D03*
D12*
X152962500Y-85101000D03*
D13*
X152962500Y-84201000D03*
D12*
X150422500Y-85101000D03*
D13*
X150422500Y-84201000D03*
D14*
X147882500Y-84201000D03*
D12*
X147882500Y-85101000D03*
D13*
X145342500Y-84201000D03*
D12*
X145342500Y-85101000D03*
D13*
X142802500Y-84201000D03*
D12*
X142802500Y-85101000D03*
X140262500Y-85101000D03*
D13*
X140262500Y-84201000D03*
D12*
X137722500Y-85101000D03*
D13*
X137722500Y-84201000D03*
D14*
X135182500Y-84201000D03*
D12*
X135182500Y-85101000D03*
X132642500Y-85101000D03*
D13*
X132642500Y-84201000D03*
D12*
X130102500Y-85101000D03*
D13*
X130102500Y-84201000D03*
X127562500Y-84201000D03*
D12*
X127562500Y-85101000D03*
X125022500Y-85101000D03*
D13*
X125022500Y-84201000D03*
D12*
X122482500Y-85101000D03*
D14*
X122482500Y-84201000D03*
D12*
X119942500Y-85101000D03*
D13*
X119942500Y-84201000D03*
X117402500Y-84201000D03*
D12*
X117402500Y-85101000D03*
D13*
X117402500Y-66421000D03*
D12*
X117402500Y-65521000D03*
X119942500Y-65521000D03*
D13*
X119942500Y-66421000D03*
D14*
X122482500Y-66421000D03*
D12*
X122482500Y-65521000D03*
D13*
X125022500Y-66421000D03*
D12*
X125022500Y-65521000D03*
X127562500Y-65521000D03*
D13*
X127562500Y-66421000D03*
D12*
X130102500Y-65521000D03*
D13*
X130102500Y-66421000D03*
X132642500Y-66421000D03*
D12*
X132642500Y-65521000D03*
D14*
X135182500Y-66421000D03*
D12*
X135182500Y-65521000D03*
D13*
X137722500Y-66421000D03*
D12*
X137722500Y-65521000D03*
D13*
X140262500Y-66421000D03*
D12*
X140262500Y-65521000D03*
X142802500Y-65521000D03*
D13*
X142802500Y-66421000D03*
X145342500Y-66421000D03*
D12*
X145342500Y-65521000D03*
X147882500Y-65521000D03*
D14*
X147882500Y-66421000D03*
D13*
X150422500Y-66421000D03*
D12*
X150422500Y-65521000D03*
D13*
X152962500Y-66421000D03*
D12*
X152962500Y-65521000D03*
X155502500Y-65521000D03*
D13*
X155502500Y-66421000D03*
X158042500Y-66421000D03*
D12*
X158042500Y-65521000D03*
D14*
X160582500Y-66421000D03*
D12*
X160582500Y-65521000D03*
D13*
X163122500Y-66421000D03*
D12*
X163122500Y-65521000D03*
X165662500Y-65521000D03*
D13*
X165662500Y-66421000D03*
D15*
X116732500Y-77851000D03*
D13*
X117632500Y-77851000D03*
D14*
X117632500Y-75311000D03*
D15*
X116732500Y-75311000D03*
X116732500Y-72771000D03*
D13*
X117632500Y-72771000D03*
D16*
X162902500Y-75311000D03*
X166182500Y-74311000D03*
X166202500Y-76311000D03*
%TD*%
D14*
%TO.C,J1*%
X144938750Y-99218750D03*
D13*
X147478750Y-99218750D03*
X150018750Y-99218750D03*
X152558750Y-99218750D03*
X155098750Y-99218750D03*
X157638750Y-99218750D03*
X160178750Y-99218750D03*
X162718750Y-99218750D03*
X165258750Y-99218750D03*
X167798750Y-99218750D03*
X170338750Y-99218750D03*
%TD*%
D14*
%TO.C,J2*%
X181600000Y-99218750D03*
D13*
X179060000Y-99218750D03*
X176520000Y-99218750D03*
X173980000Y-99218750D03*
%TD*%
M02*
