%TF.GenerationSoftware,KiCad,Pcbnew,(6.0.6)*%
%TF.CreationDate,2022-08-15T00:28:01+08:00*%
%TF.ProjectId,15k-macropad,31356b2d-6d61-4637-926f-7061642e6b69,rev?*%
%TF.SameCoordinates,Original*%
%TF.FileFunction,Legend,Bot*%
%TF.FilePolarity,Positive*%
%FSLAX46Y46*%
G04 Gerber Fmt 4.6, Leading zero omitted, Abs format (unit mm)*
G04 Created by KiCad (PCBNEW (6.0.6)) date 2022-08-15 00:28:01*
%MOMM*%
%LPD*%
G01*
G04 APERTURE LIST*
G04 Aperture macros list*
%AMRoundRect*
0 Rectangle with rounded corners*
0 $1 Rounding radius*
0 $2 $3 $4 $5 $6 $7 $8 $9 X,Y pos of 4 corners*
0 Add a 4 corners polygon primitive as box body*
4,1,4,$2,$3,$4,$5,$6,$7,$8,$9,$2,$3,0*
0 Add four circle primitives for the rounded corners*
1,1,$1+$1,$2,$3*
1,1,$1+$1,$4,$5*
1,1,$1+$1,$6,$7*
1,1,$1+$1,$8,$9*
0 Add four rect primitives between the rounded corners*
20,1,$1+$1,$2,$3,$4,$5,0*
20,1,$1+$1,$4,$5,$6,$7,0*
20,1,$1+$1,$6,$7,$8,$9,0*
20,1,$1+$1,$8,$9,$2,$3,0*%
%AMFreePoly0*
4,1,18,-0.410000,0.593000,-0.403758,0.624380,-0.385983,0.650983,-0.359380,0.668758,-0.328000,0.675000,0.328000,0.675000,0.359380,0.668758,0.385983,0.650983,0.403758,0.624380,0.410000,0.593000,0.410000,-0.593000,0.403758,-0.624380,0.385983,-0.650983,0.359380,-0.668758,0.328000,-0.675000,0.000000,-0.675000,-0.410000,-0.265000,-0.410000,0.593000,-0.410000,0.593000,$1*%
G04 Aperture macros list end*
%ADD10C,0.150000*%
%ADD11C,0.120000*%
%ADD12C,2.200000*%
%ADD13R,0.900000X1.200000*%
%ADD14RoundRect,0.250000X-1.025000X-1.000000X1.025000X-1.000000X1.025000X1.000000X-1.025000X1.000000X0*%
%ADD15C,1.750000*%
%ADD16C,4.000000*%
%ADD17C,3.050000*%
%ADD18FreePoly0,90.000000*%
%ADD19RoundRect,0.082000X0.593000X-0.328000X0.593000X0.328000X-0.593000X0.328000X-0.593000X-0.328000X0*%
%ADD20RoundRect,0.225000X0.225000X0.250000X-0.225000X0.250000X-0.225000X-0.250000X0.225000X-0.250000X0*%
%ADD21O,1.700000X1.700000*%
%ADD22R,1.700000X1.700000*%
%ADD23C,0.800000*%
G04 APERTURE END LIST*
D10*
X137737857Y-116403380D02*
X138309285Y-116403380D01*
X138023571Y-116403380D02*
X138023571Y-115403380D01*
X138118809Y-115546238D01*
X138214047Y-115641476D01*
X138309285Y-115689095D01*
X136833095Y-115403380D02*
X137309285Y-115403380D01*
X137356904Y-115879571D01*
X137309285Y-115831952D01*
X137214047Y-115784333D01*
X136975952Y-115784333D01*
X136880714Y-115831952D01*
X136833095Y-115879571D01*
X136785476Y-115974809D01*
X136785476Y-116212904D01*
X136833095Y-116308142D01*
X136880714Y-116355761D01*
X136975952Y-116403380D01*
X137214047Y-116403380D01*
X137309285Y-116355761D01*
X137356904Y-116308142D01*
X136356904Y-116403380D02*
X136356904Y-115403380D01*
X136261666Y-116022428D02*
X135975952Y-116403380D01*
X135975952Y-115736714D02*
X136356904Y-116117666D01*
X134785476Y-116403380D02*
X134785476Y-115736714D01*
X134785476Y-115831952D02*
X134737857Y-115784333D01*
X134642619Y-115736714D01*
X134499761Y-115736714D01*
X134404523Y-115784333D01*
X134356904Y-115879571D01*
X134356904Y-116403380D01*
X134356904Y-115879571D02*
X134309285Y-115784333D01*
X134214047Y-115736714D01*
X134071190Y-115736714D01*
X133975952Y-115784333D01*
X133928333Y-115879571D01*
X133928333Y-116403380D01*
X133023571Y-116403380D02*
X133023571Y-115879571D01*
X133071190Y-115784333D01*
X133166428Y-115736714D01*
X133356904Y-115736714D01*
X133452142Y-115784333D01*
X133023571Y-116355761D02*
X133118809Y-116403380D01*
X133356904Y-116403380D01*
X133452142Y-116355761D01*
X133499761Y-116260523D01*
X133499761Y-116165285D01*
X133452142Y-116070047D01*
X133356904Y-116022428D01*
X133118809Y-116022428D01*
X133023571Y-115974809D01*
X132118809Y-116355761D02*
X132214047Y-116403380D01*
X132404523Y-116403380D01*
X132499761Y-116355761D01*
X132547380Y-116308142D01*
X132595000Y-116212904D01*
X132595000Y-115927190D01*
X132547380Y-115831952D01*
X132499761Y-115784333D01*
X132404523Y-115736714D01*
X132214047Y-115736714D01*
X132118809Y-115784333D01*
X131690238Y-116403380D02*
X131690238Y-115736714D01*
X131690238Y-115927190D02*
X131642619Y-115831952D01*
X131595000Y-115784333D01*
X131499761Y-115736714D01*
X131404523Y-115736714D01*
X130928333Y-116403380D02*
X131023571Y-116355761D01*
X131071190Y-116308142D01*
X131118809Y-116212904D01*
X131118809Y-115927190D01*
X131071190Y-115831952D01*
X131023571Y-115784333D01*
X130928333Y-115736714D01*
X130785476Y-115736714D01*
X130690238Y-115784333D01*
X130642619Y-115831952D01*
X130595000Y-115927190D01*
X130595000Y-116212904D01*
X130642619Y-116308142D01*
X130690238Y-116355761D01*
X130785476Y-116403380D01*
X130928333Y-116403380D01*
X130166428Y-115736714D02*
X130166428Y-116736714D01*
X130166428Y-115784333D02*
X130071190Y-115736714D01*
X129880714Y-115736714D01*
X129785476Y-115784333D01*
X129737857Y-115831952D01*
X129690238Y-115927190D01*
X129690238Y-116212904D01*
X129737857Y-116308142D01*
X129785476Y-116355761D01*
X129880714Y-116403380D01*
X130071190Y-116403380D01*
X130166428Y-116355761D01*
X128833095Y-116403380D02*
X128833095Y-115879571D01*
X128880714Y-115784333D01*
X128975952Y-115736714D01*
X129166428Y-115736714D01*
X129261666Y-115784333D01*
X128833095Y-116355761D02*
X128928333Y-116403380D01*
X129166428Y-116403380D01*
X129261666Y-116355761D01*
X129309285Y-116260523D01*
X129309285Y-116165285D01*
X129261666Y-116070047D01*
X129166428Y-116022428D01*
X128928333Y-116022428D01*
X128833095Y-115974809D01*
X127928333Y-116403380D02*
X127928333Y-115403380D01*
X127928333Y-116355761D02*
X128023571Y-116403380D01*
X128214047Y-116403380D01*
X128309285Y-116355761D01*
X128356904Y-116308142D01*
X128404523Y-116212904D01*
X128404523Y-115927190D01*
X128356904Y-115831952D01*
X128309285Y-115784333D01*
X128214047Y-115736714D01*
X128023571Y-115736714D01*
X127928333Y-115784333D01*
X124404523Y-116403380D02*
X124404523Y-115403380D01*
X124404523Y-115784333D02*
X124309285Y-115736714D01*
X124118809Y-115736714D01*
X124023571Y-115784333D01*
X123975952Y-115831952D01*
X123928333Y-115927190D01*
X123928333Y-116212904D01*
X123975952Y-116308142D01*
X124023571Y-116355761D01*
X124118809Y-116403380D01*
X124309285Y-116403380D01*
X124404523Y-116355761D01*
X123595000Y-115736714D02*
X123356904Y-116403380D01*
X123118809Y-115736714D02*
X123356904Y-116403380D01*
X123452142Y-116641476D01*
X123499761Y-116689095D01*
X123595000Y-116736714D01*
X122737857Y-116308142D02*
X122690238Y-116355761D01*
X122737857Y-116403380D01*
X122785476Y-116355761D01*
X122737857Y-116308142D01*
X122737857Y-116403380D01*
X122737857Y-115784333D02*
X122690238Y-115831952D01*
X122737857Y-115879571D01*
X122785476Y-115831952D01*
X122737857Y-115784333D01*
X122737857Y-115879571D01*
X121547380Y-116355761D02*
X121404523Y-116403380D01*
X121166428Y-116403380D01*
X121071190Y-116355761D01*
X121023571Y-116308142D01*
X120975952Y-116212904D01*
X120975952Y-116117666D01*
X121023571Y-116022428D01*
X121071190Y-115974809D01*
X121166428Y-115927190D01*
X121356904Y-115879571D01*
X121452142Y-115831952D01*
X121499761Y-115784333D01*
X121547380Y-115689095D01*
X121547380Y-115593857D01*
X121499761Y-115498619D01*
X121452142Y-115451000D01*
X121356904Y-115403380D01*
X121118809Y-115403380D01*
X120975952Y-115451000D01*
X120547380Y-116403380D02*
X120547380Y-115403380D01*
X119975952Y-116403380D02*
X120404523Y-115831952D01*
X119975952Y-115403380D02*
X120547380Y-115974809D01*
X119547380Y-116403380D02*
X119547380Y-115403380D01*
X119214047Y-116117666D01*
X118880714Y-115403380D01*
X118880714Y-116403380D01*
X118547380Y-115403380D02*
X117975952Y-115403380D01*
X118261666Y-116403380D02*
X118261666Y-115403380D01*
X114690238Y-115736714D02*
X114452142Y-116403380D01*
X114214047Y-115736714D01*
X113309285Y-116403380D02*
X113880714Y-116403380D01*
X113595000Y-116403380D02*
X113595000Y-115403380D01*
X113690238Y-115546238D01*
X113785476Y-115641476D01*
X113880714Y-115689095D01*
X112880714Y-116308142D02*
X112833095Y-116355761D01*
X112880714Y-116403380D01*
X112928333Y-116355761D01*
X112880714Y-116308142D01*
X112880714Y-116403380D01*
X112214047Y-115403380D02*
X112118809Y-115403380D01*
X112023571Y-115451000D01*
X111975952Y-115498619D01*
X111928333Y-115593857D01*
X111880714Y-115784333D01*
X111880714Y-116022428D01*
X111928333Y-116212904D01*
X111975952Y-116308142D01*
X112023571Y-116355761D01*
X112118809Y-116403380D01*
X112214047Y-116403380D01*
X112309285Y-116355761D01*
X112356904Y-116308142D01*
X112404523Y-116212904D01*
X112452142Y-116022428D01*
X112452142Y-115784333D01*
X112404523Y-115593857D01*
X112356904Y-115498619D01*
X112309285Y-115451000D01*
X112214047Y-115403380D01*
%TO.C,D15*%
X178220535Y-94908630D02*
X178220535Y-93908630D01*
X177982440Y-93908630D01*
X177839583Y-93956250D01*
X177744345Y-94051488D01*
X177696726Y-94146726D01*
X177649107Y-94337202D01*
X177649107Y-94480059D01*
X177696726Y-94670535D01*
X177744345Y-94765773D01*
X177839583Y-94861011D01*
X177982440Y-94908630D01*
X178220535Y-94908630D01*
X176696726Y-94908630D02*
X177268154Y-94908630D01*
X176982440Y-94908630D02*
X176982440Y-93908630D01*
X177077678Y-94051488D01*
X177172916Y-94146726D01*
X177268154Y-94194345D01*
X175791964Y-93908630D02*
X176268154Y-93908630D01*
X176315773Y-94384821D01*
X176268154Y-94337202D01*
X176172916Y-94289583D01*
X175934821Y-94289583D01*
X175839583Y-94337202D01*
X175791964Y-94384821D01*
X175744345Y-94480059D01*
X175744345Y-94718154D01*
X175791964Y-94813392D01*
X175839583Y-94861011D01*
X175934821Y-94908630D01*
X176172916Y-94908630D01*
X176268154Y-94861011D01*
X176315773Y-94813392D01*
%TO.C,D14*%
X178220535Y-75858630D02*
X178220535Y-74858630D01*
X177982440Y-74858630D01*
X177839583Y-74906250D01*
X177744345Y-75001488D01*
X177696726Y-75096726D01*
X177649107Y-75287202D01*
X177649107Y-75430059D01*
X177696726Y-75620535D01*
X177744345Y-75715773D01*
X177839583Y-75811011D01*
X177982440Y-75858630D01*
X178220535Y-75858630D01*
X176696726Y-75858630D02*
X177268154Y-75858630D01*
X176982440Y-75858630D02*
X176982440Y-74858630D01*
X177077678Y-75001488D01*
X177172916Y-75096726D01*
X177268154Y-75144345D01*
X175839583Y-75191964D02*
X175839583Y-75858630D01*
X176077678Y-74811011D02*
X176315773Y-75525297D01*
X175696726Y-75525297D01*
%TO.C,D13*%
X178220535Y-56808630D02*
X178220535Y-55808630D01*
X177982440Y-55808630D01*
X177839583Y-55856250D01*
X177744345Y-55951488D01*
X177696726Y-56046726D01*
X177649107Y-56237202D01*
X177649107Y-56380059D01*
X177696726Y-56570535D01*
X177744345Y-56665773D01*
X177839583Y-56761011D01*
X177982440Y-56808630D01*
X178220535Y-56808630D01*
X176696726Y-56808630D02*
X177268154Y-56808630D01*
X176982440Y-56808630D02*
X176982440Y-55808630D01*
X177077678Y-55951488D01*
X177172916Y-56046726D01*
X177268154Y-56094345D01*
X176363392Y-55808630D02*
X175744345Y-55808630D01*
X176077678Y-56189583D01*
X175934821Y-56189583D01*
X175839583Y-56237202D01*
X175791964Y-56284821D01*
X175744345Y-56380059D01*
X175744345Y-56618154D01*
X175791964Y-56713392D01*
X175839583Y-56761011D01*
X175934821Y-56808630D01*
X176220535Y-56808630D01*
X176315773Y-56761011D01*
X176363392Y-56713392D01*
%TO.C,D12*%
X159170535Y-94908630D02*
X159170535Y-93908630D01*
X158932440Y-93908630D01*
X158789583Y-93956250D01*
X158694345Y-94051488D01*
X158646726Y-94146726D01*
X158599107Y-94337202D01*
X158599107Y-94480059D01*
X158646726Y-94670535D01*
X158694345Y-94765773D01*
X158789583Y-94861011D01*
X158932440Y-94908630D01*
X159170535Y-94908630D01*
X157646726Y-94908630D02*
X158218154Y-94908630D01*
X157932440Y-94908630D02*
X157932440Y-93908630D01*
X158027678Y-94051488D01*
X158122916Y-94146726D01*
X158218154Y-94194345D01*
X157265773Y-94003869D02*
X157218154Y-93956250D01*
X157122916Y-93908630D01*
X156884821Y-93908630D01*
X156789583Y-93956250D01*
X156741964Y-94003869D01*
X156694345Y-94099107D01*
X156694345Y-94194345D01*
X156741964Y-94337202D01*
X157313392Y-94908630D01*
X156694345Y-94908630D01*
%TO.C,D11*%
X159170535Y-75858630D02*
X159170535Y-74858630D01*
X158932440Y-74858630D01*
X158789583Y-74906250D01*
X158694345Y-75001488D01*
X158646726Y-75096726D01*
X158599107Y-75287202D01*
X158599107Y-75430059D01*
X158646726Y-75620535D01*
X158694345Y-75715773D01*
X158789583Y-75811011D01*
X158932440Y-75858630D01*
X159170535Y-75858630D01*
X157646726Y-75858630D02*
X158218154Y-75858630D01*
X157932440Y-75858630D02*
X157932440Y-74858630D01*
X158027678Y-75001488D01*
X158122916Y-75096726D01*
X158218154Y-75144345D01*
X156694345Y-75858630D02*
X157265773Y-75858630D01*
X156980059Y-75858630D02*
X156980059Y-74858630D01*
X157075297Y-75001488D01*
X157170535Y-75096726D01*
X157265773Y-75144345D01*
%TO.C,D10*%
X159170535Y-56808630D02*
X159170535Y-55808630D01*
X158932440Y-55808630D01*
X158789583Y-55856250D01*
X158694345Y-55951488D01*
X158646726Y-56046726D01*
X158599107Y-56237202D01*
X158599107Y-56380059D01*
X158646726Y-56570535D01*
X158694345Y-56665773D01*
X158789583Y-56761011D01*
X158932440Y-56808630D01*
X159170535Y-56808630D01*
X157646726Y-56808630D02*
X158218154Y-56808630D01*
X157932440Y-56808630D02*
X157932440Y-55808630D01*
X158027678Y-55951488D01*
X158122916Y-56046726D01*
X158218154Y-56094345D01*
X157027678Y-55808630D02*
X156932440Y-55808630D01*
X156837202Y-55856250D01*
X156789583Y-55903869D01*
X156741964Y-55999107D01*
X156694345Y-56189583D01*
X156694345Y-56427678D01*
X156741964Y-56618154D01*
X156789583Y-56713392D01*
X156837202Y-56761011D01*
X156932440Y-56808630D01*
X157027678Y-56808630D01*
X157122916Y-56761011D01*
X157170535Y-56713392D01*
X157218154Y-56618154D01*
X157265773Y-56427678D01*
X157265773Y-56189583D01*
X157218154Y-55999107D01*
X157170535Y-55903869D01*
X157122916Y-55856250D01*
X157027678Y-55808630D01*
%TO.C,D9*%
X139644345Y-94908630D02*
X139644345Y-93908630D01*
X139406250Y-93908630D01*
X139263392Y-93956250D01*
X139168154Y-94051488D01*
X139120535Y-94146726D01*
X139072916Y-94337202D01*
X139072916Y-94480059D01*
X139120535Y-94670535D01*
X139168154Y-94765773D01*
X139263392Y-94861011D01*
X139406250Y-94908630D01*
X139644345Y-94908630D01*
X138596726Y-94908630D02*
X138406250Y-94908630D01*
X138311011Y-94861011D01*
X138263392Y-94813392D01*
X138168154Y-94670535D01*
X138120535Y-94480059D01*
X138120535Y-94099107D01*
X138168154Y-94003869D01*
X138215773Y-93956250D01*
X138311011Y-93908630D01*
X138501488Y-93908630D01*
X138596726Y-93956250D01*
X138644345Y-94003869D01*
X138691964Y-94099107D01*
X138691964Y-94337202D01*
X138644345Y-94432440D01*
X138596726Y-94480059D01*
X138501488Y-94527678D01*
X138311011Y-94527678D01*
X138215773Y-94480059D01*
X138168154Y-94432440D01*
X138120535Y-94337202D01*
%TO.C,D8*%
X139644345Y-75858630D02*
X139644345Y-74858630D01*
X139406250Y-74858630D01*
X139263392Y-74906250D01*
X139168154Y-75001488D01*
X139120535Y-75096726D01*
X139072916Y-75287202D01*
X139072916Y-75430059D01*
X139120535Y-75620535D01*
X139168154Y-75715773D01*
X139263392Y-75811011D01*
X139406250Y-75858630D01*
X139644345Y-75858630D01*
X138501488Y-75287202D02*
X138596726Y-75239583D01*
X138644345Y-75191964D01*
X138691964Y-75096726D01*
X138691964Y-75049107D01*
X138644345Y-74953869D01*
X138596726Y-74906250D01*
X138501488Y-74858630D01*
X138311011Y-74858630D01*
X138215773Y-74906250D01*
X138168154Y-74953869D01*
X138120535Y-75049107D01*
X138120535Y-75096726D01*
X138168154Y-75191964D01*
X138215773Y-75239583D01*
X138311011Y-75287202D01*
X138501488Y-75287202D01*
X138596726Y-75334821D01*
X138644345Y-75382440D01*
X138691964Y-75477678D01*
X138691964Y-75668154D01*
X138644345Y-75763392D01*
X138596726Y-75811011D01*
X138501488Y-75858630D01*
X138311011Y-75858630D01*
X138215773Y-75811011D01*
X138168154Y-75763392D01*
X138120535Y-75668154D01*
X138120535Y-75477678D01*
X138168154Y-75382440D01*
X138215773Y-75334821D01*
X138311011Y-75287202D01*
%TO.C,D7*%
X139644345Y-56808630D02*
X139644345Y-55808630D01*
X139406250Y-55808630D01*
X139263392Y-55856250D01*
X139168154Y-55951488D01*
X139120535Y-56046726D01*
X139072916Y-56237202D01*
X139072916Y-56380059D01*
X139120535Y-56570535D01*
X139168154Y-56665773D01*
X139263392Y-56761011D01*
X139406250Y-56808630D01*
X139644345Y-56808630D01*
X138739583Y-55808630D02*
X138072916Y-55808630D01*
X138501488Y-56808630D01*
%TO.C,D6*%
X120594345Y-94908630D02*
X120594345Y-93908630D01*
X120356250Y-93908630D01*
X120213392Y-93956250D01*
X120118154Y-94051488D01*
X120070535Y-94146726D01*
X120022916Y-94337202D01*
X120022916Y-94480059D01*
X120070535Y-94670535D01*
X120118154Y-94765773D01*
X120213392Y-94861011D01*
X120356250Y-94908630D01*
X120594345Y-94908630D01*
X119165773Y-93908630D02*
X119356250Y-93908630D01*
X119451488Y-93956250D01*
X119499107Y-94003869D01*
X119594345Y-94146726D01*
X119641964Y-94337202D01*
X119641964Y-94718154D01*
X119594345Y-94813392D01*
X119546726Y-94861011D01*
X119451488Y-94908630D01*
X119261011Y-94908630D01*
X119165773Y-94861011D01*
X119118154Y-94813392D01*
X119070535Y-94718154D01*
X119070535Y-94480059D01*
X119118154Y-94384821D01*
X119165773Y-94337202D01*
X119261011Y-94289583D01*
X119451488Y-94289583D01*
X119546726Y-94337202D01*
X119594345Y-94384821D01*
X119641964Y-94480059D01*
%TO.C,D5*%
X120594345Y-75858630D02*
X120594345Y-74858630D01*
X120356250Y-74858630D01*
X120213392Y-74906250D01*
X120118154Y-75001488D01*
X120070535Y-75096726D01*
X120022916Y-75287202D01*
X120022916Y-75430059D01*
X120070535Y-75620535D01*
X120118154Y-75715773D01*
X120213392Y-75811011D01*
X120356250Y-75858630D01*
X120594345Y-75858630D01*
X119118154Y-74858630D02*
X119594345Y-74858630D01*
X119641964Y-75334821D01*
X119594345Y-75287202D01*
X119499107Y-75239583D01*
X119261011Y-75239583D01*
X119165773Y-75287202D01*
X119118154Y-75334821D01*
X119070535Y-75430059D01*
X119070535Y-75668154D01*
X119118154Y-75763392D01*
X119165773Y-75811011D01*
X119261011Y-75858630D01*
X119499107Y-75858630D01*
X119594345Y-75811011D01*
X119641964Y-75763392D01*
%TO.C,D4*%
X120594345Y-56808630D02*
X120594345Y-55808630D01*
X120356250Y-55808630D01*
X120213392Y-55856250D01*
X120118154Y-55951488D01*
X120070535Y-56046726D01*
X120022916Y-56237202D01*
X120022916Y-56380059D01*
X120070535Y-56570535D01*
X120118154Y-56665773D01*
X120213392Y-56761011D01*
X120356250Y-56808630D01*
X120594345Y-56808630D01*
X119165773Y-56141964D02*
X119165773Y-56808630D01*
X119403869Y-55761011D02*
X119641964Y-56475297D01*
X119022916Y-56475297D01*
%TO.C,D3*%
X101544345Y-94908630D02*
X101544345Y-93908630D01*
X101306250Y-93908630D01*
X101163392Y-93956250D01*
X101068154Y-94051488D01*
X101020535Y-94146726D01*
X100972916Y-94337202D01*
X100972916Y-94480059D01*
X101020535Y-94670535D01*
X101068154Y-94765773D01*
X101163392Y-94861011D01*
X101306250Y-94908630D01*
X101544345Y-94908630D01*
X100639583Y-93908630D02*
X100020535Y-93908630D01*
X100353869Y-94289583D01*
X100211011Y-94289583D01*
X100115773Y-94337202D01*
X100068154Y-94384821D01*
X100020535Y-94480059D01*
X100020535Y-94718154D01*
X100068154Y-94813392D01*
X100115773Y-94861011D01*
X100211011Y-94908630D01*
X100496726Y-94908630D01*
X100591964Y-94861011D01*
X100639583Y-94813392D01*
%TO.C,D2*%
X109481845Y-75858630D02*
X109481845Y-74858630D01*
X109243750Y-74858630D01*
X109100892Y-74906250D01*
X109005654Y-75001488D01*
X108958035Y-75096726D01*
X108910416Y-75287202D01*
X108910416Y-75430059D01*
X108958035Y-75620535D01*
X109005654Y-75715773D01*
X109100892Y-75811011D01*
X109243750Y-75858630D01*
X109481845Y-75858630D01*
X108529464Y-74953869D02*
X108481845Y-74906250D01*
X108386607Y-74858630D01*
X108148511Y-74858630D01*
X108053273Y-74906250D01*
X108005654Y-74953869D01*
X107958035Y-75049107D01*
X107958035Y-75144345D01*
X108005654Y-75287202D01*
X108577083Y-75858630D01*
X107958035Y-75858630D01*
%TO.C,D1*%
X101544345Y-56808630D02*
X101544345Y-55808630D01*
X101306250Y-55808630D01*
X101163392Y-55856250D01*
X101068154Y-55951488D01*
X101020535Y-56046726D01*
X100972916Y-56237202D01*
X100972916Y-56380059D01*
X101020535Y-56570535D01*
X101068154Y-56665773D01*
X101163392Y-56761011D01*
X101306250Y-56808630D01*
X101544345Y-56808630D01*
X100020535Y-56808630D02*
X100591964Y-56808630D01*
X100306250Y-56808630D02*
X100306250Y-55808630D01*
X100401488Y-55951488D01*
X100496726Y-56046726D01*
X100591964Y-56094345D01*
%TO.C,LED11*%
X159208214Y-92019380D02*
X159684404Y-92019380D01*
X159684404Y-91019380D01*
X158874880Y-91495571D02*
X158541547Y-91495571D01*
X158398690Y-92019380D02*
X158874880Y-92019380D01*
X158874880Y-91019380D01*
X158398690Y-91019380D01*
X157970119Y-92019380D02*
X157970119Y-91019380D01*
X157732023Y-91019380D01*
X157589166Y-91067000D01*
X157493928Y-91162238D01*
X157446309Y-91257476D01*
X157398690Y-91447952D01*
X157398690Y-91590809D01*
X157446309Y-91781285D01*
X157493928Y-91876523D01*
X157589166Y-91971761D01*
X157732023Y-92019380D01*
X157970119Y-92019380D01*
X156446309Y-92019380D02*
X157017738Y-92019380D01*
X156732023Y-92019380D02*
X156732023Y-91019380D01*
X156827261Y-91162238D01*
X156922500Y-91257476D01*
X157017738Y-91305095D01*
X155493928Y-92019380D02*
X156065357Y-92019380D01*
X155779642Y-92019380D02*
X155779642Y-91019380D01*
X155874880Y-91162238D01*
X155970119Y-91257476D01*
X156065357Y-91305095D01*
%TO.C,LED8*%
X140158214Y-92019380D02*
X140634404Y-92019380D01*
X140634404Y-91019380D01*
X139824880Y-91495571D02*
X139491547Y-91495571D01*
X139348690Y-92019380D02*
X139824880Y-92019380D01*
X139824880Y-91019380D01*
X139348690Y-91019380D01*
X138920119Y-92019380D02*
X138920119Y-91019380D01*
X138682023Y-91019380D01*
X138539166Y-91067000D01*
X138443928Y-91162238D01*
X138396309Y-91257476D01*
X138348690Y-91447952D01*
X138348690Y-91590809D01*
X138396309Y-91781285D01*
X138443928Y-91876523D01*
X138539166Y-91971761D01*
X138682023Y-92019380D01*
X138920119Y-92019380D01*
X137777261Y-91447952D02*
X137872500Y-91400333D01*
X137920119Y-91352714D01*
X137967738Y-91257476D01*
X137967738Y-91209857D01*
X137920119Y-91114619D01*
X137872500Y-91067000D01*
X137777261Y-91019380D01*
X137586785Y-91019380D01*
X137491547Y-91067000D01*
X137443928Y-91114619D01*
X137396309Y-91209857D01*
X137396309Y-91257476D01*
X137443928Y-91352714D01*
X137491547Y-91400333D01*
X137586785Y-91447952D01*
X137777261Y-91447952D01*
X137872500Y-91495571D01*
X137920119Y-91543190D01*
X137967738Y-91638428D01*
X137967738Y-91828904D01*
X137920119Y-91924142D01*
X137872500Y-91971761D01*
X137777261Y-92019380D01*
X137586785Y-92019380D01*
X137491547Y-91971761D01*
X137443928Y-91924142D01*
X137396309Y-91828904D01*
X137396309Y-91638428D01*
X137443928Y-91543190D01*
X137491547Y-91495571D01*
X137586785Y-91447952D01*
%TO.C,LED6*%
X121108214Y-111069380D02*
X121584404Y-111069380D01*
X121584404Y-110069380D01*
X120774880Y-110545571D02*
X120441547Y-110545571D01*
X120298690Y-111069380D02*
X120774880Y-111069380D01*
X120774880Y-110069380D01*
X120298690Y-110069380D01*
X119870119Y-111069380D02*
X119870119Y-110069380D01*
X119632023Y-110069380D01*
X119489166Y-110117000D01*
X119393928Y-110212238D01*
X119346309Y-110307476D01*
X119298690Y-110497952D01*
X119298690Y-110640809D01*
X119346309Y-110831285D01*
X119393928Y-110926523D01*
X119489166Y-111021761D01*
X119632023Y-111069380D01*
X119870119Y-111069380D01*
X118441547Y-110069380D02*
X118632023Y-110069380D01*
X118727261Y-110117000D01*
X118774880Y-110164619D01*
X118870119Y-110307476D01*
X118917738Y-110497952D01*
X118917738Y-110878904D01*
X118870119Y-110974142D01*
X118822500Y-111021761D01*
X118727261Y-111069380D01*
X118536785Y-111069380D01*
X118441547Y-111021761D01*
X118393928Y-110974142D01*
X118346309Y-110878904D01*
X118346309Y-110640809D01*
X118393928Y-110545571D01*
X118441547Y-110497952D01*
X118536785Y-110450333D01*
X118727261Y-110450333D01*
X118822500Y-110497952D01*
X118870119Y-110545571D01*
X118917738Y-110640809D01*
%TO.C,LED12*%
X159208214Y-111069380D02*
X159684404Y-111069380D01*
X159684404Y-110069380D01*
X158874880Y-110545571D02*
X158541547Y-110545571D01*
X158398690Y-111069380D02*
X158874880Y-111069380D01*
X158874880Y-110069380D01*
X158398690Y-110069380D01*
X157970119Y-111069380D02*
X157970119Y-110069380D01*
X157732023Y-110069380D01*
X157589166Y-110117000D01*
X157493928Y-110212238D01*
X157446309Y-110307476D01*
X157398690Y-110497952D01*
X157398690Y-110640809D01*
X157446309Y-110831285D01*
X157493928Y-110926523D01*
X157589166Y-111021761D01*
X157732023Y-111069380D01*
X157970119Y-111069380D01*
X156446309Y-111069380D02*
X157017738Y-111069380D01*
X156732023Y-111069380D02*
X156732023Y-110069380D01*
X156827261Y-110212238D01*
X156922500Y-110307476D01*
X157017738Y-110355095D01*
X156065357Y-110164619D02*
X156017738Y-110117000D01*
X155922500Y-110069380D01*
X155684404Y-110069380D01*
X155589166Y-110117000D01*
X155541547Y-110164619D01*
X155493928Y-110259857D01*
X155493928Y-110355095D01*
X155541547Y-110497952D01*
X156112976Y-111069380D01*
X155493928Y-111069380D01*
%TO.C,LED13*%
X178258214Y-72969380D02*
X178734404Y-72969380D01*
X178734404Y-71969380D01*
X177924880Y-72445571D02*
X177591547Y-72445571D01*
X177448690Y-72969380D02*
X177924880Y-72969380D01*
X177924880Y-71969380D01*
X177448690Y-71969380D01*
X177020119Y-72969380D02*
X177020119Y-71969380D01*
X176782023Y-71969380D01*
X176639166Y-72017000D01*
X176543928Y-72112238D01*
X176496309Y-72207476D01*
X176448690Y-72397952D01*
X176448690Y-72540809D01*
X176496309Y-72731285D01*
X176543928Y-72826523D01*
X176639166Y-72921761D01*
X176782023Y-72969380D01*
X177020119Y-72969380D01*
X175496309Y-72969380D02*
X176067738Y-72969380D01*
X175782023Y-72969380D02*
X175782023Y-71969380D01*
X175877261Y-72112238D01*
X175972500Y-72207476D01*
X176067738Y-72255095D01*
X175162976Y-71969380D02*
X174543928Y-71969380D01*
X174877261Y-72350333D01*
X174734404Y-72350333D01*
X174639166Y-72397952D01*
X174591547Y-72445571D01*
X174543928Y-72540809D01*
X174543928Y-72778904D01*
X174591547Y-72874142D01*
X174639166Y-72921761D01*
X174734404Y-72969380D01*
X175020119Y-72969380D01*
X175115357Y-72921761D01*
X175162976Y-72874142D01*
%TO.C,C2*%
X98464666Y-87394642D02*
X98512285Y-87442261D01*
X98655142Y-87489880D01*
X98750380Y-87489880D01*
X98893238Y-87442261D01*
X98988476Y-87347023D01*
X99036095Y-87251785D01*
X99083714Y-87061309D01*
X99083714Y-86918452D01*
X99036095Y-86727976D01*
X98988476Y-86632738D01*
X98893238Y-86537500D01*
X98750380Y-86489880D01*
X98655142Y-86489880D01*
X98512285Y-86537500D01*
X98464666Y-86585119D01*
X98083714Y-86585119D02*
X98036095Y-86537500D01*
X97940857Y-86489880D01*
X97702761Y-86489880D01*
X97607523Y-86537500D01*
X97559904Y-86585119D01*
X97512285Y-86680357D01*
X97512285Y-86775595D01*
X97559904Y-86918452D01*
X98131333Y-87489880D01*
X97512285Y-87489880D01*
%TO.C,C12*%
X156217857Y-106444642D02*
X156265476Y-106492261D01*
X156408333Y-106539880D01*
X156503571Y-106539880D01*
X156646428Y-106492261D01*
X156741666Y-106397023D01*
X156789285Y-106301785D01*
X156836904Y-106111309D01*
X156836904Y-105968452D01*
X156789285Y-105777976D01*
X156741666Y-105682738D01*
X156646428Y-105587500D01*
X156503571Y-105539880D01*
X156408333Y-105539880D01*
X156265476Y-105587500D01*
X156217857Y-105635119D01*
X155265476Y-106539880D02*
X155836904Y-106539880D01*
X155551190Y-106539880D02*
X155551190Y-105539880D01*
X155646428Y-105682738D01*
X155741666Y-105777976D01*
X155836904Y-105825595D01*
X154884523Y-105635119D02*
X154836904Y-105587500D01*
X154741666Y-105539880D01*
X154503571Y-105539880D01*
X154408333Y-105587500D01*
X154360714Y-105635119D01*
X154313095Y-105730357D01*
X154313095Y-105825595D01*
X154360714Y-105968452D01*
X154932142Y-106539880D01*
X154313095Y-106539880D01*
%TO.C,C5*%
X117641666Y-87394642D02*
X117689285Y-87442261D01*
X117832142Y-87489880D01*
X117927380Y-87489880D01*
X118070238Y-87442261D01*
X118165476Y-87347023D01*
X118213095Y-87251785D01*
X118260714Y-87061309D01*
X118260714Y-86918452D01*
X118213095Y-86727976D01*
X118165476Y-86632738D01*
X118070238Y-86537500D01*
X117927380Y-86489880D01*
X117832142Y-86489880D01*
X117689285Y-86537500D01*
X117641666Y-86585119D01*
X116736904Y-86489880D02*
X117213095Y-86489880D01*
X117260714Y-86966071D01*
X117213095Y-86918452D01*
X117117857Y-86870833D01*
X116879761Y-86870833D01*
X116784523Y-86918452D01*
X116736904Y-86966071D01*
X116689285Y-87061309D01*
X116689285Y-87299404D01*
X116736904Y-87394642D01*
X116784523Y-87442261D01*
X116879761Y-87489880D01*
X117117857Y-87489880D01*
X117213095Y-87442261D01*
X117260714Y-87394642D01*
%TO.C,LED3*%
X102058214Y-111069380D02*
X102534404Y-111069380D01*
X102534404Y-110069380D01*
X101724880Y-110545571D02*
X101391547Y-110545571D01*
X101248690Y-111069380D02*
X101724880Y-111069380D01*
X101724880Y-110069380D01*
X101248690Y-110069380D01*
X100820119Y-111069380D02*
X100820119Y-110069380D01*
X100582023Y-110069380D01*
X100439166Y-110117000D01*
X100343928Y-110212238D01*
X100296309Y-110307476D01*
X100248690Y-110497952D01*
X100248690Y-110640809D01*
X100296309Y-110831285D01*
X100343928Y-110926523D01*
X100439166Y-111021761D01*
X100582023Y-111069380D01*
X100820119Y-111069380D01*
X99915357Y-110069380D02*
X99296309Y-110069380D01*
X99629642Y-110450333D01*
X99486785Y-110450333D01*
X99391547Y-110497952D01*
X99343928Y-110545571D01*
X99296309Y-110640809D01*
X99296309Y-110878904D01*
X99343928Y-110974142D01*
X99391547Y-111021761D01*
X99486785Y-111069380D01*
X99772500Y-111069380D01*
X99867738Y-111021761D01*
X99915357Y-110974142D01*
%TO.C,C10*%
X156217857Y-68344642D02*
X156265476Y-68392261D01*
X156408333Y-68439880D01*
X156503571Y-68439880D01*
X156646428Y-68392261D01*
X156741666Y-68297023D01*
X156789285Y-68201785D01*
X156836904Y-68011309D01*
X156836904Y-67868452D01*
X156789285Y-67677976D01*
X156741666Y-67582738D01*
X156646428Y-67487500D01*
X156503571Y-67439880D01*
X156408333Y-67439880D01*
X156265476Y-67487500D01*
X156217857Y-67535119D01*
X155265476Y-68439880D02*
X155836904Y-68439880D01*
X155551190Y-68439880D02*
X155551190Y-67439880D01*
X155646428Y-67582738D01*
X155741666Y-67677976D01*
X155836904Y-67725595D01*
X154646428Y-67439880D02*
X154551190Y-67439880D01*
X154455952Y-67487500D01*
X154408333Y-67535119D01*
X154360714Y-67630357D01*
X154313095Y-67820833D01*
X154313095Y-68058928D01*
X154360714Y-68249404D01*
X154408333Y-68344642D01*
X154455952Y-68392261D01*
X154551190Y-68439880D01*
X154646428Y-68439880D01*
X154741666Y-68392261D01*
X154789285Y-68344642D01*
X154836904Y-68249404D01*
X154884523Y-68058928D01*
X154884523Y-67820833D01*
X154836904Y-67630357D01*
X154789285Y-67535119D01*
X154741666Y-67487500D01*
X154646428Y-67439880D01*
%TO.C,C13*%
X175267857Y-68344642D02*
X175315476Y-68392261D01*
X175458333Y-68439880D01*
X175553571Y-68439880D01*
X175696428Y-68392261D01*
X175791666Y-68297023D01*
X175839285Y-68201785D01*
X175886904Y-68011309D01*
X175886904Y-67868452D01*
X175839285Y-67677976D01*
X175791666Y-67582738D01*
X175696428Y-67487500D01*
X175553571Y-67439880D01*
X175458333Y-67439880D01*
X175315476Y-67487500D01*
X175267857Y-67535119D01*
X174315476Y-68439880D02*
X174886904Y-68439880D01*
X174601190Y-68439880D02*
X174601190Y-67439880D01*
X174696428Y-67582738D01*
X174791666Y-67677976D01*
X174886904Y-67725595D01*
X173982142Y-67439880D02*
X173363095Y-67439880D01*
X173696428Y-67820833D01*
X173553571Y-67820833D01*
X173458333Y-67868452D01*
X173410714Y-67916071D01*
X173363095Y-68011309D01*
X173363095Y-68249404D01*
X173410714Y-68344642D01*
X173458333Y-68392261D01*
X173553571Y-68439880D01*
X173839285Y-68439880D01*
X173934523Y-68392261D01*
X173982142Y-68344642D01*
%TO.C,LED7*%
X140158214Y-72969380D02*
X140634404Y-72969380D01*
X140634404Y-71969380D01*
X139824880Y-72445571D02*
X139491547Y-72445571D01*
X139348690Y-72969380D02*
X139824880Y-72969380D01*
X139824880Y-71969380D01*
X139348690Y-71969380D01*
X138920119Y-72969380D02*
X138920119Y-71969380D01*
X138682023Y-71969380D01*
X138539166Y-72017000D01*
X138443928Y-72112238D01*
X138396309Y-72207476D01*
X138348690Y-72397952D01*
X138348690Y-72540809D01*
X138396309Y-72731285D01*
X138443928Y-72826523D01*
X138539166Y-72921761D01*
X138682023Y-72969380D01*
X138920119Y-72969380D01*
X138015357Y-71969380D02*
X137348690Y-71969380D01*
X137777261Y-72969380D01*
%TO.C,LED9*%
X140158214Y-111069380D02*
X140634404Y-111069380D01*
X140634404Y-110069380D01*
X139824880Y-110545571D02*
X139491547Y-110545571D01*
X139348690Y-111069380D02*
X139824880Y-111069380D01*
X139824880Y-110069380D01*
X139348690Y-110069380D01*
X138920119Y-111069380D02*
X138920119Y-110069380D01*
X138682023Y-110069380D01*
X138539166Y-110117000D01*
X138443928Y-110212238D01*
X138396309Y-110307476D01*
X138348690Y-110497952D01*
X138348690Y-110640809D01*
X138396309Y-110831285D01*
X138443928Y-110926523D01*
X138539166Y-111021761D01*
X138682023Y-111069380D01*
X138920119Y-111069380D01*
X137872500Y-111069380D02*
X137682023Y-111069380D01*
X137586785Y-111021761D01*
X137539166Y-110974142D01*
X137443928Y-110831285D01*
X137396309Y-110640809D01*
X137396309Y-110259857D01*
X137443928Y-110164619D01*
X137491547Y-110117000D01*
X137586785Y-110069380D01*
X137777261Y-110069380D01*
X137872500Y-110117000D01*
X137920119Y-110164619D01*
X137967738Y-110259857D01*
X137967738Y-110497952D01*
X137920119Y-110593190D01*
X137872500Y-110640809D01*
X137777261Y-110688428D01*
X137586785Y-110688428D01*
X137491547Y-110640809D01*
X137443928Y-110593190D01*
X137396309Y-110497952D01*
%TO.C,C15*%
X175267857Y-106444642D02*
X175315476Y-106492261D01*
X175458333Y-106539880D01*
X175553571Y-106539880D01*
X175696428Y-106492261D01*
X175791666Y-106397023D01*
X175839285Y-106301785D01*
X175886904Y-106111309D01*
X175886904Y-105968452D01*
X175839285Y-105777976D01*
X175791666Y-105682738D01*
X175696428Y-105587500D01*
X175553571Y-105539880D01*
X175458333Y-105539880D01*
X175315476Y-105587500D01*
X175267857Y-105635119D01*
X174315476Y-106539880D02*
X174886904Y-106539880D01*
X174601190Y-106539880D02*
X174601190Y-105539880D01*
X174696428Y-105682738D01*
X174791666Y-105777976D01*
X174886904Y-105825595D01*
X173410714Y-105539880D02*
X173886904Y-105539880D01*
X173934523Y-106016071D01*
X173886904Y-105968452D01*
X173791666Y-105920833D01*
X173553571Y-105920833D01*
X173458333Y-105968452D01*
X173410714Y-106016071D01*
X173363095Y-106111309D01*
X173363095Y-106349404D01*
X173410714Y-106444642D01*
X173458333Y-106492261D01*
X173553571Y-106539880D01*
X173791666Y-106539880D01*
X173886904Y-106492261D01*
X173934523Y-106444642D01*
%TO.C,C8*%
X136691666Y-87394642D02*
X136739285Y-87442261D01*
X136882142Y-87489880D01*
X136977380Y-87489880D01*
X137120238Y-87442261D01*
X137215476Y-87347023D01*
X137263095Y-87251785D01*
X137310714Y-87061309D01*
X137310714Y-86918452D01*
X137263095Y-86727976D01*
X137215476Y-86632738D01*
X137120238Y-86537500D01*
X136977380Y-86489880D01*
X136882142Y-86489880D01*
X136739285Y-86537500D01*
X136691666Y-86585119D01*
X136120238Y-86918452D02*
X136215476Y-86870833D01*
X136263095Y-86823214D01*
X136310714Y-86727976D01*
X136310714Y-86680357D01*
X136263095Y-86585119D01*
X136215476Y-86537500D01*
X136120238Y-86489880D01*
X135929761Y-86489880D01*
X135834523Y-86537500D01*
X135786904Y-86585119D01*
X135739285Y-86680357D01*
X135739285Y-86727976D01*
X135786904Y-86823214D01*
X135834523Y-86870833D01*
X135929761Y-86918452D01*
X136120238Y-86918452D01*
X136215476Y-86966071D01*
X136263095Y-87013690D01*
X136310714Y-87108928D01*
X136310714Y-87299404D01*
X136263095Y-87394642D01*
X136215476Y-87442261D01*
X136120238Y-87489880D01*
X135929761Y-87489880D01*
X135834523Y-87442261D01*
X135786904Y-87394642D01*
X135739285Y-87299404D01*
X135739285Y-87108928D01*
X135786904Y-87013690D01*
X135834523Y-86966071D01*
X135929761Y-86918452D01*
%TO.C,LED14*%
X178258214Y-92019380D02*
X178734404Y-92019380D01*
X178734404Y-91019380D01*
X177924880Y-91495571D02*
X177591547Y-91495571D01*
X177448690Y-92019380D02*
X177924880Y-92019380D01*
X177924880Y-91019380D01*
X177448690Y-91019380D01*
X177020119Y-92019380D02*
X177020119Y-91019380D01*
X176782023Y-91019380D01*
X176639166Y-91067000D01*
X176543928Y-91162238D01*
X176496309Y-91257476D01*
X176448690Y-91447952D01*
X176448690Y-91590809D01*
X176496309Y-91781285D01*
X176543928Y-91876523D01*
X176639166Y-91971761D01*
X176782023Y-92019380D01*
X177020119Y-92019380D01*
X175496309Y-92019380D02*
X176067738Y-92019380D01*
X175782023Y-92019380D02*
X175782023Y-91019380D01*
X175877261Y-91162238D01*
X175972500Y-91257476D01*
X176067738Y-91305095D01*
X174639166Y-91352714D02*
X174639166Y-92019380D01*
X174877261Y-90971761D02*
X175115357Y-91686047D01*
X174496309Y-91686047D01*
%TO.C,LED5*%
X121108214Y-92019380D02*
X121584404Y-92019380D01*
X121584404Y-91019380D01*
X120774880Y-91495571D02*
X120441547Y-91495571D01*
X120298690Y-92019380D02*
X120774880Y-92019380D01*
X120774880Y-91019380D01*
X120298690Y-91019380D01*
X119870119Y-92019380D02*
X119870119Y-91019380D01*
X119632023Y-91019380D01*
X119489166Y-91067000D01*
X119393928Y-91162238D01*
X119346309Y-91257476D01*
X119298690Y-91447952D01*
X119298690Y-91590809D01*
X119346309Y-91781285D01*
X119393928Y-91876523D01*
X119489166Y-91971761D01*
X119632023Y-92019380D01*
X119870119Y-92019380D01*
X118393928Y-91019380D02*
X118870119Y-91019380D01*
X118917738Y-91495571D01*
X118870119Y-91447952D01*
X118774880Y-91400333D01*
X118536785Y-91400333D01*
X118441547Y-91447952D01*
X118393928Y-91495571D01*
X118346309Y-91590809D01*
X118346309Y-91828904D01*
X118393928Y-91924142D01*
X118441547Y-91971761D01*
X118536785Y-92019380D01*
X118774880Y-92019380D01*
X118870119Y-91971761D01*
X118917738Y-91924142D01*
%TO.C,LED10*%
X159208214Y-72969380D02*
X159684404Y-72969380D01*
X159684404Y-71969380D01*
X158874880Y-72445571D02*
X158541547Y-72445571D01*
X158398690Y-72969380D02*
X158874880Y-72969380D01*
X158874880Y-71969380D01*
X158398690Y-71969380D01*
X157970119Y-72969380D02*
X157970119Y-71969380D01*
X157732023Y-71969380D01*
X157589166Y-72017000D01*
X157493928Y-72112238D01*
X157446309Y-72207476D01*
X157398690Y-72397952D01*
X157398690Y-72540809D01*
X157446309Y-72731285D01*
X157493928Y-72826523D01*
X157589166Y-72921761D01*
X157732023Y-72969380D01*
X157970119Y-72969380D01*
X156446309Y-72969380D02*
X157017738Y-72969380D01*
X156732023Y-72969380D02*
X156732023Y-71969380D01*
X156827261Y-72112238D01*
X156922500Y-72207476D01*
X157017738Y-72255095D01*
X155827261Y-71969380D02*
X155732023Y-71969380D01*
X155636785Y-72017000D01*
X155589166Y-72064619D01*
X155541547Y-72159857D01*
X155493928Y-72350333D01*
X155493928Y-72588428D01*
X155541547Y-72778904D01*
X155589166Y-72874142D01*
X155636785Y-72921761D01*
X155732023Y-72969380D01*
X155827261Y-72969380D01*
X155922500Y-72921761D01*
X155970119Y-72874142D01*
X156017738Y-72778904D01*
X156065357Y-72588428D01*
X156065357Y-72350333D01*
X156017738Y-72159857D01*
X155970119Y-72064619D01*
X155922500Y-72017000D01*
X155827261Y-71969380D01*
%TO.C,C3*%
X98591666Y-106444642D02*
X98639285Y-106492261D01*
X98782142Y-106539880D01*
X98877380Y-106539880D01*
X99020238Y-106492261D01*
X99115476Y-106397023D01*
X99163095Y-106301785D01*
X99210714Y-106111309D01*
X99210714Y-105968452D01*
X99163095Y-105777976D01*
X99115476Y-105682738D01*
X99020238Y-105587500D01*
X98877380Y-105539880D01*
X98782142Y-105539880D01*
X98639285Y-105587500D01*
X98591666Y-105635119D01*
X98258333Y-105539880D02*
X97639285Y-105539880D01*
X97972619Y-105920833D01*
X97829761Y-105920833D01*
X97734523Y-105968452D01*
X97686904Y-106016071D01*
X97639285Y-106111309D01*
X97639285Y-106349404D01*
X97686904Y-106444642D01*
X97734523Y-106492261D01*
X97829761Y-106539880D01*
X98115476Y-106539880D01*
X98210714Y-106492261D01*
X98258333Y-106444642D01*
%TO.C,C14*%
X175267857Y-87394642D02*
X175315476Y-87442261D01*
X175458333Y-87489880D01*
X175553571Y-87489880D01*
X175696428Y-87442261D01*
X175791666Y-87347023D01*
X175839285Y-87251785D01*
X175886904Y-87061309D01*
X175886904Y-86918452D01*
X175839285Y-86727976D01*
X175791666Y-86632738D01*
X175696428Y-86537500D01*
X175553571Y-86489880D01*
X175458333Y-86489880D01*
X175315476Y-86537500D01*
X175267857Y-86585119D01*
X174315476Y-87489880D02*
X174886904Y-87489880D01*
X174601190Y-87489880D02*
X174601190Y-86489880D01*
X174696428Y-86632738D01*
X174791666Y-86727976D01*
X174886904Y-86775595D01*
X173458333Y-86823214D02*
X173458333Y-87489880D01*
X173696428Y-86442261D02*
X173934523Y-87156547D01*
X173315476Y-87156547D01*
%TO.C,LED1*%
X102058214Y-72969380D02*
X102534404Y-72969380D01*
X102534404Y-71969380D01*
X101724880Y-72445571D02*
X101391547Y-72445571D01*
X101248690Y-72969380D02*
X101724880Y-72969380D01*
X101724880Y-71969380D01*
X101248690Y-71969380D01*
X100820119Y-72969380D02*
X100820119Y-71969380D01*
X100582023Y-71969380D01*
X100439166Y-72017000D01*
X100343928Y-72112238D01*
X100296309Y-72207476D01*
X100248690Y-72397952D01*
X100248690Y-72540809D01*
X100296309Y-72731285D01*
X100343928Y-72826523D01*
X100439166Y-72921761D01*
X100582023Y-72969380D01*
X100820119Y-72969380D01*
X99296309Y-72969380D02*
X99867738Y-72969380D01*
X99582023Y-72969380D02*
X99582023Y-71969380D01*
X99677261Y-72112238D01*
X99772500Y-72207476D01*
X99867738Y-72255095D01*
%TO.C,C7*%
X136691666Y-68344642D02*
X136739285Y-68392261D01*
X136882142Y-68439880D01*
X136977380Y-68439880D01*
X137120238Y-68392261D01*
X137215476Y-68297023D01*
X137263095Y-68201785D01*
X137310714Y-68011309D01*
X137310714Y-67868452D01*
X137263095Y-67677976D01*
X137215476Y-67582738D01*
X137120238Y-67487500D01*
X136977380Y-67439880D01*
X136882142Y-67439880D01*
X136739285Y-67487500D01*
X136691666Y-67535119D01*
X136358333Y-67439880D02*
X135691666Y-67439880D01*
X136120238Y-68439880D01*
%TO.C,LED2*%
X102058214Y-92019380D02*
X102534404Y-92019380D01*
X102534404Y-91019380D01*
X101724880Y-91495571D02*
X101391547Y-91495571D01*
X101248690Y-92019380D02*
X101724880Y-92019380D01*
X101724880Y-91019380D01*
X101248690Y-91019380D01*
X100820119Y-92019380D02*
X100820119Y-91019380D01*
X100582023Y-91019380D01*
X100439166Y-91067000D01*
X100343928Y-91162238D01*
X100296309Y-91257476D01*
X100248690Y-91447952D01*
X100248690Y-91590809D01*
X100296309Y-91781285D01*
X100343928Y-91876523D01*
X100439166Y-91971761D01*
X100582023Y-92019380D01*
X100820119Y-92019380D01*
X99867738Y-91114619D02*
X99820119Y-91067000D01*
X99724880Y-91019380D01*
X99486785Y-91019380D01*
X99391547Y-91067000D01*
X99343928Y-91114619D01*
X99296309Y-91209857D01*
X99296309Y-91305095D01*
X99343928Y-91447952D01*
X99915357Y-92019380D01*
X99296309Y-92019380D01*
%TO.C,J1*%
X143648630Y-115554166D02*
X144362916Y-115554166D01*
X144505773Y-115506547D01*
X144601011Y-115411309D01*
X144648630Y-115268452D01*
X144648630Y-115173214D01*
X144648630Y-116554166D02*
X144648630Y-115982738D01*
X144648630Y-116268452D02*
X143648630Y-116268452D01*
X143791488Y-116173214D01*
X143886726Y-116077976D01*
X143934345Y-115982738D01*
%TO.C,LED4*%
X121108214Y-72969380D02*
X121584404Y-72969380D01*
X121584404Y-71969380D01*
X120774880Y-72445571D02*
X120441547Y-72445571D01*
X120298690Y-72969380D02*
X120774880Y-72969380D01*
X120774880Y-71969380D01*
X120298690Y-71969380D01*
X119870119Y-72969380D02*
X119870119Y-71969380D01*
X119632023Y-71969380D01*
X119489166Y-72017000D01*
X119393928Y-72112238D01*
X119346309Y-72207476D01*
X119298690Y-72397952D01*
X119298690Y-72540809D01*
X119346309Y-72731285D01*
X119393928Y-72826523D01*
X119489166Y-72921761D01*
X119632023Y-72969380D01*
X119870119Y-72969380D01*
X118441547Y-72302714D02*
X118441547Y-72969380D01*
X118679642Y-71921761D02*
X118917738Y-72636047D01*
X118298690Y-72636047D01*
%TO.C,LED15*%
X178258214Y-111069380D02*
X178734404Y-111069380D01*
X178734404Y-110069380D01*
X177924880Y-110545571D02*
X177591547Y-110545571D01*
X177448690Y-111069380D02*
X177924880Y-111069380D01*
X177924880Y-110069380D01*
X177448690Y-110069380D01*
X177020119Y-111069380D02*
X177020119Y-110069380D01*
X176782023Y-110069380D01*
X176639166Y-110117000D01*
X176543928Y-110212238D01*
X176496309Y-110307476D01*
X176448690Y-110497952D01*
X176448690Y-110640809D01*
X176496309Y-110831285D01*
X176543928Y-110926523D01*
X176639166Y-111021761D01*
X176782023Y-111069380D01*
X177020119Y-111069380D01*
X175496309Y-111069380D02*
X176067738Y-111069380D01*
X175782023Y-111069380D02*
X175782023Y-110069380D01*
X175877261Y-110212238D01*
X175972500Y-110307476D01*
X176067738Y-110355095D01*
X174591547Y-110069380D02*
X175067738Y-110069380D01*
X175115357Y-110545571D01*
X175067738Y-110497952D01*
X174972500Y-110450333D01*
X174734404Y-110450333D01*
X174639166Y-110497952D01*
X174591547Y-110545571D01*
X174543928Y-110640809D01*
X174543928Y-110878904D01*
X174591547Y-110974142D01*
X174639166Y-111021761D01*
X174734404Y-111069380D01*
X174972500Y-111069380D01*
X175067738Y-111021761D01*
X175115357Y-110974142D01*
%TO.C,C4*%
X117660416Y-68344642D02*
X117708035Y-68392261D01*
X117850892Y-68439880D01*
X117946130Y-68439880D01*
X118088988Y-68392261D01*
X118184226Y-68297023D01*
X118231845Y-68201785D01*
X118279464Y-68011309D01*
X118279464Y-67868452D01*
X118231845Y-67677976D01*
X118184226Y-67582738D01*
X118088988Y-67487500D01*
X117946130Y-67439880D01*
X117850892Y-67439880D01*
X117708035Y-67487500D01*
X117660416Y-67535119D01*
X116803273Y-67773214D02*
X116803273Y-68439880D01*
X117041369Y-67392261D02*
X117279464Y-68106547D01*
X116660416Y-68106547D01*
%TO.C,C1*%
X98591666Y-68344642D02*
X98639285Y-68392261D01*
X98782142Y-68439880D01*
X98877380Y-68439880D01*
X99020238Y-68392261D01*
X99115476Y-68297023D01*
X99163095Y-68201785D01*
X99210714Y-68011309D01*
X99210714Y-67868452D01*
X99163095Y-67677976D01*
X99115476Y-67582738D01*
X99020238Y-67487500D01*
X98877380Y-67439880D01*
X98782142Y-67439880D01*
X98639285Y-67487500D01*
X98591666Y-67535119D01*
X97639285Y-68439880D02*
X98210714Y-68439880D01*
X97925000Y-68439880D02*
X97925000Y-67439880D01*
X98020238Y-67582738D01*
X98115476Y-67677976D01*
X98210714Y-67725595D01*
%TO.C,C9*%
X136691666Y-106444642D02*
X136739285Y-106492261D01*
X136882142Y-106539880D01*
X136977380Y-106539880D01*
X137120238Y-106492261D01*
X137215476Y-106397023D01*
X137263095Y-106301785D01*
X137310714Y-106111309D01*
X137310714Y-105968452D01*
X137263095Y-105777976D01*
X137215476Y-105682738D01*
X137120238Y-105587500D01*
X136977380Y-105539880D01*
X136882142Y-105539880D01*
X136739285Y-105587500D01*
X136691666Y-105635119D01*
X136215476Y-106539880D02*
X136025000Y-106539880D01*
X135929761Y-106492261D01*
X135882142Y-106444642D01*
X135786904Y-106301785D01*
X135739285Y-106111309D01*
X135739285Y-105730357D01*
X135786904Y-105635119D01*
X135834523Y-105587500D01*
X135929761Y-105539880D01*
X136120238Y-105539880D01*
X136215476Y-105587500D01*
X136263095Y-105635119D01*
X136310714Y-105730357D01*
X136310714Y-105968452D01*
X136263095Y-106063690D01*
X136215476Y-106111309D01*
X136120238Y-106158928D01*
X135929761Y-106158928D01*
X135834523Y-106111309D01*
X135786904Y-106063690D01*
X135739285Y-105968452D01*
%TO.C,C11*%
X156217857Y-87394642D02*
X156265476Y-87442261D01*
X156408333Y-87489880D01*
X156503571Y-87489880D01*
X156646428Y-87442261D01*
X156741666Y-87347023D01*
X156789285Y-87251785D01*
X156836904Y-87061309D01*
X156836904Y-86918452D01*
X156789285Y-86727976D01*
X156741666Y-86632738D01*
X156646428Y-86537500D01*
X156503571Y-86489880D01*
X156408333Y-86489880D01*
X156265476Y-86537500D01*
X156217857Y-86585119D01*
X155265476Y-87489880D02*
X155836904Y-87489880D01*
X155551190Y-87489880D02*
X155551190Y-86489880D01*
X155646428Y-86632738D01*
X155741666Y-86727976D01*
X155836904Y-86775595D01*
X154313095Y-87489880D02*
X154884523Y-87489880D01*
X154598809Y-87489880D02*
X154598809Y-86489880D01*
X154694047Y-86632738D01*
X154789285Y-86727976D01*
X154884523Y-86775595D01*
%TO.C,C6*%
X117641666Y-106444642D02*
X117689285Y-106492261D01*
X117832142Y-106539880D01*
X117927380Y-106539880D01*
X118070238Y-106492261D01*
X118165476Y-106397023D01*
X118213095Y-106301785D01*
X118260714Y-106111309D01*
X118260714Y-105968452D01*
X118213095Y-105777976D01*
X118165476Y-105682738D01*
X118070238Y-105587500D01*
X117927380Y-105539880D01*
X117832142Y-105539880D01*
X117689285Y-105587500D01*
X117641666Y-105635119D01*
X116784523Y-105539880D02*
X116975000Y-105539880D01*
X117070238Y-105587500D01*
X117117857Y-105635119D01*
X117213095Y-105777976D01*
X117260714Y-105968452D01*
X117260714Y-106349404D01*
X117213095Y-106444642D01*
X117165476Y-106492261D01*
X117070238Y-106539880D01*
X116879761Y-106539880D01*
X116784523Y-106492261D01*
X116736904Y-106444642D01*
X116689285Y-106349404D01*
X116689285Y-106111309D01*
X116736904Y-106016071D01*
X116784523Y-105968452D01*
X116879761Y-105920833D01*
X117070238Y-105920833D01*
X117165476Y-105968452D01*
X117213095Y-106016071D01*
X117260714Y-106111309D01*
D11*
%TO.C,D15*%
X178725000Y-93456250D02*
X182625000Y-93456250D01*
X178725000Y-95456250D02*
X178725000Y-93456250D01*
X178725000Y-95456250D02*
X182625000Y-95456250D01*
%TO.C,D14*%
X178725000Y-74406250D02*
X182625000Y-74406250D01*
X178725000Y-76406250D02*
X178725000Y-74406250D01*
X178725000Y-76406250D02*
X182625000Y-76406250D01*
%TO.C,D13*%
X178725000Y-55356250D02*
X182625000Y-55356250D01*
X178725000Y-57356250D02*
X178725000Y-55356250D01*
X178725000Y-57356250D02*
X182625000Y-57356250D01*
%TO.C,D12*%
X159675000Y-93456250D02*
X163575000Y-93456250D01*
X159675000Y-95456250D02*
X159675000Y-93456250D01*
X159675000Y-95456250D02*
X163575000Y-95456250D01*
%TO.C,D11*%
X159675000Y-74406250D02*
X163575000Y-74406250D01*
X159675000Y-76406250D02*
X159675000Y-74406250D01*
X159675000Y-76406250D02*
X163575000Y-76406250D01*
%TO.C,D10*%
X159675000Y-55356250D02*
X163575000Y-55356250D01*
X159675000Y-57356250D02*
X159675000Y-55356250D01*
X159675000Y-57356250D02*
X163575000Y-57356250D01*
%TO.C,D9*%
X140625000Y-93456250D02*
X144525000Y-93456250D01*
X140625000Y-95456250D02*
X140625000Y-93456250D01*
X140625000Y-95456250D02*
X144525000Y-95456250D01*
%TO.C,D8*%
X140625000Y-74406250D02*
X144525000Y-74406250D01*
X140625000Y-76406250D02*
X140625000Y-74406250D01*
X140625000Y-76406250D02*
X144525000Y-76406250D01*
%TO.C,D7*%
X140625000Y-55356250D02*
X144525000Y-55356250D01*
X140625000Y-57356250D02*
X140625000Y-55356250D01*
X140625000Y-57356250D02*
X144525000Y-57356250D01*
%TO.C,D6*%
X121575000Y-93456250D02*
X125475000Y-93456250D01*
X121575000Y-95456250D02*
X121575000Y-93456250D01*
X121575000Y-95456250D02*
X125475000Y-95456250D01*
%TO.C,D5*%
X121575000Y-74406250D02*
X125475000Y-74406250D01*
X121575000Y-76406250D02*
X121575000Y-74406250D01*
X121575000Y-76406250D02*
X125475000Y-76406250D01*
%TO.C,D4*%
X121575000Y-55356250D02*
X125475000Y-55356250D01*
X121575000Y-57356250D02*
X121575000Y-55356250D01*
X121575000Y-57356250D02*
X125475000Y-57356250D01*
%TO.C,D3*%
X102525000Y-93456250D02*
X106425000Y-93456250D01*
X102525000Y-95456250D02*
X102525000Y-93456250D01*
X102525000Y-95456250D02*
X106425000Y-95456250D01*
%TO.C,D2*%
X102525000Y-74406250D02*
X106425000Y-74406250D01*
X102525000Y-76406250D02*
X102525000Y-74406250D01*
X102525000Y-76406250D02*
X106425000Y-76406250D01*
%TO.C,D1*%
X102525000Y-55356250D02*
X106425000Y-55356250D01*
X102525000Y-57356250D02*
X102525000Y-55356250D01*
X102525000Y-57356250D02*
X106425000Y-57356250D01*
%TO.C,MX15*%
X176875000Y-96287500D02*
G75*
G03*
X174875000Y-98287500I-1J-1999999D01*
G01*
X180775000Y-100487500D02*
G75*
G03*
X178775000Y-102487500I-1J-1999999D01*
G01*
X180775000Y-100487500D02*
X185875000Y-100487500D01*
X176875000Y-96287500D02*
X181975000Y-96287500D01*
%TO.C,MX7*%
X138775000Y-58187500D02*
G75*
G03*
X136775000Y-60187500I-1J-1999999D01*
G01*
X142675000Y-62387500D02*
G75*
G03*
X140675000Y-64387500I-1J-1999999D01*
G01*
X142675000Y-62387500D02*
X147775000Y-62387500D01*
X138775000Y-58187500D02*
X143875000Y-58187500D01*
%TO.C,MX5*%
X119725000Y-77237500D02*
G75*
G03*
X117725000Y-79237500I-1J-1999999D01*
G01*
X123625000Y-81437500D02*
G75*
G03*
X121625000Y-83437500I-1J-1999999D01*
G01*
X123625000Y-81437500D02*
X128725000Y-81437500D01*
X119725000Y-77237500D02*
X124825000Y-77237500D01*
%TO.C,MX14*%
X180775000Y-81437500D02*
G75*
G03*
X178775000Y-83437500I-1J-1999999D01*
G01*
X176875000Y-77237500D02*
G75*
G03*
X174875000Y-79237500I-1J-1999999D01*
G01*
X180775000Y-81437500D02*
X185875000Y-81437500D01*
X176875000Y-77237500D02*
X181975000Y-77237500D01*
%TO.C,MX4*%
X123625000Y-62387500D02*
G75*
G03*
X121625000Y-64387500I-1J-1999999D01*
G01*
X119725000Y-58187500D02*
G75*
G03*
X117725000Y-60187500I-1J-1999999D01*
G01*
X123625000Y-62387500D02*
X128725000Y-62387500D01*
X119725000Y-58187500D02*
X124825000Y-58187500D01*
%TO.C,MX6*%
X119725000Y-96287500D02*
G75*
G03*
X117725000Y-98287500I-1J-1999999D01*
G01*
X123625000Y-100487500D02*
G75*
G03*
X121625000Y-102487500I-1J-1999999D01*
G01*
X119725000Y-96287500D02*
X124825000Y-96287500D01*
X123625000Y-100487500D02*
X128725000Y-100487500D01*
%TO.C,MX11*%
X161725000Y-81437500D02*
G75*
G03*
X159725000Y-83437500I-1J-1999999D01*
G01*
X157825000Y-77237500D02*
G75*
G03*
X155825000Y-79237500I-1J-1999999D01*
G01*
X161725000Y-81437500D02*
X166825000Y-81437500D01*
X157825000Y-77237500D02*
X162925000Y-77237500D01*
%TO.C,MX2*%
X104575000Y-81437500D02*
G75*
G03*
X102575000Y-83437500I-1J-1999999D01*
G01*
X100675000Y-77237500D02*
G75*
G03*
X98675000Y-79237500I-1J-1999999D01*
G01*
X104575000Y-81437500D02*
X109675000Y-81437500D01*
X100675000Y-77237500D02*
X105775000Y-77237500D01*
%TO.C,MX3*%
X100675000Y-96287500D02*
G75*
G03*
X98675000Y-98287500I-1J-1999999D01*
G01*
X104575000Y-100487500D02*
G75*
G03*
X102575000Y-102487500I-1J-1999999D01*
G01*
X100675000Y-96287500D02*
X105775000Y-96287500D01*
X104575000Y-100487500D02*
X109675000Y-100487500D01*
%TO.C,MX10*%
X157825000Y-58187500D02*
G75*
G03*
X155825000Y-60187500I-1J-1999999D01*
G01*
X161725000Y-62387500D02*
G75*
G03*
X159725000Y-64387500I-1J-1999999D01*
G01*
X157825000Y-58187500D02*
X162925000Y-58187500D01*
X161725000Y-62387500D02*
X166825000Y-62387500D01*
%TO.C,MX9*%
X138775000Y-96287500D02*
G75*
G03*
X136775000Y-98287500I-1J-1999999D01*
G01*
X142675000Y-100487500D02*
G75*
G03*
X140675000Y-102487500I-1J-1999999D01*
G01*
X142675000Y-100487500D02*
X147775000Y-100487500D01*
X138775000Y-96287500D02*
X143875000Y-96287500D01*
%TO.C,MX8*%
X142675000Y-81437500D02*
G75*
G03*
X140675000Y-83437500I-1J-1999999D01*
G01*
X138775000Y-77237500D02*
G75*
G03*
X136775000Y-79237500I-1J-1999999D01*
G01*
X138775000Y-77237500D02*
X143875000Y-77237500D01*
X142675000Y-81437500D02*
X147775000Y-81437500D01*
%TO.C,MX13*%
X176875000Y-58187500D02*
X181975000Y-58187500D01*
X180775000Y-62387500D02*
X185875000Y-62387500D01*
X180775000Y-62387500D02*
G75*
G03*
X178775000Y-64387500I-1J-1999999D01*
G01*
X176875000Y-58187500D02*
G75*
G03*
X174875000Y-60187500I-1J-1999999D01*
G01*
%TO.C,MX1*%
X104575000Y-62387500D02*
G75*
G03*
X102575000Y-64387500I-1J-1999999D01*
G01*
X100675000Y-58187500D02*
G75*
G03*
X98675000Y-60187500I-1J-1999999D01*
G01*
X100675000Y-58187500D02*
X105775000Y-58187500D01*
X104575000Y-62387500D02*
X109675000Y-62387500D01*
%TO.C,MX12*%
X157825000Y-96287500D02*
G75*
G03*
X155825000Y-98287500I-1J-1999999D01*
G01*
X161725000Y-100487500D02*
G75*
G03*
X159725000Y-102487500I-1J-1999999D01*
G01*
X157825000Y-96287500D02*
X162925000Y-96287500D01*
X161725000Y-100487500D02*
X166825000Y-100487500D01*
%TO.C,LED11*%
X165725000Y-90717500D02*
X164825000Y-90717500D01*
X165725000Y-89717500D02*
X165725000Y-90717500D01*
%TO.C,LED8*%
X146675000Y-90717500D02*
X145775000Y-90717500D01*
X146675000Y-89717500D02*
X146675000Y-90717500D01*
%TO.C,LED6*%
X127625000Y-109767500D02*
X126725000Y-109767500D01*
X127625000Y-108767500D02*
X127625000Y-109767500D01*
%TO.C,LED12*%
X165725000Y-108767500D02*
X165725000Y-109767500D01*
X165725000Y-109767500D02*
X164825000Y-109767500D01*
%TO.C,LED13*%
X184775000Y-70667500D02*
X184775000Y-71667500D01*
X184775000Y-71667500D02*
X183875000Y-71667500D01*
%TO.C,C2*%
X98438580Y-88977500D02*
X98157420Y-88977500D01*
X98438580Y-87957500D02*
X98157420Y-87957500D01*
%TO.C,C12*%
X155715580Y-107007500D02*
X155434420Y-107007500D01*
X155715580Y-108027500D02*
X155434420Y-108027500D01*
%TO.C,C5*%
X117615580Y-88977500D02*
X117334420Y-88977500D01*
X117615580Y-87957500D02*
X117334420Y-87957500D01*
%TO.C,LED3*%
X108575000Y-108767500D02*
X108575000Y-109767500D01*
X108575000Y-109767500D02*
X107675000Y-109767500D01*
%TO.C,C10*%
X155715580Y-68907500D02*
X155434420Y-68907500D01*
X155715580Y-69927500D02*
X155434420Y-69927500D01*
%TO.C,C13*%
X174765580Y-69927500D02*
X174484420Y-69927500D01*
X174765580Y-68907500D02*
X174484420Y-68907500D01*
%TO.C,LED7*%
X146675000Y-71667500D02*
X145775000Y-71667500D01*
X146675000Y-70667500D02*
X146675000Y-71667500D01*
%TO.C,LED9*%
X146675000Y-109767500D02*
X145775000Y-109767500D01*
X146675000Y-108767500D02*
X146675000Y-109767500D01*
%TO.C,C15*%
X174765580Y-108027500D02*
X174484420Y-108027500D01*
X174765580Y-107007500D02*
X174484420Y-107007500D01*
%TO.C,C8*%
X136665580Y-88977500D02*
X136384420Y-88977500D01*
X136665580Y-87957500D02*
X136384420Y-87957500D01*
%TO.C,LED14*%
X184775000Y-90717500D02*
X183875000Y-90717500D01*
X184775000Y-89717500D02*
X184775000Y-90717500D01*
%TO.C,LED5*%
X127625000Y-89717500D02*
X127625000Y-90717500D01*
X127625000Y-90717500D02*
X126725000Y-90717500D01*
%TO.C,LED10*%
X165725000Y-71667500D02*
X164825000Y-71667500D01*
X165725000Y-70667500D02*
X165725000Y-71667500D01*
%TO.C,C3*%
X98565580Y-107007500D02*
X98284420Y-107007500D01*
X98565580Y-108027500D02*
X98284420Y-108027500D01*
%TO.C,C14*%
X174765580Y-88977500D02*
X174484420Y-88977500D01*
X174765580Y-87957500D02*
X174484420Y-87957500D01*
%TO.C,LED1*%
X108575000Y-71667500D02*
X107675000Y-71667500D01*
X108575000Y-70667500D02*
X108575000Y-71667500D01*
%TO.C,C7*%
X136665580Y-69927500D02*
X136384420Y-69927500D01*
X136665580Y-68907500D02*
X136384420Y-68907500D01*
%TO.C,LED2*%
X108575000Y-90717500D02*
X107675000Y-90717500D01*
X108575000Y-89717500D02*
X108575000Y-90717500D01*
%TO.C,J1*%
X146526250Y-114557500D02*
X145196250Y-114557500D01*
X147796250Y-117217500D02*
X173256250Y-117217500D01*
X147796250Y-114557500D02*
X173256250Y-114557500D01*
X145196250Y-114557500D02*
X145196250Y-115887500D01*
X173256250Y-114557500D02*
X173256250Y-117217500D01*
X147796250Y-114557500D02*
X147796250Y-117217500D01*
%TO.C,LED4*%
X127625000Y-71667500D02*
X126725000Y-71667500D01*
X127625000Y-70667500D02*
X127625000Y-71667500D01*
%TO.C,LED15*%
X184775000Y-109767500D02*
X183875000Y-109767500D01*
X184775000Y-108767500D02*
X184775000Y-109767500D01*
%TO.C,C4*%
X117634330Y-68907500D02*
X117353170Y-68907500D01*
X117634330Y-69927500D02*
X117353170Y-69927500D01*
%TO.C,C1*%
X98565580Y-69927500D02*
X98284420Y-69927500D01*
X98565580Y-68907500D02*
X98284420Y-68907500D01*
%TO.C,C9*%
X136665580Y-108027500D02*
X136384420Y-108027500D01*
X136665580Y-107007500D02*
X136384420Y-107007500D01*
%TO.C,C11*%
X155715580Y-87957500D02*
X155434420Y-87957500D01*
X155715580Y-88977500D02*
X155434420Y-88977500D01*
%TO.C,C6*%
X117615580Y-108027500D02*
X117334420Y-108027500D01*
X117615580Y-107007500D02*
X117334420Y-107007500D01*
%TD*%
%LPC*%
D12*
%TO.C,H3*%
X185737500Y-74612500D03*
%TD*%
%TO.C,H1*%
X100012500Y-74612500D03*
%TD*%
D13*
%TO.C,D15*%
X182625000Y-94456250D03*
X179325000Y-94456250D03*
%TD*%
%TO.C,D14*%
X182625000Y-75406250D03*
X179325000Y-75406250D03*
%TD*%
%TO.C,D13*%
X182625000Y-56356250D03*
X179325000Y-56356250D03*
%TD*%
%TO.C,D12*%
X163575000Y-94456250D03*
X160275000Y-94456250D03*
%TD*%
%TO.C,D11*%
X163575000Y-75406250D03*
X160275000Y-75406250D03*
%TD*%
%TO.C,D10*%
X163575000Y-56356250D03*
X160275000Y-56356250D03*
%TD*%
%TO.C,D9*%
X144525000Y-94456250D03*
X141225000Y-94456250D03*
%TD*%
%TO.C,D8*%
X144525000Y-75406250D03*
X141225000Y-75406250D03*
%TD*%
%TO.C,D7*%
X144525000Y-56356250D03*
X141225000Y-56356250D03*
%TD*%
%TO.C,D6*%
X125475000Y-94456250D03*
X122175000Y-94456250D03*
%TD*%
%TO.C,D5*%
X125475000Y-75406250D03*
X122175000Y-75406250D03*
%TD*%
%TO.C,D4*%
X125475000Y-56356250D03*
X122175000Y-56356250D03*
%TD*%
%TO.C,D3*%
X106425000Y-94456250D03*
X103125000Y-94456250D03*
%TD*%
%TO.C,D2*%
X106425000Y-75406250D03*
X103125000Y-75406250D03*
%TD*%
%TO.C,D1*%
X106425000Y-56356250D03*
X103125000Y-56356250D03*
%TD*%
D14*
%TO.C,MX15*%
X186817000Y-98107500D03*
X173890000Y-100647500D03*
D15*
X186055000Y-103187500D03*
D16*
X180975000Y-103187500D03*
D15*
X175895000Y-103187500D03*
D17*
X177165000Y-100647500D03*
X183515000Y-98107500D03*
%TD*%
D14*
%TO.C,MX7*%
X148717000Y-60007500D03*
X135790000Y-62547500D03*
D16*
X142875000Y-65087500D03*
D17*
X139065000Y-62547500D03*
D15*
X147955000Y-65087500D03*
X137795000Y-65087500D03*
D17*
X145415000Y-60007500D03*
%TD*%
D14*
%TO.C,MX5*%
X129667000Y-79057500D03*
X116740000Y-81597500D03*
D17*
X126365000Y-79057500D03*
D15*
X118745000Y-84137500D03*
D17*
X120015000Y-81597500D03*
D15*
X128905000Y-84137500D03*
D16*
X123825000Y-84137500D03*
%TD*%
D12*
%TO.C,H2*%
X98425000Y-117475000D03*
%TD*%
D14*
%TO.C,MX14*%
X186817000Y-79057500D03*
X173890000Y-81597500D03*
D17*
X177165000Y-81597500D03*
D15*
X175895000Y-84137500D03*
X186055000Y-84137500D03*
D17*
X183515000Y-79057500D03*
D16*
X180975000Y-84137500D03*
%TD*%
D14*
%TO.C,MX4*%
X129667000Y-60007500D03*
X116740000Y-62547500D03*
D15*
X128905000Y-65087500D03*
D17*
X120015000Y-62547500D03*
D15*
X118745000Y-65087500D03*
D17*
X126365000Y-60007500D03*
D16*
X123825000Y-65087500D03*
%TD*%
D14*
%TO.C,MX6*%
X129667000Y-98107500D03*
X116740000Y-100647500D03*
D17*
X126365000Y-98107500D03*
X120015000Y-100647500D03*
D15*
X118745000Y-103187500D03*
D16*
X123825000Y-103187500D03*
D15*
X128905000Y-103187500D03*
%TD*%
D14*
%TO.C,MX11*%
X167767000Y-79057500D03*
X154840000Y-81597500D03*
D17*
X164465000Y-79057500D03*
D15*
X156845000Y-84137500D03*
D16*
X161925000Y-84137500D03*
D17*
X158115000Y-81597500D03*
D15*
X167005000Y-84137500D03*
%TD*%
D12*
%TO.C,H4*%
X187325000Y-117475000D03*
%TD*%
D14*
%TO.C,MX2*%
X110617000Y-79057500D03*
X97690000Y-81597500D03*
D17*
X100965000Y-81597500D03*
D15*
X109855000Y-84137500D03*
D16*
X104775000Y-84137500D03*
D15*
X99695000Y-84137500D03*
D17*
X107315000Y-79057500D03*
%TD*%
D14*
%TO.C,MX3*%
X110617000Y-98107500D03*
X97690000Y-100647500D03*
D17*
X107315000Y-98107500D03*
D15*
X99695000Y-103187500D03*
X109855000Y-103187500D03*
D17*
X100965000Y-100647500D03*
D16*
X104775000Y-103187500D03*
%TD*%
D14*
%TO.C,MX10*%
X167767000Y-60007500D03*
X154840000Y-62547500D03*
D17*
X164465000Y-60007500D03*
D16*
X161925000Y-65087500D03*
D15*
X167005000Y-65087500D03*
D17*
X158115000Y-62547500D03*
D15*
X156845000Y-65087500D03*
%TD*%
D14*
%TO.C,MX9*%
X148717000Y-98107500D03*
X135790000Y-100647500D03*
D17*
X145415000Y-98107500D03*
X139065000Y-100647500D03*
D15*
X147955000Y-103187500D03*
X137795000Y-103187500D03*
D16*
X142875000Y-103187500D03*
%TD*%
D14*
%TO.C,MX8*%
X148717000Y-79057500D03*
X135790000Y-81597500D03*
D15*
X147955000Y-84137500D03*
X137795000Y-84137500D03*
D17*
X145415000Y-79057500D03*
D16*
X142875000Y-84137500D03*
D17*
X139065000Y-81597500D03*
%TD*%
%TO.C,MX13*%
X177165000Y-62547500D03*
X183515000Y-60007500D03*
D15*
X186055000Y-65087500D03*
D16*
X180975000Y-65087500D03*
D15*
X175895000Y-65087500D03*
D14*
X173890000Y-62547500D03*
X186817000Y-60007500D03*
%TD*%
%TO.C,MX1*%
X110617000Y-60007500D03*
X97690000Y-62547500D03*
D16*
X104775000Y-65087500D03*
D17*
X100965000Y-62547500D03*
X107315000Y-60007500D03*
D15*
X99695000Y-65087500D03*
X109855000Y-65087500D03*
%TD*%
D14*
%TO.C,MX12*%
X167767000Y-98107500D03*
X154840000Y-100647500D03*
D16*
X161925000Y-103187500D03*
D17*
X164465000Y-98107500D03*
D15*
X167005000Y-103187500D03*
X156845000Y-103187500D03*
D17*
X158115000Y-100647500D03*
%TD*%
D18*
%TO.C,LED11*%
X164650000Y-89967500D03*
D19*
X164650000Y-88467500D03*
X159200000Y-89967500D03*
X159200000Y-88467500D03*
%TD*%
D18*
%TO.C,LED8*%
X145600000Y-89967500D03*
D19*
X145600000Y-88467500D03*
X140150000Y-89967500D03*
X140150000Y-88467500D03*
%TD*%
D18*
%TO.C,LED6*%
X126550000Y-109017500D03*
D19*
X126550000Y-107517500D03*
X121100000Y-109017500D03*
X121100000Y-107517500D03*
%TD*%
D18*
%TO.C,LED12*%
X164650000Y-109017500D03*
D19*
X164650000Y-107517500D03*
X159200000Y-109017500D03*
X159200000Y-107517500D03*
%TD*%
D18*
%TO.C,LED13*%
X183700000Y-70917500D03*
D19*
X183700000Y-69417500D03*
X178250000Y-70917500D03*
X178250000Y-69417500D03*
%TD*%
D20*
%TO.C,C2*%
X97523000Y-88467500D03*
X99073000Y-88467500D03*
%TD*%
%TO.C,C12*%
X154800000Y-107517500D03*
X156350000Y-107517500D03*
%TD*%
%TO.C,C5*%
X116700000Y-88467500D03*
X118250000Y-88467500D03*
%TD*%
D18*
%TO.C,LED3*%
X107500000Y-109017500D03*
D19*
X107500000Y-107517500D03*
X102050000Y-109017500D03*
X102050000Y-107517500D03*
%TD*%
D20*
%TO.C,C10*%
X154800000Y-69417500D03*
X156350000Y-69417500D03*
%TD*%
%TO.C,C13*%
X173850000Y-69417500D03*
X175400000Y-69417500D03*
%TD*%
D18*
%TO.C,LED7*%
X145600000Y-70917500D03*
D19*
X145600000Y-69417500D03*
X140150000Y-70917500D03*
X140150000Y-69417500D03*
%TD*%
D18*
%TO.C,LED9*%
X145600000Y-109017500D03*
D19*
X145600000Y-107517500D03*
X140150000Y-109017500D03*
X140150000Y-107517500D03*
%TD*%
D20*
%TO.C,C15*%
X173850000Y-107517500D03*
X175400000Y-107517500D03*
%TD*%
%TO.C,C8*%
X135750000Y-88467500D03*
X137300000Y-88467500D03*
%TD*%
D18*
%TO.C,LED14*%
X183700000Y-89967500D03*
D19*
X183700000Y-88467500D03*
X178250000Y-89967500D03*
X178250000Y-88467500D03*
%TD*%
D18*
%TO.C,LED5*%
X126550000Y-89967500D03*
D19*
X126550000Y-88467500D03*
X121100000Y-89967500D03*
X121100000Y-88467500D03*
%TD*%
D18*
%TO.C,LED10*%
X164650000Y-70917500D03*
D19*
X164650000Y-69417500D03*
X159200000Y-70917500D03*
X159200000Y-69417500D03*
%TD*%
D20*
%TO.C,C3*%
X97650000Y-107517500D03*
X99200000Y-107517500D03*
%TD*%
%TO.C,C14*%
X173850000Y-88467500D03*
X175400000Y-88467500D03*
%TD*%
D18*
%TO.C,LED1*%
X107500000Y-70917500D03*
D19*
X107500000Y-69417500D03*
X102050000Y-70917500D03*
X102050000Y-69417500D03*
%TD*%
D20*
%TO.C,C7*%
X135750000Y-69417500D03*
X137300000Y-69417500D03*
%TD*%
D18*
%TO.C,LED2*%
X107500000Y-89967500D03*
D19*
X107500000Y-88467500D03*
X102050000Y-89967500D03*
X102050000Y-88467500D03*
%TD*%
D21*
%TO.C,J1*%
X171926250Y-115887500D03*
X169386250Y-115887500D03*
X166846250Y-115887500D03*
X164306250Y-115887500D03*
X161766250Y-115887500D03*
X159226250Y-115887500D03*
X156686250Y-115887500D03*
X154146250Y-115887500D03*
X151606250Y-115887500D03*
X149066250Y-115887500D03*
D22*
X146526250Y-115887500D03*
%TD*%
D18*
%TO.C,LED4*%
X126550000Y-70917500D03*
D19*
X126550000Y-69417500D03*
X121100000Y-70917500D03*
X121100000Y-69417500D03*
%TD*%
D18*
%TO.C,LED15*%
X183700000Y-109017500D03*
D19*
X183700000Y-107517500D03*
X178250000Y-109017500D03*
X178250000Y-107517500D03*
%TD*%
D20*
%TO.C,C4*%
X116718750Y-69417500D03*
X118268750Y-69417500D03*
%TD*%
%TO.C,C1*%
X97650000Y-69417500D03*
X99200000Y-69417500D03*
%TD*%
%TO.C,C9*%
X135750000Y-107517500D03*
X137300000Y-107517500D03*
%TD*%
%TO.C,C11*%
X154800000Y-88467500D03*
X156350000Y-88467500D03*
%TD*%
%TO.C,C6*%
X116700000Y-107517500D03*
X118250000Y-107517500D03*
%TD*%
D23*
X134937500Y-111125000D03*
X133350000Y-54768750D03*
X132556250Y-73818750D03*
X134143750Y-111918750D03*
X131762500Y-92868750D03*
X133350000Y-112712500D03*
X97631250Y-98425000D03*
X172243750Y-51593750D03*
X172243750Y-113506250D03*
X97631250Y-79375000D03*
X98425000Y-51593750D03*
X97631250Y-60325000D03*
X171450000Y-112712500D03*
X117475000Y-52387500D03*
X116681250Y-60325000D03*
X116681250Y-79375000D03*
X171450000Y-52387500D03*
X116681250Y-98425000D03*
X135731250Y-60325000D03*
X135731250Y-79375000D03*
X170656250Y-53181250D03*
X136525000Y-53181250D03*
X170656250Y-111918750D03*
X135731250Y-98425000D03*
X169862500Y-53975000D03*
X154781250Y-79375000D03*
X154781250Y-98425000D03*
X155575000Y-53975000D03*
X169642785Y-111125000D03*
X154781250Y-60325000D03*
X169862500Y-63500000D03*
X169862500Y-82550000D03*
X168849035Y-110331250D03*
X169862500Y-101600000D03*
X138545000Y-69417500D03*
X100445000Y-88467500D03*
X100445000Y-107517500D03*
X176645000Y-69417500D03*
X138545000Y-88467500D03*
X176645000Y-107517500D03*
X119495000Y-69417500D03*
X100445000Y-69417500D03*
X138545000Y-107517500D03*
X119495000Y-107517500D03*
X157595000Y-107517500D03*
X157595000Y-69417500D03*
X157595000Y-88467500D03*
X176645000Y-88467500D03*
X119495000Y-88467500D03*
X188118750Y-91281250D03*
X187325000Y-69850000D03*
X100806250Y-115093750D03*
X97631250Y-109537500D03*
X184943750Y-115093750D03*
X186531250Y-88900000D03*
X186531250Y-107950000D03*
X184150000Y-114300000D03*
M02*
