M48
; DRILL file {KiCad (6.0.6)} date Mon Aug 15 00:28:01 2022
; FORMAT={-:-/ absolute / inch / decimal}
; #@! TF.CreationDate,2022-08-15T00:28:01+08:00
; #@! TF.GenerationSoftware,Kicad,Pcbnew,(6.0.6)
; #@! TF.FileFunction,NonPlated,1,2,NPTH
FMAT,2
INCH
; #@! TA.AperFunction,NonPlated,NPTH,ComponentDrill
T1C0.0689
; #@! TA.AperFunction,NonPlated,NPTH,ComponentDrill
T2C0.0866
; #@! TA.AperFunction,NonPlated,NPTH,ComponentDrill
T3C0.1201
; #@! TA.AperFunction,NonPlated,NPTH,ComponentDrill
T4C0.1575
%
G90
G05
T1
X3.925Y-2.5625
X3.925Y-3.3125
X3.925Y-4.0625
X4.325Y-2.5625
X4.325Y-3.3125
X4.325Y-4.0625
X4.675Y-2.5625
X4.675Y-3.3125
X4.675Y-4.0625
X5.075Y-2.5625
X5.075Y-3.3125
X5.075Y-4.0625
X5.425Y-2.5625
X5.425Y-3.3125
X5.425Y-4.0625
X5.825Y-2.5625
X5.825Y-3.3125
X5.825Y-4.0625
X6.175Y-2.5625
X6.175Y-3.3125
X6.175Y-4.0625
X6.575Y-2.5625
X6.575Y-3.3125
X6.575Y-4.0625
X6.925Y-2.5625
X6.925Y-3.3125
X6.925Y-4.0625
X7.325Y-2.5625
X7.325Y-3.3125
X7.325Y-4.0625
T2
X3.875Y-4.625
X3.9375Y-2.9375
X7.3125Y-2.9375
X7.375Y-4.625
T3
X3.975Y-2.4625
X3.975Y-3.2125
X3.975Y-3.9625
X4.225Y-2.3625
X4.225Y-3.1125
X4.225Y-3.8625
X4.725Y-2.4625
X4.725Y-3.2125
X4.725Y-3.9625
X4.975Y-2.3625
X4.975Y-3.1125
X4.975Y-3.8625
X5.475Y-2.4625
X5.475Y-3.2125
X5.475Y-3.9625
X5.725Y-2.3625
X5.725Y-3.1125
X5.725Y-3.8625
X6.225Y-2.4625
X6.225Y-3.2125
X6.225Y-3.9625
X6.475Y-2.3625
X6.475Y-3.1125
X6.475Y-3.8625
X6.975Y-2.4625
X6.975Y-3.2125
X6.975Y-3.9625
X7.225Y-2.3625
X7.225Y-3.1125
X7.225Y-3.8625
T4
X4.125Y-2.5625
X4.125Y-3.3125
X4.125Y-4.0625
X4.875Y-2.5625
X4.875Y-3.3125
X4.875Y-4.0625
X5.625Y-2.5625
X5.625Y-3.3125
X5.625Y-4.0625
X6.375Y-2.5625
X6.375Y-3.3125
X6.375Y-4.0625
X7.125Y-2.5625
X7.125Y-3.3125
X7.125Y-4.0625
T0
M30
