%TF.GenerationSoftware,KiCad,Pcbnew,(6.0.6)*%
%TF.CreationDate,2022-08-15T00:28:01+08:00*%
%TF.ProjectId,15k-macropad,31356b2d-6d61-4637-926f-7061642e6b69,rev?*%
%TF.SameCoordinates,Original*%
%TF.FileFunction,Paste,Bot*%
%TF.FilePolarity,Positive*%
%FSLAX46Y46*%
G04 Gerber Fmt 4.6, Leading zero omitted, Abs format (unit mm)*
G04 Created by KiCad (PCBNEW (6.0.6)) date 2022-08-15 00:28:01*
%MOMM*%
%LPD*%
G01*
G04 APERTURE LIST*
G04 Aperture macros list*
%AMRoundRect*
0 Rectangle with rounded corners*
0 $1 Rounding radius*
0 $2 $3 $4 $5 $6 $7 $8 $9 X,Y pos of 4 corners*
0 Add a 4 corners polygon primitive as box body*
4,1,4,$2,$3,$4,$5,$6,$7,$8,$9,$2,$3,0*
0 Add four circle primitives for the rounded corners*
1,1,$1+$1,$2,$3*
1,1,$1+$1,$4,$5*
1,1,$1+$1,$6,$7*
1,1,$1+$1,$8,$9*
0 Add four rect primitives between the rounded corners*
20,1,$1+$1,$2,$3,$4,$5,0*
20,1,$1+$1,$4,$5,$6,$7,0*
20,1,$1+$1,$6,$7,$8,$9,0*
20,1,$1+$1,$8,$9,$2,$3,0*%
%AMFreePoly0*
4,1,18,-0.410000,0.593000,-0.403758,0.624380,-0.385983,0.650983,-0.359380,0.668758,-0.328000,0.675000,0.328000,0.675000,0.359380,0.668758,0.385983,0.650983,0.403758,0.624380,0.410000,0.593000,0.410000,-0.593000,0.403758,-0.624380,0.385983,-0.650983,0.359380,-0.668758,0.328000,-0.675000,0.000000,-0.675000,-0.410000,-0.265000,-0.410000,0.593000,-0.410000,0.593000,$1*%
G04 Aperture macros list end*
%ADD10R,0.900000X1.200000*%
%ADD11RoundRect,0.250000X-1.025000X-1.000000X1.025000X-1.000000X1.025000X1.000000X-1.025000X1.000000X0*%
%ADD12FreePoly0,90.000000*%
%ADD13RoundRect,0.082000X0.593000X-0.328000X0.593000X0.328000X-0.593000X0.328000X-0.593000X-0.328000X0*%
%ADD14RoundRect,0.225000X0.225000X0.250000X-0.225000X0.250000X-0.225000X-0.250000X0.225000X-0.250000X0*%
G04 APERTURE END LIST*
D10*
%TO.C,D15*%
X182625000Y-94456250D03*
X179325000Y-94456250D03*
%TD*%
%TO.C,D14*%
X182625000Y-75406250D03*
X179325000Y-75406250D03*
%TD*%
%TO.C,D13*%
X182625000Y-56356250D03*
X179325000Y-56356250D03*
%TD*%
%TO.C,D12*%
X163575000Y-94456250D03*
X160275000Y-94456250D03*
%TD*%
%TO.C,D11*%
X163575000Y-75406250D03*
X160275000Y-75406250D03*
%TD*%
%TO.C,D10*%
X163575000Y-56356250D03*
X160275000Y-56356250D03*
%TD*%
%TO.C,D9*%
X144525000Y-94456250D03*
X141225000Y-94456250D03*
%TD*%
%TO.C,D8*%
X144525000Y-75406250D03*
X141225000Y-75406250D03*
%TD*%
%TO.C,D7*%
X144525000Y-56356250D03*
X141225000Y-56356250D03*
%TD*%
%TO.C,D6*%
X125475000Y-94456250D03*
X122175000Y-94456250D03*
%TD*%
%TO.C,D5*%
X125475000Y-75406250D03*
X122175000Y-75406250D03*
%TD*%
%TO.C,D4*%
X125475000Y-56356250D03*
X122175000Y-56356250D03*
%TD*%
%TO.C,D3*%
X106425000Y-94456250D03*
X103125000Y-94456250D03*
%TD*%
%TO.C,D2*%
X106425000Y-75406250D03*
X103125000Y-75406250D03*
%TD*%
%TO.C,D1*%
X106425000Y-56356250D03*
X103125000Y-56356250D03*
%TD*%
D11*
%TO.C,MX15*%
X186817000Y-98107500D03*
X173890000Y-100647500D03*
%TD*%
%TO.C,MX7*%
X148717000Y-60007500D03*
X135790000Y-62547500D03*
%TD*%
%TO.C,MX5*%
X129667000Y-79057500D03*
X116740000Y-81597500D03*
%TD*%
%TO.C,MX14*%
X186817000Y-79057500D03*
X173890000Y-81597500D03*
%TD*%
%TO.C,MX4*%
X129667000Y-60007500D03*
X116740000Y-62547500D03*
%TD*%
%TO.C,MX6*%
X129667000Y-98107500D03*
X116740000Y-100647500D03*
%TD*%
%TO.C,MX11*%
X167767000Y-79057500D03*
X154840000Y-81597500D03*
%TD*%
%TO.C,MX2*%
X110617000Y-79057500D03*
X97690000Y-81597500D03*
%TD*%
%TO.C,MX3*%
X110617000Y-98107500D03*
X97690000Y-100647500D03*
%TD*%
%TO.C,MX10*%
X167767000Y-60007500D03*
X154840000Y-62547500D03*
%TD*%
%TO.C,MX9*%
X148717000Y-98107500D03*
X135790000Y-100647500D03*
%TD*%
%TO.C,MX8*%
X148717000Y-79057500D03*
X135790000Y-81597500D03*
%TD*%
%TO.C,MX13*%
X173890000Y-62547500D03*
X186817000Y-60007500D03*
%TD*%
%TO.C,MX1*%
X110617000Y-60007500D03*
X97690000Y-62547500D03*
%TD*%
%TO.C,MX12*%
X167767000Y-98107500D03*
X154840000Y-100647500D03*
%TD*%
D12*
%TO.C,LED11*%
X164650000Y-89967500D03*
D13*
X164650000Y-88467500D03*
X159200000Y-89967500D03*
X159200000Y-88467500D03*
%TD*%
D12*
%TO.C,LED8*%
X145600000Y-89967500D03*
D13*
X145600000Y-88467500D03*
X140150000Y-89967500D03*
X140150000Y-88467500D03*
%TD*%
D12*
%TO.C,LED6*%
X126550000Y-109017500D03*
D13*
X126550000Y-107517500D03*
X121100000Y-109017500D03*
X121100000Y-107517500D03*
%TD*%
D12*
%TO.C,LED12*%
X164650000Y-109017500D03*
D13*
X164650000Y-107517500D03*
X159200000Y-109017500D03*
X159200000Y-107517500D03*
%TD*%
D12*
%TO.C,LED13*%
X183700000Y-70917500D03*
D13*
X183700000Y-69417500D03*
X178250000Y-70917500D03*
X178250000Y-69417500D03*
%TD*%
D14*
%TO.C,C2*%
X97523000Y-88467500D03*
X99073000Y-88467500D03*
%TD*%
%TO.C,C12*%
X154800000Y-107517500D03*
X156350000Y-107517500D03*
%TD*%
%TO.C,C5*%
X116700000Y-88467500D03*
X118250000Y-88467500D03*
%TD*%
D12*
%TO.C,LED3*%
X107500000Y-109017500D03*
D13*
X107500000Y-107517500D03*
X102050000Y-109017500D03*
X102050000Y-107517500D03*
%TD*%
D14*
%TO.C,C10*%
X154800000Y-69417500D03*
X156350000Y-69417500D03*
%TD*%
%TO.C,C13*%
X173850000Y-69417500D03*
X175400000Y-69417500D03*
%TD*%
D12*
%TO.C,LED7*%
X145600000Y-70917500D03*
D13*
X145600000Y-69417500D03*
X140150000Y-70917500D03*
X140150000Y-69417500D03*
%TD*%
D12*
%TO.C,LED9*%
X145600000Y-109017500D03*
D13*
X145600000Y-107517500D03*
X140150000Y-109017500D03*
X140150000Y-107517500D03*
%TD*%
D14*
%TO.C,C15*%
X173850000Y-107517500D03*
X175400000Y-107517500D03*
%TD*%
%TO.C,C8*%
X135750000Y-88467500D03*
X137300000Y-88467500D03*
%TD*%
D12*
%TO.C,LED14*%
X183700000Y-89967500D03*
D13*
X183700000Y-88467500D03*
X178250000Y-89967500D03*
X178250000Y-88467500D03*
%TD*%
D12*
%TO.C,LED5*%
X126550000Y-89967500D03*
D13*
X126550000Y-88467500D03*
X121100000Y-89967500D03*
X121100000Y-88467500D03*
%TD*%
D12*
%TO.C,LED10*%
X164650000Y-70917500D03*
D13*
X164650000Y-69417500D03*
X159200000Y-70917500D03*
X159200000Y-69417500D03*
%TD*%
D14*
%TO.C,C3*%
X97650000Y-107517500D03*
X99200000Y-107517500D03*
%TD*%
%TO.C,C14*%
X173850000Y-88467500D03*
X175400000Y-88467500D03*
%TD*%
D12*
%TO.C,LED1*%
X107500000Y-70917500D03*
D13*
X107500000Y-69417500D03*
X102050000Y-70917500D03*
X102050000Y-69417500D03*
%TD*%
D14*
%TO.C,C7*%
X135750000Y-69417500D03*
X137300000Y-69417500D03*
%TD*%
D12*
%TO.C,LED2*%
X107500000Y-89967500D03*
D13*
X107500000Y-88467500D03*
X102050000Y-89967500D03*
X102050000Y-88467500D03*
%TD*%
D12*
%TO.C,LED4*%
X126550000Y-70917500D03*
D13*
X126550000Y-69417500D03*
X121100000Y-70917500D03*
X121100000Y-69417500D03*
%TD*%
D12*
%TO.C,LED15*%
X183700000Y-109017500D03*
D13*
X183700000Y-107517500D03*
X178250000Y-109017500D03*
X178250000Y-107517500D03*
%TD*%
D14*
%TO.C,C4*%
X116718750Y-69417500D03*
X118268750Y-69417500D03*
%TD*%
%TO.C,C1*%
X97650000Y-69417500D03*
X99200000Y-69417500D03*
%TD*%
%TO.C,C9*%
X135750000Y-107517500D03*
X137300000Y-107517500D03*
%TD*%
%TO.C,C11*%
X154800000Y-88467500D03*
X156350000Y-88467500D03*
%TD*%
%TO.C,C6*%
X116700000Y-107517500D03*
X118250000Y-107517500D03*
%TD*%
M02*
